#N canvas 304 153 397 355 10;
#X msg 42 67 disconnect;
#X obj 99 293 print udp;
#X msg 109 27 connect 192.168.50.100 54322;
#X obj 99 215 netreceive -u -b 54321;
#X obj 110 174 netsend -u -b;
#X obj 99 238 oscparse;
#X obj 172 259 list trim;
#X floatatom 172 301 5 0 0 0 - - -, f 5;
#X obj 172 280 route valueToNetwork;
#X obj 136 127 list prepend send;
#X obj 136 152 list trim;
#X floatatom 136 62 5 0 0 0 - - -, f 5;
#X obj 136 103 oscformat valueToNetwork;
#X obj 136 82 / 100;
#X connect 0 0 4 0;
#X connect 2 0 4 0;
#X connect 3 0 5 0;
#X connect 5 0 6 0;
#X connect 5 0 1 0;
#X connect 6 0 8 0;
#X connect 8 0 7 0;
#X connect 9 0 10 0;
#X connect 10 0 4 0;
#X connect 11 0 13 0;
#X connect 12 0 9 0;
#X connect 13 0 12 0;
