#N canvas 274 303 799 714 16;
#X obj 46 440 dac~;
#X obj 100 367 *~ 0.1;
#X floatatom 102 75 5 0 0 0 - - -, f 5;
#X obj 394 252 tgl 25 0 empty empty empty 17 7 0 10 -204786 -1 -1 0.5
0.5;
#X obj 102 106 mtof;
#X floatatom 103 144 5 0 0 0 - - -, f 5;
#X obj 102 185 osc~;
#X obj 395 114 key;
#X floatatom 395 143 5 0 0 0 - - -, f 5;
#X obj 482 111 keyup;
#X floatatom 482 140 5 0 0 0 - - -, f 5;
#X msg 478 184 0;
#X obj 27 368 *~ 0.1;
#X obj 29 186 osc~;
#X obj 32 148 + 2;
#X obj 27 223 clip~ -0.5 0.5;
#X obj 44 256 clip~ -0.5 0.5;
#X obj 120 305 vcf~;
#X floatatom 246 226 5 0 0 0 - - -, f 5;
#X floatatom 311 227 5 0 0 0 - - -, f 5;
#X obj 311 53 vsl 15 128 1 50 0 0 empty empty empty 0 -9 0 10 -262144
-1 -1 7900 1;
#X obj 247 52 vsl 15 128 30 127 0 0 empty empty empty 0 -9 0 10 -262144
-1 -1 10300 1;
#X obj 247 195 mtof;
#X obj 47 307 vcf~;
#X msg 394 189 0.5;
#X connect 1 0 0 1;
#X connect 2 0 4 0;
#X connect 3 0 1 1;
#X connect 3 0 12 1;
#X connect 4 0 5 0;
#X connect 5 0 6 0;
#X connect 5 0 14 0;
#X connect 6 0 16 0;
#X connect 7 0 8 0;
#X connect 7 0 24 0;
#X connect 8 0 2 0;
#X connect 9 0 10 0;
#X connect 9 0 11 0;
#X connect 11 0 3 0;
#X connect 12 0 0 0;
#X connect 13 0 15 0;
#X connect 14 0 13 0;
#X connect 15 0 23 0;
#X connect 16 0 17 0;
#X connect 17 1 1 0;
#X connect 18 0 17 1;
#X connect 18 0 23 1;
#X connect 19 0 17 2;
#X connect 19 0 23 2;
#X connect 20 0 19 0;
#X connect 21 0 22 0;
#X connect 22 0 18 0;
#X connect 23 1 12 0;
#X connect 24 0 3 0;
