#N canvas 274 303 669 449 16;
#X obj 111 377 dac~;
#X obj 476 216 tgl 25 0 empty empty empty 17 7 0 10 -204786 -1 -1 0.5
0.5;
#X obj 143 47 mtof;
#X obj 143 166 osc~;
#X obj 477 90 key;
#X floatatom 477 124 5 0 0 0 - - -, f 5;
#X obj 539 90 keyup;
#X floatatom 539 124 5 0 0 0 - - -, f 5;
#X msg 539 155 0;
#X obj 32 169 osc~;
#X obj 32 206 clip~ -0.5 0.5;
#X obj 143 241 clip~ -0.5 0.5;
#X obj 143 298 vcf~;
#X floatatom 327 251 5 0 0 0 - - -, f 5;
#X floatatom 394 253 5 0 0 0 - - -, f 5;
#X obj 394 82 vsl 15 128 1 50 0 0 empty empty empty 0 -9 0 10 -262144
-1 -1 2333 1;
#X obj 328 79 vsl 15 128 30 127 0 0 empty empty empty 0 -9 0 10 -262144
-1 -1 10474 1;
#X obj 327 220 mtof;
#X obj 32 299 vcf~;
#X msg 477 155 0.5;
#X obj 327 17 loadbang;
#X obj 476 285 line~;
#X msg 476 251 \$1 50;
#X obj 69 339 *~;
#X obj 180 339 *~;
#X obj 143 125 line~;
#X obj 32 132 +~ 2;
#X msg 143 91 \$1 150;
#X msg 394 49 10;
#X msg 327 49 110;
#X connect 1 0 22 0;
#X connect 2 0 27 0;
#X connect 3 0 11 0;
#X connect 4 0 5 0;
#X connect 5 0 2 0;
#X connect 5 0 19 0;
#X connect 6 0 7 0;
#X connect 7 0 8 0;
#X connect 8 0 1 0;
#X connect 9 0 10 0;
#X connect 10 0 18 0;
#X connect 11 0 12 0;
#X connect 12 1 24 0;
#X connect 13 0 12 1;
#X connect 13 0 18 1;
#X connect 14 0 12 2;
#X connect 14 0 18 2;
#X connect 15 0 14 0;
#X connect 16 0 17 0;
#X connect 17 0 13 0;
#X connect 18 1 23 0;
#X connect 19 0 1 0;
#X connect 20 0 29 0;
#X connect 20 0 28 0;
#X connect 21 0 24 1;
#X connect 21 0 23 1;
#X connect 22 0 21 0;
#X connect 23 0 0 0;
#X connect 24 0 0 1;
#X connect 25 0 26 0;
#X connect 25 0 3 0;
#X connect 26 0 9 0;
#X connect 27 0 25 0;
#X connect 28 0 15 0;
#X connect 29 0 16 0;
