#N canvas 848 192 562 557 16;
#X obj 48 32 noise~;
#X obj 132 336 dac~;
#X obj 117 247 vcf~;
#X obj 48 68 *~ 0.3;
#X floatatom 149 202 5 0 0 0 - - -, f 5;
#X floatatom 214 203 5 0 0 0 - - -, f 5;
#X obj 214 29 vsl 15 128 1 50 0 0 empty empty empty 0 -9 0 10 -262144
-1 -1 5200 1;
#X obj 150 31 vsl 15 128 30 100 0 0 empty empty empty 0 -9 0 10 -262144
-1 -1 6800 1;
#X obj 150 171 mtof;
#X connect 0 0 3 0;
#X connect 2 1 1 0;
#X connect 2 1 1 1;
#X connect 3 0 2 0;
#X connect 4 0 2 1;
#X connect 5 0 2 2;
#X connect 6 0 5 0;
#X connect 7 0 8 0;
#X connect 8 0 4 0;
