#N canvas 751 278 331 209 10;
#X obj 57 109 dac~;
#N canvas 1119 876 526 492 mobmuplat_ctl 0;
#X obj 233 342 mtof;
#X obj 47 41 receive fromSystem;
#X obj 47 68 list trim;
#X obj 47 95 route /tilts;
#X obj 47 122 unpack 0 0;
#X obj 104 220 + 0;
#X floatatom 104 151 5 0 0 0 - - -, f 5;
#X obj 104 196 t b f;
#X obj 47 337 expr ($f1+1.0)*0.4;
#X obj 104 172 expr ($f1+1)*12;
#X obj 233 313 + 48;
#X obj 231 41 receive fromGUI;
#X obj 231 68 list trim;
#X obj 231 233 route 0 1 2 3;
#X msg 231 258 48;
#X msg 249 281 60;
#X msg 268 258 72;
#X msg 287 283 84;
#X obj 233 366 s freq;
#X obj 47 366 s amp;
#X obj 298 366 s playStop;
#X obj 231 95 route /octave /playStop;
#X connect 0 0 18 0;
#X connect 1 0 2 0;
#X connect 2 0 3 0;
#X connect 3 0 4 0;
#X connect 4 0 8 0;
#X connect 4 1 6 0;
#X connect 5 0 10 0;
#X connect 6 0 9 0;
#X connect 7 0 5 0;
#X connect 7 1 5 1;
#X connect 8 0 19 0;
#X connect 9 0 7 0;
#X connect 10 0 0 0;
#X connect 11 0 12 0;
#X connect 12 0 21 0;
#X connect 13 0 14 0;
#X connect 13 1 15 0;
#X connect 13 2 16 0;
#X connect 13 3 17 0;
#X connect 14 0 10 1;
#X connect 15 0 10 1;
#X connect 16 0 10 1;
#X connect 17 0 10 1;
#X connect 21 0 13 0;
#X connect 21 1 20 0;
#X restore 171 45 pd mobmuplat_ctl;
#N canvas 1301 829 413 375 synth 0;
#X obj 52 313 outlet~;
#X obj 52 196 osc~;
#X obj 52 82 line~;
#X msg 52 57 \$1 70;
#X obj 52 267 cos~;
#X obj 52 219 +~ 0.25;
#X obj 52 242 *~;
#X obj 185 83 line~;
#X msg 185 57 \$1 20;
#X obj 113 61 osc~ 4.5;
#X obj 113 114 *~;
#X obj 113 137 +~ 1;
#X obj 52 173 *~;
#X obj 185 141 *~;
#X obj 235 83 line~;
#X msg 235 57 \$1 20;
#X obj 52 290 hip~ 10;
#X obj 113 86 *~ 0.07;
#X obj 52 31 r freq;
#X obj 185 31 r amp;
#X obj 235 31 r playStop;
#X connect 1 0 5 0;
#X connect 2 0 12 0;
#X connect 3 0 2 0;
#X connect 4 0 16 0;
#X connect 5 0 6 0;
#X connect 6 0 4 0;
#X connect 7 0 10 1;
#X connect 7 0 13 0;
#X connect 8 0 7 0;
#X connect 9 0 17 0;
#X connect 10 0 11 0;
#X connect 11 0 12 1;
#X connect 12 0 1 0;
#X connect 13 0 6 1;
#X connect 14 0 13 1;
#X connect 15 0 14 0;
#X connect 16 0 0 0;
#X connect 17 0 10 0;
#X connect 18 0 3 0;
#X connect 19 0 8 0;
#X connect 20 0 15 0;
#X restore 57 43 pd synth;
#N canvas 1913 332 202 197 reverb 0;
#X obj 38 60 *~ 0.3;
#X obj 64 91 rev1~;
#X msg 92 45 50;
#X obj 92 20 loadbang;
#X obj 38 20 inlet~;
#X obj 64 119 outlet~;
#X connect 0 0 1 0;
#X connect 1 0 5 0;
#X connect 2 0 1 1;
#X connect 3 0 2 0;
#X connect 4 0 0 0;
#X restore 57 75 pd reverb;
#X connect 2 0 3 0;
#X connect 3 0 0 0;
#X connect 3 0 0 1;
