#N canvas 751 278 331 209 10;
#X obj 57 109 dac~;
#N canvas 1456 714 790 339 mobmuplat_ctl 0;
#X obj 47 41 receive fromSystem;
#X obj 47 68 list trim;
#X obj 47 95 route /tilts;
#X obj 47 122 unpack 0 0;
#X obj 47 147 expr ($f1+1.0)*0.4;
#X obj 231 41 receive fromGUI;
#X obj 231 68 list trim;
#X obj 47 176 s amp;
#X obj 231 121 s playStop;
#X obj 104 245 s note;
#X obj 299 208 s preset;
#N canvas 119 121 450 278 (subpatch) 0;
#X array scale 22 float 3;
#A 0 2 4 6 8 10 12 14 16 18 20 22 24 26 28 30 32 34 36 38 40 42 44
;
#X coords 0 0 22 44 200 140 1 0 0;
#X restore 419 124 graph;
#X obj 231 95 route /playStop /preset;
#X obj 104 196 tabread scale;
#X obj 419 38 loadbang;
#X obj 104 218 + 44;
#X msg 419 66 \; scale 0 2 4 6 8 10 12 14 16 18 20 22 24 26 28 30 32
34 36 38 40 42 44;
#X obj 298 122 unpack 0 0 0;
#X obj 299 156 pack 0 0;
#X obj 299 178 route 0;
#X obj 104 172 expr ($f1+1)*11;
#X connect 0 0 1 0;
#X connect 1 0 2 0;
#X connect 2 0 3 0;
#X connect 3 0 4 0;
#X connect 3 1 20 0;
#X connect 4 0 7 0;
#X connect 5 0 6 0;
#X connect 6 0 12 0;
#X connect 12 0 8 0;
#X connect 12 1 17 0;
#X connect 13 0 15 0;
#X connect 14 0 16 0;
#X connect 15 0 9 0;
#X connect 17 0 18 1;
#X connect 17 2 18 0;
#X connect 18 0 19 0;
#X connect 19 0 10 0;
#X connect 20 0 13 0;
#X restore 171 45 pd mobmuplat_ctl;
#N canvas 1076 363 887 385 synth 0;
#X obj 37 148 line~;
#X obj 534 175 line~;
#X obj 534 203 *~;
#X obj 584 175 line~;
#X obj 534 123 r amp;
#X obj 584 123 r playStop;
#X obj 37 23 r note;
#X obj 459 303 outlet~;
#X obj 37 178 osc~;
#X obj 119 178 osc~;
#X obj 203 178 osc~;
#X obj 280 178 osc~;
#X obj 374 178 osc~;
#X obj 134 27 r fcoef2;
#X obj 218 27 r fcoef3;
#X obj 295 27 r fcoef4;
#X obj 389 27 r fcoef5;
#X obj 37 267 amp-mod 0.07;
#X obj 203 267 amp-mod 0.1;
#X obj 119 267 amp-mod 0.05;
#X obj 280 267 amp-mod 0.035;
#X obj 374 267 amp-mod 0.08;
#X obj 460 178 osc~;
#X obj 482 27 r fcoef6;
#X obj 459 267 amp-mod 0.063;
#X obj 119 69 + 2;
#X obj 203 69 + 4;
#X obj 280 69 + 6;
#X obj 374 69 + 8;
#X obj 461 69 + 10;
#X obj 37 96 mtof;
#X obj 119 96 mtof;
#X obj 280 96 mtof;
#X obj 203 96 mtof;
#X obj 460 96 mtof;
#X obj 374 96 mtof;
#X obj 689 46 route 0 1 2 3 4 5;
#X msg 689 75 \; fcoef2 2 \; fcoef3 4 \; fcoef4 6 \; fcoef5 8 \; fcoef6
10 \;;
#X msg 705 165 \; fcoef2 4 \; fcoef3 8 \; fcoef4 12 \; fcoef5 16 \;
fcoef6 20 \;;
#X msg 724 255 \; fcoef2 6 \; fcoef3 12 \; fcoef4 18 \; fcoef5 24 \;
fcoef6 30 \;;
#X obj 119 148 line~;
#X obj 203 148 line~;
#X obj 280 148 line~;
#X obj 374 148 line~;
#X obj 460 148 line~;
#X obj 37 242 *~;
#X obj 119 242 *~;
#X obj 203 242 *~;
#X obj 280 242 *~;
#X obj 374 242 *~;
#X obj 460 242 *~;
#X msg 764 74 \; fcoef2 8 \; fcoef3 16 \; fcoef4 24 \; fcoef5 32 \;
fcoef6 40 \;;
#X msg 781 163 \; fcoef2 10 \; fcoef3 20 \; fcoef4 30 \; fcoef5 40
\; fcoef6 50 \;;
#X obj 689 21 r preset;
#X msg 37 123 \$1 20;
#X msg 119 123 \$1 20;
#X msg 203 123 \$1 20;
#X msg 280 123 \$1 20;
#X msg 374 123 \$1 20;
#X msg 460 123 \$1 20;
#X msg 534 149 \$1 20;
#X msg 584 149 \$1 5;
#X connect 0 0 8 0;
#X connect 1 0 2 0;
#X connect 2 0 45 1;
#X connect 2 0 46 1;
#X connect 2 0 47 1;
#X connect 2 0 48 1;
#X connect 2 0 49 1;
#X connect 2 0 50 1;
#X connect 3 0 2 1;
#X connect 4 0 60 0;
#X connect 5 0 61 0;
#X connect 6 0 30 0;
#X connect 6 0 25 0;
#X connect 6 0 26 0;
#X connect 6 0 27 0;
#X connect 6 0 28 0;
#X connect 6 0 29 0;
#X connect 8 0 45 0;
#X connect 9 0 46 0;
#X connect 10 0 47 0;
#X connect 11 0 48 0;
#X connect 12 0 49 0;
#X connect 13 0 25 1;
#X connect 14 0 26 1;
#X connect 15 0 27 1;
#X connect 16 0 28 1;
#X connect 17 0 7 0;
#X connect 18 0 7 0;
#X connect 19 0 7 0;
#X connect 20 0 7 0;
#X connect 21 0 7 0;
#X connect 22 0 50 0;
#X connect 23 0 29 1;
#X connect 24 0 7 0;
#X connect 25 0 31 0;
#X connect 26 0 33 0;
#X connect 27 0 32 0;
#X connect 28 0 35 0;
#X connect 29 0 34 0;
#X connect 30 0 54 0;
#X connect 31 0 55 0;
#X connect 32 0 57 0;
#X connect 33 0 56 0;
#X connect 34 0 59 0;
#X connect 35 0 58 0;
#X connect 36 0 37 0;
#X connect 36 1 38 0;
#X connect 36 2 39 0;
#X connect 36 3 51 0;
#X connect 36 4 52 0;
#X connect 40 0 9 0;
#X connect 41 0 10 0;
#X connect 42 0 11 0;
#X connect 43 0 12 0;
#X connect 44 0 22 0;
#X connect 45 0 17 0;
#X connect 46 0 19 0;
#X connect 47 0 18 0;
#X connect 48 0 20 0;
#X connect 49 0 21 0;
#X connect 50 0 24 0;
#X connect 53 0 36 0;
#X connect 54 0 0 0;
#X connect 55 0 40 0;
#X connect 56 0 41 0;
#X connect 57 0 42 0;
#X connect 58 0 43 0;
#X connect 59 0 44 0;
#X connect 60 0 1 0;
#X connect 61 0 3 0;
#X restore 57 43 pd synth;
#N canvas 1913 332 202 197 reverb 0;
#X obj 64 91 rev1~;
#X msg 118 45 50;
#X obj 118 20 loadbang;
#X obj 9 22 inlet~;
#X obj 9 126 outlet~;
#X obj 9 60 *~ 0.3;
#X obj 64 60 *~ 0.1;
#X connect 0 0 4 0;
#X connect 1 0 0 1;
#X connect 2 0 1 0;
#X connect 3 0 6 0;
#X connect 3 0 5 0;
#X connect 5 0 4 0;
#X connect 6 0 0 0;
#X restore 57 75 pd reverb;
#X connect 2 0 3 0;
#X connect 3 0 0 0;
#X connect 3 0 0 1;
