#N canvas 274 150 926 626 10;
#N canvas 0 22 450 278 (subpatch) 0;
#X array moja-skala 12 float 3;
#A 0 0 2 4 7 9 9 11 0 0 0 0 0;
#X coords 0 12 12 0 200 140 1 0 0;
#X restore 330 72 graph;
#X obj 83 200 tabread moja-skala;
#X floatatom 83 118 5 0 0 0 - - -, f 5;
#X floatatom 83 222 5 0 0 0 - - -, f 5;
#X obj 604 206 tabwrite moja-skala;
#X obj 128 228 i;
#X floatatom 128 250 5 0 0 0 - - -, f 5;
#X obj 83 175 mod 7;
#X obj 128 175 / 7;
#X floatatom 83 341 5 0 0 0 - - -, f 5;
#X obj 83 146 t i i;
#X obj 83 309 +;
#X obj 128 269 * 12;
#X obj 83 361 mtof;
#X obj 83 383 osc~;
#X obj 83 405 *~ 0.1;
#X obj 83 427 dac~;
#X msg 608 33 \; moja-skala 0 0 2 3 5 7 8 10 \; number-notes 7;
#X msg 607 84 \; moja-skala 0 0 2 4 5 7 9 11 \; number-notes 7;
#X msg 605 135 \; moja-skala 0 0 2 4 7 9 \; number-notes 5;
#X obj 143 145 r number-notes;
#X connect 1 0 3 0;
#X connect 2 0 10 0;
#X connect 3 0 11 0;
#X connect 5 0 6 0;
#X connect 6 0 12 0;
#X connect 7 0 1 0;
#X connect 8 0 5 0;
#X connect 9 0 13 0;
#X connect 10 0 7 0;
#X connect 10 1 8 0;
#X connect 11 0 9 0;
#X connect 12 0 11 1;
#X connect 13 0 14 0;
#X connect 14 0 15 0;
#X connect 15 0 16 0;
#X connect 15 0 16 1;
#X connect 20 0 8 1;
#X connect 20 0 7 1;
