#N canvas 405 253 731 533 10;
#X obj 37 237 hip~ 5;
#X obj 37 406 output~;
#X obj 37 210 tabread4~ my-table;
#N canvas 0 22 450 278 (subpatch) 0;
#X array my-table 1.81658e+06 float 2;
#X coords 0 1 1.81658e+06 -1 200 140 1;
#X restore 250 56 graph;
#X text 66 299 fmod depth offs feedb;
#X text 53 313 [0.01Hz] [ms] [ms] [0.01];
#X floatatom 58 335 5 0 5000 0 - del_fmod -, f 5;
#X floatatom 98 335 5 0 2000 0 - del_depth -, f 5;
#X floatatom 137 335 5 0 2000 0 - del_offs -, f 5;
#X floatatom 176 335 5 0 110 0 - del_feedb -, f 5;
#N canvas 1285 504 692 223 init 0;
#X obj 32 18 loadbang;
#X obj 32 84 soundfiler;
#X obj 32 111 s length;
#X msg 32 41 read -resize Dalajlama.wav my-table;
#X msg 230 68 \; position 0 20 25 30 35 40 45 50 55 60 65 70 75 80
85 90 95 \; speed 0 100 100 100 100 100 100 100 100 100 100 100 100
100 100 100 100 \; volume 0 100 100 100 100 100 100 100 100 100 100
100 100 100 100 100 100;
#X msg 118 72 \; del_fmod 3 \; del_depth 150 \; del_offs 20 \; del_feedb
80 \; time-intv 500 \; speed 100;
#X connect 0 0 3 0;
#X connect 0 0 5 0;
#X connect 0 0 4 0;
#X connect 1 0 2 0;
#X connect 3 0 1 0;
#X restore 191 442 pd init;
#N canvas 589 447 912 720 st-mod-delay 0;
#X obj 136 199 line~;
#X obj 136 165 pack 0 100;
#X obj 264 418 line~;
#X obj 264 384 pack 0 100;
#X obj 264 350 * 0.01;
#X obj 33 363 +~;
#X obj 243 454 *~;
#X obj 61 227 *~;
#X obj 61 125 / 100;
#X obj 33 397 hip~ 5;
#X obj 61 193 +~ 1;
#X obj 61 159 osc~ 0;
#X text 114 91 <-- cycle frequency (hundredths);
#X text 189 132 <-- cycle depth (msec);
#X text 313 317 <-- feedback (hundredths);
#X obj 243 488 clip~ -1 1;
#X obj 234 233 line~;
#X obj 234 199 pack 0 100;
#X text 287 166 <-- offset (msec);
#X obj 166 272 +~ 1.46;
#X obj 61 261 +~;
#X obj 117 39 inlet;
#X obj 191 39 inlet;
#X obj 268 39 inlet;
#X obj 342 39 inlet;
#X obj 35 39 inlet~;
#X obj 33 559 outlet~;
#X obj 243 590 delwrite~ mod-del 1000;
#X obj 61 304 vd~ mod-del;
#X obj 693 419 line~;
#X obj 693 385 pack 0 100;
#X obj 693 351 * 0.01;
#X obj 462 364 +~;
#X obj 672 455 *~;
#X obj 490 228 *~;
#X obj 462 398 hip~ 5;
#X obj 672 489 clip~ -1 1;
#X obj 490 262 +~;
#X obj 462 590 outlet~;
#X obj 490 163 *~ -1;
#X obj 672 601 delwrite~ mod-del2 1000;
#X obj 490 305 vd~ mod-del2;
#X obj 490 194 +~ 1;
#X obj 243 526 lop~ 4000;
#X obj 672 527 lop~ 4000;
#X obj 392 553 *~ 0.1;
#X obj 564 559 *~ 0.1;
#X connect 0 0 7 1;
#X connect 0 0 34 1;
#X connect 1 0 0 0;
#X connect 2 0 6 1;
#X connect 3 0 2 0;
#X connect 4 0 3 0;
#X connect 5 0 9 0;
#X connect 6 0 15 0;
#X connect 7 0 20 0;
#X connect 8 0 11 0;
#X connect 9 0 6 0;
#X connect 9 0 26 0;
#X connect 10 0 7 0;
#X connect 11 0 10 0;
#X connect 11 0 39 0;
#X connect 15 0 43 0;
#X connect 16 0 19 0;
#X connect 17 0 16 0;
#X connect 19 0 20 1;
#X connect 19 0 37 1;
#X connect 20 0 28 0;
#X connect 21 0 8 0;
#X connect 22 0 1 0;
#X connect 23 0 17 0;
#X connect 24 0 4 0;
#X connect 24 0 31 0;
#X connect 25 0 5 0;
#X connect 25 0 32 0;
#X connect 28 0 5 1;
#X connect 29 0 33 1;
#X connect 30 0 29 0;
#X connect 31 0 30 0;
#X connect 32 0 35 0;
#X connect 33 0 36 0;
#X connect 34 0 37 0;
#X connect 35 0 33 0;
#X connect 35 0 38 0;
#X connect 36 0 44 0;
#X connect 37 0 41 0;
#X connect 39 0 42 0;
#X connect 41 0 32 1;
#X connect 42 0 34 0;
#X connect 43 0 27 0;
#X connect 43 0 45 0;
#X connect 44 0 40 0;
#X connect 44 0 46 0;
#X connect 45 0 40 0;
#X connect 46 0 27 0;
#X restore 37 367 pd st-mod-delay;
#X obj 261 269 f;
#X obj 294 267 + 1;
#N canvas 0 22 450 300 (subpatch) 0;
#X array position 16 float 2;
#X coords 0 100 16 0 200 100 1 0 0;
#X restore 475 62 graph;
#X obj 261 226 tgl 15 0 empty \$0-metro empty 0 -6 0 8 -262144 -1 -1
0 1;
#X obj 261 245 metro 500;
#X floatatom 261 344 5 0 0 0 - - -, f 5;
#X obj 261 315 tabread position;
#N canvas 0 22 450 300 (subpatch) 0;
#X array volume 16 float 2;
#X coords 0 100 16 0 200 100 1 0 0;
#X restore 473 304 graph;
#N canvas 0 22 450 300 (subpatch) 0;
#X array speed 16 float 2;
#X coords 0 200 16 25 200 100 1 0 0;
#X restore 473 180 graph;
#X obj 300 342 tabread speed;
#X obj 358 368 tabread volume;
#X floatatom 300 364 5 0 0 0 - - -, f 5;
#X floatatom 358 390 5 0 0 0 - - -, f 5;
#X obj 261 363 s pos;
#X obj 300 383 s speed;
#X obj 358 409 s vol;
#X obj 37 284 *~;
#X obj 37 182 line~;
#X obj 37 16 r pos;
#X obj 80 26 r length;
#X obj 37 41 / 100;
#X obj 37 64 *;
#X obj 37 132 pack;
#X msg 37 157 \$1 \, \$2 500;
#X obj 294 291 mod 16;
#X floatatom 325 224 5 20 3000 0 - - -, f 5;
#N canvas 1270 732 259 263 env 0;
#X obj 49 25 r vol;
#X obj 49 48 dbtorms;
#X obj 49 177 line~;
#X obj 49 71 t f b;
#X obj 49 199 outlet~;
#X msg 49 94 \$1 5;
#X obj 96 98 del 5;
#X obj 144 71 r time-intv;
#X obj 144 99 - 5;
#X obj 96 123 f;
#X msg 96 148 0 \$1;
#X connect 0 0 1 0;
#X connect 1 0 3 0;
#X connect 2 0 4 0;
#X connect 3 0 5 0;
#X connect 3 1 6 0;
#X connect 5 0 2 0;
#X connect 6 0 9 0;
#X connect 7 0 8 0;
#X connect 8 0 9 1;
#X connect 9 0 10 0;
#X connect 10 0 2 0;
#X restore 61 262 pd env;
#X obj 99 57 r speed;
#X obj 343 253 s time-intv;
#X obj 64 109 +;
#X obj 231 227 bng 15 250 50 0 empty empty empty 17 7 0 10 -262144
-1 -1;
#X obj 129 147 print;
#X obj 99 85 * 220.5;
#X obj 37 86 t f f t;
#X connect 0 0 28 0;
#X connect 2 0 0 0;
#X connect 6 0 11 1;
#X connect 7 0 11 2;
#X connect 8 0 11 3;
#X connect 9 0 11 4;
#X connect 11 0 1 0;
#X connect 11 1 1 1;
#X connect 12 0 13 0;
#X connect 12 0 18 0;
#X connect 12 0 21 0;
#X connect 12 0 22 0;
#X connect 13 0 36 0;
#X connect 15 0 16 0;
#X connect 16 0 12 0;
#X connect 17 0 25 0;
#X connect 18 0 17 0;
#X connect 21 0 23 0;
#X connect 22 0 24 0;
#X connect 23 0 26 0;
#X connect 24 0 27 0;
#X connect 28 0 11 0;
#X connect 29 0 2 0;
#X connect 30 0 32 0;
#X connect 31 0 33 1;
#X connect 32 0 33 0;
#X connect 33 0 45 0;
#X connect 34 0 35 0;
#X connect 34 0 43 0;
#X connect 35 0 29 0;
#X connect 36 0 12 1;
#X connect 37 0 16 1;
#X connect 37 0 40 0;
#X connect 38 0 28 1;
#X connect 39 0 44 0;
#X connect 41 0 34 1;
#X connect 42 0 12 0;
#X connect 44 0 41 1;
#X connect 45 0 34 0;
#X connect 45 1 41 0;
#X coords 0 533 1 532 85 60 0;
