#N canvas 685 423 818 527 10;
#X obj 37 221 hip~ 5;
#X obj 37 400 output~;
#X obj 37 194 tabread4~ my-table;
#N canvas 0 22 450 278 (subpatch) 0;
#X array my-table 1.81658e+06 float 2;
#X coords 0 1 1.81658e+06 -1 200 140 1;
#X restore 250 50 graph;
#X text 66 293 fmod depth offs feedb;
#X text 53 307 [0.01Hz] [ms] [ms] [0.01];
#X floatatom 58 329 5 0 0 0 - del_fmod -, f 5;
#X floatatom 98 329 5 0 0 0 - del_depth -, f 5;
#X floatatom 137 329 5 0 0 0 - del_offs -, f 5;
#X floatatom 177 330 5 0 0 0 - del_feedb -, f 5;
#N canvas 833 892 305 199 init 0;
#X obj 32 18 loadbang;
#X obj 32 84 soundfiler;
#X obj 32 111 s length;
#X msg 32 41 read -resize Dalajlama.wav my-table;
#X msg 118 72 \; del_fmod 3 \; del_depth 150 \; del_offs 20 \; del_feedb
80;
#X connect 0 0 3 0;
#X connect 0 0 4 0;
#X connect 1 0 2 0;
#X connect 3 0 1 0;
#X restore 191 436 pd init;
#N canvas 589 447 912 720 st-mod-delay 0;
#X obj 136 199 line~;
#X obj 136 165 pack 0 100;
#X obj 264 418 line~;
#X obj 264 384 pack 0 100;
#X obj 264 350 * 0.01;
#X obj 33 363 +~;
#X obj 243 454 *~;
#X obj 61 227 *~;
#X obj 61 125 / 100;
#X obj 33 397 hip~ 5;
#X obj 61 193 +~ 1;
#X obj 61 159 osc~ 0;
#X text 114 91 <-- cycle frequency (hundredths);
#X text 189 132 <-- cycle depth (msec);
#X text 313 317 <-- feedback (hundredths);
#X obj 243 488 clip~ -1 1;
#X obj 234 233 line~;
#X obj 234 199 pack 0 100;
#X text 287 166 <-- offset (msec);
#X obj 166 272 +~ 1.46;
#X obj 61 261 +~;
#X obj 117 39 inlet;
#X obj 191 39 inlet;
#X obj 268 39 inlet;
#X obj 342 39 inlet;
#X obj 35 39 inlet~;
#X obj 33 559 outlet~;
#X obj 243 560 delwrite~ mod-del 1000;
#X obj 61 304 vd~ mod-del;
#X obj 243 526 lop~ 3000;
#X obj 693 419 line~;
#X obj 693 385 pack 0 100;
#X obj 693 351 * 0.01;
#X obj 462 364 +~;
#X obj 672 455 *~;
#X obj 490 228 *~;
#X obj 462 398 hip~ 5;
#X obj 672 489 clip~ -1 1;
#X obj 490 262 +~;
#X obj 462 560 outlet~;
#X obj 672 527 lop~ 3000;
#X obj 490 163 *~ -1;
#X obj 490 194 +~ 2;
#X obj 672 561 delwrite~ mod-del2 1000;
#X obj 490 305 vd~ mod-del2;
#X connect 0 0 7 1;
#X connect 0 0 35 1;
#X connect 1 0 0 0;
#X connect 2 0 6 1;
#X connect 3 0 2 0;
#X connect 4 0 3 0;
#X connect 5 0 9 0;
#X connect 6 0 15 0;
#X connect 7 0 20 0;
#X connect 8 0 11 0;
#X connect 9 0 6 0;
#X connect 9 0 26 0;
#X connect 10 0 7 0;
#X connect 11 0 10 0;
#X connect 11 0 41 0;
#X connect 15 0 29 0;
#X connect 16 0 19 0;
#X connect 17 0 16 0;
#X connect 19 0 20 1;
#X connect 19 0 38 1;
#X connect 20 0 28 0;
#X connect 21 0 8 0;
#X connect 22 0 1 0;
#X connect 23 0 17 0;
#X connect 24 0 4 0;
#X connect 24 0 32 0;
#X connect 25 0 5 0;
#X connect 25 0 33 0;
#X connect 28 0 5 1;
#X connect 29 0 27 0;
#X connect 30 0 34 1;
#X connect 31 0 30 0;
#X connect 32 0 31 0;
#X connect 33 0 36 0;
#X connect 34 0 37 0;
#X connect 35 0 38 0;
#X connect 36 0 34 0;
#X connect 36 0 39 0;
#X connect 37 0 40 0;
#X connect 38 0 44 0;
#X connect 40 0 43 0;
#X connect 41 0 42 0;
#X connect 42 0 35 0;
#X connect 44 0 33 1;
#X restore 37 361 pd st-mod-delay;
#X obj 306 242 f;
#X obj 339 240 + 1;
#N canvas 0 22 450 300 (subpatch) 0;
#X array position 16 float 2;
#X coords 0 100 16 0 200 100 1 0 0;
#X restore 564 50 graph;
#X obj 306 199 tgl 15 0 empty \$0-metro empty 0 -6 0 8 -262144 -1 -1
1 1;
#X obj 306 218 metro 500;
#X floatatom 306 317 5 0 0 0 - - -, f 5;
#X obj 306 288 tabread position;
#N canvas 0 22 450 300 (subpatch) 0;
#X array volume 16 float 2;
#X coords 0 100 16 0 200 100 1 0 0;
#X restore 562 292 graph;
#N canvas 0 22 450 300 (subpatch) 0;
#X array speed 16 float 2;
#X coords 0 200 16 25 200 100 1 0 0;
#X restore 562 171 graph;
#X obj 339 264 mod 16;
#X obj 345 315 tabread speed;
#X obj 403 341 tabread volume;
#X floatatom 345 337 5 0 0 0 - - -, f 5;
#X floatatom 403 363 5 0 0 0 - - -, f 5;
#X obj 306 336 s pos;
#X obj 345 356 s speed;
#X obj 403 382 s vol;
#X obj 82 221 r vol;
#X obj 82 244 dbtorms;
#X obj 37 268 *~;
#X obj 37 166 line~;
#X obj 37 0 r pos;
#X obj 80 0 r length;
#X obj 37 25 / 100;
#X obj 37 48 *;
#X obj 37 70 t f f;
#X obj 64 92 + 22050;
#X obj 37 116 pack;
#X msg 37 141 \$1 \, \$2 500;
#X connect 0 0 31 0;
#X connect 2 0 0 0;
#X connect 6 0 11 1;
#X connect 7 0 11 2;
#X connect 8 0 11 3;
#X connect 9 0 11 4;
#X connect 11 0 1 0;
#X connect 11 1 1 1;
#X connect 12 0 13 0;
#X connect 12 0 18 0;
#X connect 12 0 22 0;
#X connect 12 0 23 0;
#X connect 13 0 21 0;
#X connect 15 0 16 0;
#X connect 16 0 12 0;
#X connect 17 0 26 0;
#X connect 18 0 17 0;
#X connect 21 0 12 1;
#X connect 22 0 24 0;
#X connect 23 0 25 0;
#X connect 24 0 27 0;
#X connect 25 0 28 0;
#X connect 29 0 30 0;
#X connect 30 0 31 1;
#X connect 31 0 11 0;
#X connect 32 0 2 0;
#X connect 33 0 35 0;
#X connect 34 0 36 1;
#X connect 35 0 36 0;
#X connect 36 0 37 0;
#X connect 37 0 39 0;
#X connect 37 1 38 0;
#X connect 38 0 39 1;
#X connect 39 0 40 0;
#X connect 40 0 32 0;
#X coords 0 527 1 526 85 60 0;
