#N canvas 221 361 769 780 10;
#X declare -path patch_editor_abs;
#X obj 23 708 declare -path patch_editor_abs;
#X obj 74 479 maestro4 1;
#X obj 26 46 bwl-osc 1;
#X obj 26 167 vca 1;
#X obj 26 241 formant 1;
#X obj 212 332 stereo-delay 1;
#X obj 244 26 basic-lfo 1;
#X obj 244 232 random-voltages 1;
#X obj 244 139 random-gates 1;
#X connect 2 0 3 0;
#X connect 3 0 4 0;
#X connect 4 0 5 0;
#X connect 5 0 1 4;
#X connect 5 1 1 6;
#X connect 6 0 3 1;
#X connect 7 0 4 1;
#X connect 8 0 7 0;
