#N canvas 511 373 514 724 10;
#X declare -path drone2_abs;
#X obj 29 499 maestro4 1;
#X obj 26 67 bwl-osc 1;
#X obj 26 187 vca 1;
#X obj 26 261 formant 1;
#X obj 167 352 stereo-delay 1;
#X obj 244 26 basic-lfo 1;
#X obj 244 232 random-voltages 1;
#X obj 244 139 random-gates 1;
#N canvas 770 936 450 300 MobMuPlatCtl 0;
#X obj 78 60 r fromGUI;
#X obj 78 81 list trim;
#X obj 78 153 s pitch;
#X obj 140 130 * 127;
#X obj 140 153 s gateProb;
#X obj 213 130 * 127;
#X obj 284 130 * 127;
#X obj 213 153 s lfoDepth;
#X obj 284 153 s delFeedb;
#X obj 78 104 route /pitch /gateProb /lfoDepth /delFeedb;
#X obj 78 130 + 36;
#X connect 0 0 1 0;
#X connect 1 0 9 0;
#X connect 3 0 4 0;
#X connect 5 0 7 0;
#X connect 6 0 8 0;
#X connect 9 0 10 0;
#X connect 9 1 3 0;
#X connect 9 2 5 0;
#X connect 9 3 6 0;
#X connect 10 0 2 0;
#X restore 321 559 pd MobMuPlatCtl;
#X text 319 505 MobMuPlat Control: PITCH LFO1 Depth RANDOM-GATES prob.
STEREO-DELAY feedback, f 22;
#X obj 296 665 declare -path drone2_abs;
#X connect 1 0 2 0;
#X connect 2 0 3 0;
#X connect 3 0 4 0;
#X connect 4 0 0 4;
#X connect 4 1 0 6;
#X connect 5 1 2 1;
#X connect 6 0 3 1;
#X connect 7 0 6 0;
