#N canvas 0 23 783 603 10;
#X obj 108 120 hsl 128 15 0 127 0 1 \$0-random-gates-intensity-s \$0-random-gates-intensity-r
INTENSITY 133 7 0 10 -262144 -1 -1 7000 1;
#X obj 108 134 hsl 128 15 0 127 0 1 \$0-random-gates-prob-s \$0-random-gates-prob-r
PROB. 133 7 0 10 -262144 -1 -1 0 1;
#X obj 459 324 + 50;
#X obj 459 302 random 950;
#X obj 440 126 metro 500;
#X obj 440 79 loadbang;
#X obj 459 346 t f;
#X obj 440 516 vline~;
#X obj 440 551 outlet~;
#X obj 105 154 bng 15 50 50 0 empty empty empty 17 7 0 10 -262144 -226533
-1;
#X obj 512 227 random 950;
#X obj 512 249 + 50;
#X obj 440 148 t b b b;
#X obj 110 254 / 127;
#X obj 110 276 * 950;
#X obj 110 298 + 50;
#X obj 110 320 t f f;
#X msg 110 206 127 \$1;
#X obj 110 228 -;
#X obj 440 408 random 127;
#X obj 440 430 moses;
#X obj 440 386 t b;
#X obj 440 459 t b b;
#X obj 154 111 cnv 5 5 5 empty empty GATES 0 0 0 12 -262144 -66577
0;
#X obj 105 176 cnv 5 5 5 empty empty OUT 0 0 0 8 -262144 -226533 0
;
#X obj 106 111 cnv 5 5 5 empty empty RANDOM 0 0 0 12 -262144 -66577
0;
#X obj 195 111 cnv 5 5 5 empty \$0-instance-num 1 0 0 0 12 -262144
-66577 0;
#X msg 440 494 1 0 \, 0 1 1;
#X msg 440 101 1;
#X obj 118 37 r gateProb;
#X obj 118 58 s \$0-random-gates-prob-r;
#X connect 0 0 17 0;
#X connect 1 0 20 1;
#X connect 2 0 6 0;
#X connect 3 0 2 0;
#X connect 4 0 12 0;
#X connect 5 0 28 0;
#X connect 6 0 4 1;
#X connect 7 0 8 0;
#X connect 10 0 11 0;
#X connect 11 0 3 1;
#X connect 12 0 21 0;
#X connect 12 1 3 0;
#X connect 12 2 10 0;
#X connect 13 0 14 0;
#X connect 14 0 15 0;
#X connect 15 0 16 0;
#X connect 16 0 10 1;
#X connect 17 0 18 0;
#X connect 18 0 13 0;
#X connect 19 0 20 0;
#X connect 20 0 22 0;
#X connect 21 0 19 0;
#X connect 22 0 27 0;
#X connect 22 1 9 0;
#X connect 27 0 7 0;
#X connect 28 0 4 0;
#X connect 29 0 30 0;
#X coords 0 -1 1 1 200 85 2 100 100;
