#N canvas 0 23 917 526 10;
#X obj 305 281 *~;
#X obj 305 343 outlet~;
#X obj 320 211 pack 0 50;
#X obj 320 233 line~;
#X obj 320 256 +~;
#X text 301 39 SIGNAL IN;
#X text 437 94 CV IN, f 7;
#X obj 110 144 hsl 128 15 0 127 0 1 \$0-vca-cv-att-s \$0-vca-cv-att-r
CV 133 7 0 10 -158136 -1 -1 12700 1;
#X obj 110 129 hsl 128 15 0 127 0 1 \$0-vca-vca-s \$0-vca-vca-r VCA
133 7 0 10 -262144 -1 -1 0 1;
#X obj 108 122 cnv 5 5 5 empty empty VCA 0 0 0 12 -262144 -66577 0
;
#X obj 252 108 cnv 5 5 5 empty empty CV 0 0 0 8 -262144 -158136 0;
#X obj 103 108 cnv 5 5 5 empty empty IN 0 0 0 8 -262144 -66577 0;
#X obj 138 122 cnv 5 5 5 empty \$0-instance-num 1 0 0 0 12 -262144
-66577 0;
#X obj 443 116 inlet~;
#X obj 494 175 / 127;
#X obj 494 197 pack 0 50;
#X obj 494 219 line~;
#X obj 443 239 *~;
#X obj 320 189 / 127;
#X obj 305 58 inlet~;
#X connect 0 0 1 0;
#X connect 2 0 3 0;
#X connect 3 0 4 0;
#X connect 4 0 0 1;
#X connect 7 0 14 0;
#X connect 8 0 18 0;
#X connect 13 0 17 0;
#X connect 14 0 15 0;
#X connect 15 0 16 0;
#X connect 16 0 17 1;
#X connect 17 0 4 1;
#X connect 18 0 2 0;
#X connect 19 0 0 0;
#X coords 0 -1 1 1 165 65 2 100 100;
