#N canvas 826 23 908 646 10;
#X obj 573 91 inlet~;
#X obj 349 88 inlet~;
#X obj 455 164 sig~;
#X obj 455 140 / 127;
#X obj 455 190 +~;
#X obj 573 173 *~;
#X obj 625 134 pack 0 10;
#X obj 625 156 line~;
#X obj 488 225 / 127;
#X text 345 68 SIGNAL IN;
#X text 569 71 CV IN;
#X obj 625 112 / 127;
#X text 499 117 LEVEL;
#X text 524 223 RING/DAMP;
#X obj 109 134 hsl 128 15 0 127 0 1 \$0-lpg-ring/damp-s \$0-lpg-ring/damp-r
RING/DAMP 133 7 0 10 -262144 -1 -1 3800 1;
#X obj 109 119 hsl 128 15 0 127 0 1 \$0-lpg-level-s \$0-lpg-level-r
LEVEL 133 7 0 10 -262144 -1 -1 0 1;
#X obj 109 149 hsl 128 15 0 127 0 1 \$0-lpg-cv-att-s \$0-lpg-cv-att-r
CV 133 7 0 10 -158136 -1 -1 9000 1;
#X obj 455 118 - 1.27;
#X obj 152 109 cnv 5 5 5 empty empty LOWPASS 0 0 0 12 -262144 -66577
0;
#X obj 286 109 cnv 5 5 5 empty empty CV 0 0 0 8 -262144 -158136 0;
#X obj 105 109 cnv 5 5 5 empty empty IN 0 0 0 8 -262144 -66577 0;
#X obj 204 109 cnv 5 5 5 empty empty GATE 0 0 0 12 -262144 -66577 0
;
#X obj 349 391 vcf~ 1;
#X obj 239 109 cnv 5 5 5 empty \$0-instance-num 1 0 0 0 12 -262144
-66577 0;
#X obj 469 439 *~;
#X obj 382 502 outlet~;
#X obj 382 421 vcf~ 1;
#X obj 382 455 *~ 2;
#X obj 455 296 lop~ 3;
#X obj 488 269 + 2;
#X obj 488 247 * 8;
#X obj 382 480 *~ 1;
#X obj 455 323 *~ 22000;
#N canvas 0 22 656 564 antipop 0;
#X obj 320 114 env~;
#X obj 320 160 change;
#X obj 320 136 > 0;
#X obj 320 269 line~;
#X obj 320 182 t f f;
#X obj 320 227 pack 0 50;
#X obj 320 82 inlet~;
#X obj 320 291 outlet~;
#X connect 0 0 2 0;
#X connect 1 0 4 0;
#X connect 2 0 1 0;
#X connect 3 0 7 0;
#X connect 4 0 5 0;
#X connect 5 0 3 0;
#X connect 6 0 0 0;
#X restore 699 107 pd antipop;
#X obj 573 127 *~;
#X obj 141 29 r gate-lev;
#X obj 141 50 s \$0-lpg-level-r;
#X connect 0 0 33 0;
#X connect 0 0 34 0;
#X connect 1 0 22 0;
#X connect 1 0 24 0;
#X connect 2 0 4 0;
#X connect 3 0 2 0;
#X connect 4 0 28 0;
#X connect 5 0 4 1;
#X connect 5 0 24 1;
#X connect 6 0 7 0;
#X connect 7 0 5 1;
#X connect 8 0 30 0;
#X connect 11 0 6 0;
#X connect 14 0 8 0;
#X connect 15 0 3 0;
#X connect 16 0 11 0;
#X connect 17 0 3 0;
#X connect 22 1 26 0;
#X connect 24 0 31 0;
#X connect 26 1 27 0;
#X connect 27 0 31 0;
#X connect 28 0 32 0;
#X connect 28 0 24 1;
#X connect 29 0 28 1;
#X connect 30 0 29 0;
#X connect 31 0 25 0;
#X connect 32 0 22 1;
#X connect 32 0 26 1;
#X connect 33 0 34 1;
#X connect 34 0 5 0;
#X connect 35 0 36 0;
#X coords 0 -1 1 1 200 70 2 100 100;
