#N canvas 1721 422 276 278 12;
#X obj 162 101 bng 25 250 50 0 empty empty empty 17 7 0 10 -204786
-1 -1;
#X obj 69 50 tgl 15 0 empty empty empty 17 7 0 10 -262144 -1 -1 1 1
;
#X obj 69 76 metro 1000;
#X obj 69 107 bng 15 250 50 0 empty empty empty 17 7 0 10 -262144 -1
-1;
#X obj 69 194 bng 25 250 50 0 empty empty empty 17 7 0 10 -204786 -1
-1;
#N canvas 1923 118 216 215 bang-sync 0;
#X obj 64 33 inlet;
#X obj 64 152 outlet;
#X obj 119 33 inlet;
#X msg 119 91 1;
#X obj 64 123 sel 0;
#X obj 64 94 f 0;
#X msg 119 62 0;
#X connect 0 0 5 0;
#X connect 2 0 6 0;
#X connect 3 0 5 1;
#X connect 4 0 3 0;
#X connect 4 0 1 0;
#X connect 5 0 4 0;
#X connect 6 0 5 1;
#X restore 69 141 pd bang-sync;
#X connect 0 0 5 1;
#X connect 1 0 2 0;
#X connect 2 0 3 0;
#X connect 3 0 5 0;
#X connect 5 0 4 0;
