#N canvas 1074 259 761 293 12;
#N canvas 1502 698 588 390 tablet-ctl 0;
#X obj 55 23 receive fromGUI;
#X obj 55 60 list trim;
#X obj 330 126 send toGUI;
#X obj 330 60 r num;
#X obj 55 122 sel 1;
#X obj 55 147 s down;
#X obj 136 122 sel 1;
#X obj 136 147 s up;
#X msg 330 94 list /num \$1;
#X obj 57 222 loadbang;
#X obj 57 303 send toGUI;
#X obj 55 97 route /button1 /button2 /myMenu;
#X obj 218 124 unpack 0 0;
#X obj 218 175 s setn;
#X obj 218 149 + 1;
#X msg 57 247 list /myMenu 1 2 3 4 5 6 7 8 9 10 11 12 13 14 15 16 17
18 19 20 21 22 23 24 25 26 27 28 29 30 31 32 33 34 35 36 37 38 39 40
41 42 43 44 45 46 47 48 49 50 51 52 53;
#X connect 0 0 1 0;
#X connect 1 0 11 0;
#X connect 3 0 8 0;
#X connect 4 0 5 0;
#X connect 6 0 7 0;
#X connect 8 0 2 0;
#X connect 9 0 15 0;
#X connect 11 0 4 0;
#X connect 11 1 6 0;
#X connect 11 2 12 0;
#X connect 12 0 14 0;
#X connect 14 0 13 0;
#X connect 15 0 10 0;
#X restore 24 47 pd tablet-ctl;
#X obj 201 147 f;
#X floatatom 201 215 5 0 0 0 - - -, f 5;
#X obj 254 180 + 1;
#X obj 288 180 - 1;
#X obj 254 114 pack 0 0;
#X obj 254 147 route 1 0;
#X msg 260 37 1;
#X msg 201 37 0;
#X obj 201 70 t b f;
#X obj 201 240 s num;
#X obj 201 9 r down;
#X obj 260 9 r up;
#X obj 190 112 r setn;
#X connect 1 0 2 0;
#X connect 1 0 5 1;
#X connect 2 0 10 0;
#X connect 3 0 1 1;
#X connect 4 0 1 1;
#X connect 5 0 6 0;
#X connect 6 0 3 0;
#X connect 6 1 4 0;
#X connect 7 0 9 0;
#X connect 8 0 9 0;
#X connect 9 0 1 0;
#X connect 9 1 5 0;
#X connect 11 0 8 0;
#X connect 12 0 7 0;
#X connect 13 0 1 0;
