#N canvas 930 264 472 375 10;
#X obj 199 59 tgl 15 0 empty on empty 17 7 0 10 -262144 -1 -1 1 1;
#N canvas 1502 698 505 214 tablet-ctl 0;
#X obj 55 23 receive fromGUI;
#X obj 55 60 list trim;
#X obj 55 97 route /myToggle /mySlider;
#X obj 330 126 send toGUI;
#X obj 330 68 list prepend set;
#X msg 330 94 list /blink \$1 \$2;
#X obj 330 11 r blink;
#X obj 55 119 s on;
#X obj 128 148 s del;
#X obj 128 126 * 150;
#X connect 0 0 1 0;
#X connect 1 0 2 0;
#X connect 2 0 7 0;
#X connect 2 1 9 0;
#X connect 4 0 5 0;
#X connect 5 0 3 0;
#X connect 6 0 4 0;
#X connect 9 0 8 0;
#X restore 74 69 pd tablet-ctl;
#X obj 199 79 metro 250;
#X obj 199 131 f;
#X obj 199 186 s blink;
#X obj 234 131 + 1;
#X obj 199 159 mod 2;
#X obj 281 68 r del;
#X obj 199 105 delay 120;
#X obj 291 184 sel 1;
#X obj 291 228 line~;
#X obj 220 229 osc~ 440;
#X obj 220 251 *~;
#X obj 220 273 dac~;
#X msg 291 206 0.5 \, 0 50;
#X connect 0 0 2 0;
#X connect 2 0 8 0;
#X connect 3 0 5 0;
#X connect 3 0 6 0;
#X connect 5 0 3 1;
#X connect 6 0 4 0;
#X connect 6 0 9 0;
#X connect 7 0 8 1;
#X connect 8 0 3 0;
#X connect 9 0 14 0;
#X connect 10 0 12 1;
#X connect 11 0 12 0;
#X connect 12 0 13 0;
#X connect 12 0 13 1;
#X connect 14 0 10 0;
