#N canvas 854 700 695 388 12;
#X obj 106 147 osc~;
#X floatatom 106 86 5 0 0 0 - - -, f 5;
#X obj 106 115 mtof;
#X obj 106 339 dac~;
#X obj 106 179 samphold~;
#X obj 247 157 phasor~;
#X floatatom 247 96 5 0 0 0 - - -, f 5;
#X obj 247 125 mtof;
#N canvas 0 22 450 278 (subpatch) 0;
#X array array1 2200 float 0;
#X coords 0 1 2199 -1 300 140 1 0 0;
#X restore 320 126 graph;
#X obj 320 317 tabwrite~ array1;
#X obj 463 20 tgl 15 0 empty empty empty 17 7 0 10 -262144 -1 -1 0
1;
#X obj 463 79 s go;
#X obj 106 10 r go;
#X obj 106 35 random 30;
#X obj 106 60 + 50;
#X obj 194 194 r go;
#X obj 194 278 line~;
#X obj 106 254 *~;
#X obj 463 47 metro 200;
#X obj 246 40 + 50;
#X obj 246 15 random 50;
#X obj 28 130 osc~ 0.1;
#X floatatom 136 206 5 0 0 0 - - -, f 5;
#X obj 246 68 spigot;
#X obj 304 42 tgl 15 0 empty empty empty 17 7 0 10 -262144 -1 -1 1
1;
#X obj 171 76 spigot;
#X obj 208 49 tgl 15 0 empty empty empty 17 7 0 10 -262144 -1 -1 0
1;
#X floatatom 180 102 7 0 0 0 - - -, f 7;
#X obj 30 275 rev1~;
#X obj 28 217 loadbang;
#X obj 30 302 *~ 0.3;
#X msg 28 245 15;
#X obj 442 33 bng 15 250 50 0 empty empty empty 17 7 0 10 -262144 -1
-1;
#X obj 28 180 *~ 1000;
#X obj 193 303 *~;
#X obj 193 331 *~;
#X msg 194 242 0.7 5;
#X obj 247 225 del 5;
#X obj 28 155 +~ 1.5;
#X floatatom 260 193 5 0 0 0 - - -, f 5;
#X obj 107 228 vcf~;
#X obj 320 283 r go;
#X msg 247 252 0 700;
#N canvas 949 225 241 205 mfm 0;
#X obj 56 26 inlet;
#X obj 56 51 mtof;
#X obj 56 76 * 1;
#X obj 56 101 ftom;
#X obj 56 126 outlet;
#X obj 109 26 inlet;
#X connect 0 0 1 0;
#X connect 1 0 2 0;
#X connect 2 0 3 0;
#X connect 3 0 4 0;
#X connect 5 0 2 1;
#X restore 171 125 pd mfm;
#X connect 0 0 4 0;
#X connect 1 0 2 0;
#X connect 2 0 0 0;
#X connect 4 0 40 0;
#X connect 4 0 9 0;
#X connect 5 0 4 1;
#X connect 6 0 7 0;
#X connect 7 0 5 0;
#X connect 10 0 18 0;
#X connect 12 0 13 0;
#X connect 12 0 20 0;
#X connect 13 0 14 0;
#X connect 14 0 1 0;
#X connect 14 0 25 0;
#X connect 15 0 36 0;
#X connect 15 0 37 0;
#X connect 16 0 34 0;
#X connect 16 0 34 1;
#X connect 17 0 28 0;
#X connect 17 0 3 0;
#X connect 17 0 3 1;
#X connect 18 0 11 0;
#X connect 19 0 23 0;
#X connect 20 0 19 0;
#X connect 21 0 38 0;
#X connect 22 0 40 2;
#X connect 23 0 6 0;
#X connect 24 0 23 1;
#X connect 25 0 43 0;
#X connect 26 0 25 1;
#X connect 27 0 43 1;
#X connect 28 0 30 0;
#X connect 29 0 31 0;
#X connect 30 0 3 0;
#X connect 30 0 3 1;
#X connect 31 0 28 1;
#X connect 32 0 11 0;
#X connect 33 0 40 1;
#X connect 34 0 35 0;
#X connect 34 0 35 1;
#X connect 35 0 17 1;
#X connect 36 0 16 0;
#X connect 37 0 42 0;
#X connect 38 0 33 0;
#X connect 39 0 37 1;
#X connect 40 1 17 0;
#X connect 41 0 9 0;
#X connect 42 0 16 0;
#X connect 43 0 6 0;
