#N canvas 721 140 527 583 12;
#X obj 70 121 env~;
#X obj 70 19 adc~;
#X obj 321 102 osc~;
#X obj 300 240 osc~;
#X obj 279 355 osc~;
#N canvas 2012 359 259 278 att-detector 0;
#X obj 59 50 t b f;
#X floatatom 59 73 0 0 0 0 - - -;
#X obj 66 128 pack;
#X obj 66 151 route 0 1;
#X obj 66 174 > 55;
#X obj 116 174 < 45;
#X obj 66 197 sel 1;
#X obj 116 197 sel 1;
#X msg 30 208 1;
#X msg 30 186 0;
#X obj 59 105 != 0;
#X obj 59 19 inlet;
#X obj 66 231 outlet;
#X connect 0 0 1 0;
#X connect 0 1 2 1;
#X connect 1 0 10 0;
#X connect 2 0 3 0;
#X connect 3 0 4 0;
#X connect 3 1 5 0;
#X connect 4 0 6 0;
#X connect 5 0 7 0;
#X connect 6 0 8 0;
#X connect 6 0 12 0;
#X connect 7 0 9 0;
#X connect 8 0 1 0;
#X connect 9 0 1 0;
#X connect 10 0 2 0;
#X connect 11 0 0 0;
#X restore 70 267 pd att-detector;
#X obj 279 529 dac~;
#X obj 279 407 *~;
#X obj 300 379 r~ amp;
#X obj 279 300 +~;
#X obj 69 371 array define loop 20;
#X obj 325 300 tabwrite~ loop;
#X obj 321 185 tabread4~ loop;
#X obj 300 215 +~;
#X obj 321 77 * 0.188;
#X obj 300 155 +~;
#X obj 387 102 line~;
#X obj 321 127 *~;
#X obj 70 292 s att;
#X obj 387 48 r att;
#N canvas 139 948 690 407 tablet-ctl 0;
#X obj 55 23 receive fromGUI;
#X obj 55 60 list trim;
#X obj 55 97 route /but1 /but2 /but3 /but4 /but5 /but6 /but7 /but8
/but9 /but10 /but11 /but12;
#X msg 36 194 \; note 55;
#X msg 113 194 \; note 65;
#X msg 65 241 \; note 60;
#X msg 142 241 \; note 70;
#X msg 417 241 \; note 88;
#X msg 494 241 \; note 94;
#X obj 36 148 sel 1;
#X obj 65 172 sel 1;
#X obj 112 148 sel 1;
#X obj 142 172 sel 1;
#X obj 192 148 sel 1;
#X obj 221 172 sel 1;
#X obj 289 148 sel 1;
#X obj 318 172 sel 1;
#X obj 388 148 sel 1;
#X obj 417 172 sel 1;
#X obj 486 148 sel 1;
#X obj 494 172 sel 1;
#X obj 55 296 route /slider;
#X obj 55 346 s sens;
#X obj 55 321 / 200;
#X msg 192 194 \; note 73.86;
#X msg 221 241 \; note 77.02;
#X msg 289 194 \; note 79.69;
#X msg 318 241 \; note 84.04;
#X msg 388 194 \; note 85.86;
#X msg 486 194 \; note 89.02;
#X connect 0 0 1 0;
#X connect 1 0 2 0;
#X connect 1 0 21 0;
#X connect 2 0 9 0;
#X connect 2 1 10 0;
#X connect 2 2 11 0;
#X connect 2 3 12 0;
#X connect 2 4 13 0;
#X connect 2 5 14 0;
#X connect 2 6 15 0;
#X connect 2 7 16 0;
#X connect 2 8 17 0;
#X connect 2 9 18 0;
#X connect 2 10 19 0;
#X connect 2 11 20 0;
#X connect 9 0 3 0;
#X connect 10 0 5 0;
#X connect 11 0 4 0;
#X connect 12 0 6 0;
#X connect 13 0 24 0;
#X connect 14 0 25 0;
#X connect 15 0 26 0;
#X connect 16 0 27 0;
#X connect 17 0 28 0;
#X connect 18 0 7 0;
#X connect 19 0 29 0;
#X connect 20 0 8 0;
#X connect 21 0 23 0;
#X connect 23 0 22 0;
#X restore 67 330 pd tablet-ctl;
#X obj 279 24 r note;
#X obj 279 49 mtof;
#X obj 300 265 *~;
#X obj 93 150 / 150;
#X obj 70 48 *~ 0.01;
#X obj 365 358 osc~;
#X obj 365 410 *~;
#X obj 364 335 *~ 0.997;
#X obj 123 19 r sens;
#X obj 93 233 s~ amp;
#X obj 386 382 r~ amp;
#X obj 354 215 r~ amp;
#X msg 93 175 \$1 40;
#X obj 93 200 line~;
#X obj 70 73 hip~ 1200;
#X msg 388 75 100 \, 0 50;
#X obj 279 468 *~ 5;
#X obj 279 498 clip~ -0.9 0.9;
#X obj 362 442 *~ 5;
#X obj 363 470 clip~ -0.9 0.9;
#X obj 354 242 *~ 2200;
#X connect 0 0 5 0;
#X connect 0 0 24 0;
#X connect 1 0 25 0;
#X connect 2 0 17 0;
#X connect 3 0 23 0;
#X connect 4 0 7 0;
#X connect 5 0 18 0;
#X connect 7 0 37 0;
#X connect 8 0 7 1;
#X connect 9 0 4 0;
#X connect 9 0 28 0;
#X connect 12 0 13 1;
#X connect 13 0 3 0;
#X connect 14 0 2 0;
#X connect 15 0 13 0;
#X connect 16 0 17 1;
#X connect 17 0 15 1;
#X connect 19 0 36 0;
#X connect 21 0 22 0;
#X connect 22 0 9 0;
#X connect 22 0 15 0;
#X connect 22 0 14 0;
#X connect 22 0 36 0;
#X connect 23 0 9 1;
#X connect 23 0 11 0;
#X connect 24 0 33 0;
#X connect 25 0 35 0;
#X connect 26 0 27 0;
#X connect 27 0 39 0;
#X connect 28 0 26 0;
#X connect 29 0 25 1;
#X connect 31 0 27 1;
#X connect 32 0 41 0;
#X connect 33 0 34 0;
#X connect 34 0 30 0;
#X connect 35 0 0 0;
#X connect 36 0 16 0;
#X connect 37 0 38 0;
#X connect 38 0 6 0;
#X connect 39 0 40 0;
#X connect 40 0 6 1;
#X connect 41 0 23 1;
