#N canvas 662 48 450 300 10;
#X obj 91 214 osc~;
#X obj 93 244 *~ 0.3;
#X obj 92 277 dac~;
#X obj 141 214 tgl 15 0 empty empty empty 17 7 0 10 -262144 -1 -1 0
0.3;
#X obj 95 154 hsl 128 15 30 110 0 0 empty empty empty -2 -8 0 10 -262144
-1 -1 9276 1;
#X obj 92 174 mtof;
#X floatatom 92 196 5 0 0 0 - - -, f 5;
#X obj 89 21 r fromGUI;
#X obj 89 43 route list;
#X obj 89 65 route /note /onOff;
#X floatatom 89 87 5 0 0 0 - - -, f 5;
#X floatatom 141 92 5 0 0 0 - - -, f 5;
#X obj 141 111 * 0.3;
#X obj 38 116 expr $f1*80+30;
#X obj 220 37 r fromSystem;
#X floatatom 262 166 5 0 0 0 - - -, f 5;
#X floatatom 330 164 5 0 0 0 - - -, f 5;
#X obj 220 70 route list;
#X obj 220 92 route /tilts;
#X obj 220 114 unpack;
#X connect 0 0 1 0;
#X connect 1 0 2 0;
#X connect 1 0 2 1;
#X connect 3 0 1 1;
#X connect 4 0 5 0;
#X connect 5 0 6 0;
#X connect 6 0 0 0;
#X connect 7 0 8 0;
#X connect 8 0 9 0;
#X connect 9 0 10 0;
#X connect 9 1 11 0;
#X connect 10 0 13 0;
#X connect 11 0 12 0;
#X connect 12 0 3 0;
#X connect 13 0 4 0;
#X connect 14 0 17 0;
#X connect 17 0 18 0;
#X connect 18 0 19 0;
#X connect 19 0 15 0;
#X connect 19 1 16 0;
