#N canvas 1766 490 264 455 12;
#N canvas 405 23 834 738 resmpl-synth 0;
#X obj 546 132 r note;
#X obj 436 407 osc~;
#X obj 436 375 mtof;
#X obj 465 680 dac~;
#X obj 436 439 samphold~;
#X obj 505 407 phasor~;
#X floatatom 505 346 5 0 0 0 - - -, f 5;
#X obj 505 375 mtof;
#X obj 593 503 line~;
#X obj 465 565 *~;
#X obj 504 290 + 50;
#X obj 504 265 random 50;
#X obj 358 390 osc~ 0.1;
#X floatatom 465 517 5 0 0 0 - - -, f 5;
#X obj 504 318 spigot;
#X obj 259 325 tgl 15 0 empty rand-res rand-res -15 -7 0 10 -261682
-1 -1 0 1;
#X obj 430 264 spigot;
#X obj 259 290 tgl 15 0 empty ratio-res ratio-res -15 -7 0 10 -261682
-1 -1 1 1;
#X floatatom 439 290 7 0 0 0 - - -, f 7;
#X obj 389 609 rev1~;
#X obj 284 479 loadbang;
#X obj 358 465 *~ 1000;
#X obj 592 528 *~;
#X obj 592 556 *~;
#X obj 656 450 del 5;
#X obj 358 415 +~ 1.5;
#X obj 436 539 vcf~;
#N canvas 949 225 241 205 mfm 0;
#X obj 56 26 inlet;
#X obj 56 51 mtof;
#X obj 56 76 * 1;
#X obj 56 101 ftom;
#X obj 56 126 outlet;
#X obj 109 26 inlet;
#X connect 0 0 1 0;
#X connect 1 0 2 0;
#X connect 2 0 3 0;
#X connect 3 0 4 0;
#X connect 5 0 2 1;
#X restore 430 313 pd mfm;
#X obj 546 178 unpack 0 0 0;
#X text 521 157 midinote amp dur;
#X obj 467 205 t f b;
#X obj 692 419 - 300;
#X obj 593 419 t f b;
#X msg 298 553 1.5;
#X msg 327 512 5;
#X obj 112 145 hsl 128 15 0.01 20 1 0 empty vcfmod-speed vcfmod-speed
-2 -8 0 10 -261682 -1 -1 4100 1;
#X obj 112 180 hsl 128 15 10 2000 1 0 empty vcfmod-depth vcfmod-depth
-2 -8 0 10 -261682 -1 -1 1200 1;
#X obj 112 290 hsl 128 15 5 25 0 0 empty resmpl-ratio resmpl-ratio
-2 -8 0 10 -261682 -1 -1 0 1;
#X obj 112 325 hsl 128 15 30 120 0 0 empty resmpl-midi resmpl-midi
-2 -8 0 10 -261682 -1 -1 5600 1;
#X obj 112 215 hsl 128 15 1.1 10 1 0 empty vcfmod-lev vcfmod-lev -2
-8 0 10 -261682 -1 -1 9200 1;
#X obj 112 360 hsl 128 15 0.01 1 1 0 empty volume volume -2 -8 0 10
-261682 -1 -1 12700 1;
#X obj 369 278 * 0.25;
#X obj 369 237 int;
#X obj 436 464 *~ 0.5;
#X obj 112 250 hsl 128 15 1 50 1 0 empty vcf-rez vcf-rez -2 -8 0 10
-261682 -1 -1 5600 1;
#X obj 359 440 *~;
#X obj 389 643 *~ 0.4;
#X msg 593 467 \$1 15;
#X msg 656 477 0 100;
#X obj 606 337 line~;
#X obj 606 253 t b b;
#X obj 693 274 del 15;
#X obj 398 499 *~;
#X msg 693 301 1 50;
#X msg 606 301 1 \, 2 15;
#X msg 284 511 35;
#X connect 0 0 28 0;
#X connect 1 0 4 0;
#X connect 2 0 1 0;
#X connect 4 0 43 0;
#X connect 5 0 4 1;
#X connect 6 0 7 0;
#X connect 7 0 5 0;
#X connect 8 0 22 0;
#X connect 8 0 22 1;
#X connect 9 0 19 0;
#X connect 9 0 3 0;
#X connect 9 0 3 1;
#X connect 10 0 14 0;
#X connect 11 0 10 0;
#X connect 12 0 25 0;
#X connect 13 0 26 2;
#X connect 14 0 6 0;
#X connect 15 0 14 1;
#X connect 16 0 27 0;
#X connect 17 0 16 1;
#X connect 18 0 27 1;
#X connect 19 0 46 0;
#X connect 20 0 55 0;
#X connect 20 0 33 0;
#X connect 20 0 34 0;
#X connect 21 0 52 0;
#X connect 22 0 23 0;
#X connect 22 0 23 1;
#X connect 23 0 9 1;
#X connect 24 0 48 0;
#X connect 25 0 45 0;
#X connect 25 0 45 1;
#X connect 26 1 9 0;
#X connect 27 0 6 0;
#X connect 28 0 30 0;
#X connect 28 1 32 0;
#X connect 28 1 50 0;
#X connect 28 2 24 1;
#X connect 30 0 2 0;
#X connect 30 0 16 0;
#X connect 30 1 11 0;
#X connect 31 0 24 1;
#X connect 32 0 47 0;
#X connect 32 1 24 0;
#X connect 33 0 18 0;
#X connect 34 0 13 0;
#X connect 35 0 12 0;
#X connect 36 0 21 1;
#X connect 37 0 42 0;
#X connect 38 0 7 0;
#X connect 39 0 25 1;
#X connect 40 0 43 1;
#X connect 41 0 18 0;
#X connect 42 0 41 0;
#X connect 43 0 26 0;
#X connect 44 0 13 0;
#X connect 45 0 21 0;
#X connect 46 0 3 0;
#X connect 46 0 3 1;
#X connect 47 0 8 0;
#X connect 48 0 8 0;
#X connect 49 0 52 1;
#X connect 50 0 54 0;
#X connect 50 1 51 0;
#X connect 51 0 53 0;
#X connect 52 0 26 1;
#X connect 53 0 49 0;
#X connect 54 0 49 0;
#X connect 55 0 19 1;
#X coords 0 -1 1 1 200 290 2 100 100;
#X restore 26 121 pd resmpl-synth;
#N canvas 75 101 677 469 in-c-player 0;
#X obj 109 136 tgl 25 0 empty empty PLAY 0 -7 0 10 -261234 -1 -1 0
1;
#X obj 84 241 bng 15 250 50 0 empty empty empty 17 7 0 10 -262144 -1
-1;
#X obj 110 265 f;
#X obj 145 265 + 1;
#X obj 110 294 mod 4;
#X floatatom 110 323 5 0 0 0 - - -, f 5;
#X obj 110 349 sel 0;
#X obj 110 378 bng 15 250 50 0 empty empty empty 17 7 0 10 -262144
-1 -1;
#X obj 286 258 qlist;
#X msg 286 230 bang;
#X obj 190 265 r mod;
#X obj 110 217 metro 250;
#X floatatom 139 167 5 0 0 0 - - -, f 5;
#X msg 333 185 read fragments/frag\$1.txt;
#X obj 260 161 f;
#X obj 295 161 + 1;
#X obj 144 136 bng 25 250 50 0 empty empty NEXT 0 -7 0 10 -204786 -1
-1;
#X msg 251 122 1;
#X obj 179 136 bng 25 250 50 0 empty empty go_to_1 -5 -7 0 10 -204786
-1 -1;
#X obj 305 78 loadbang;
#X obj 110 241 delay 150;
#X connect 0 0 11 0;
#X connect 1 0 2 0;
#X connect 2 0 3 0;
#X connect 2 0 4 0;
#X connect 3 0 2 1;
#X connect 4 0 5 0;
#X connect 5 0 6 0;
#X connect 6 0 7 0;
#X connect 7 0 9 0;
#X connect 9 0 8 0;
#X connect 10 0 4 1;
#X connect 11 0 20 0;
#X connect 12 0 13 0;
#X connect 13 0 8 0;
#X connect 14 0 15 0;
#X connect 14 0 12 0;
#X connect 15 0 14 1;
#X connect 16 0 14 0;
#X connect 17 0 14 0;
#X connect 18 0 17 0;
#X connect 19 0 17 0;
#X connect 20 0 2 0;
#X coords 0 -1 1 1 120 90 1 100 100;
#X restore 65 16 pd in-c-player;
