#N canvas 466 445 676 472 12;
#X obj 65 51 tgl 15 0 empty empty empty 17 7 0 10 -262144 -1 -1 1 1
;
#X obj 65 104 bng 15 250 50 0 empty empty empty 17 7 0 10 -262144 -1
-1;
#X obj 65 128 f;
#X obj 100 128 + 1;
#X obj 65 157 mod 4;
#X floatatom 65 186 5 0 0 0 - - -, f 5;
#X obj 65 212 sel 0;
#X obj 65 241 bng 15 250 50 0 empty empty empty 17 7 0 10 -262144 -1
-1;
#X obj 241 121 qlist;
#X msg 241 93 bang;
#X obj 145 128 r mod;
#X obj 65 75 metro 250;
#X obj 157 216 r note;
#X obj 157 307 osc~, f 5;
#X obj 157 278 mtof;
#X obj 157 363 *~;
#X obj 203 334 line~;
#X obj 157 433 dac~;
#X obj 157 245 unpack 0 0 0;
#X obj 203 279 pack;
#X msg 203 305 \$1 \, 0 \$2;
#X floatatom 288 23 5 0 0 0 - - -, f 5;
#X msg 288 48 read fragments/frag\$1.txt;
#X obj 215 24 f;
#X obj 250 24 + 1;
#X obj 179 15 bng 15 250 50 0 empty empty empty 17 7 0 10 -262144 -1
-1;
#X msg 134 12 1;
#X obj 157 399 clip~ -0.3 0.3;
#X connect 0 0 11 0;
#X connect 1 0 2 0;
#X connect 2 0 3 0;
#X connect 2 0 4 0;
#X connect 3 0 2 1;
#X connect 4 0 5 0;
#X connect 5 0 6 0;
#X connect 6 0 7 0;
#X connect 7 0 9 0;
#X connect 9 0 8 0;
#X connect 10 0 4 1;
#X connect 11 0 1 0;
#X connect 12 0 18 0;
#X connect 13 0 15 0;
#X connect 14 0 13 0;
#X connect 15 0 27 0;
#X connect 16 0 15 1;
#X connect 18 0 14 0;
#X connect 18 1 19 0;
#X connect 18 2 19 1;
#X connect 19 0 20 0;
#X connect 20 0 16 0;
#X connect 21 0 22 0;
#X connect 22 0 8 0;
#X connect 23 0 24 0;
#X connect 23 0 21 0;
#X connect 24 0 23 1;
#X connect 25 0 23 0;
#X connect 26 0 23 0;
#X connect 27 0 17 0;
#X connect 27 0 17 1;
