#N canvas 258 47 1133 727 10;
#X obj 344 553 vline~;
#X obj 344 418 f;
#X obj 344 508 pack f f;
#X obj 359 226 / 127;
#X obj 404 234 / 127;
#X obj 359 287 * 1999;
#X obj 404 287 * 1999;
#X obj 448 330 t f f;
#X obj 474 499 delay;
#X obj 624 396 +;
#X obj 624 371 t b f;
#X obj 247 369 bng 15 250 50 0 empty empty empty 17 7 0 10 -262144
-1 -1;
#X obj 475 580 spigot;
#X text 582 579 CYCLE ON/OFF;
#X obj 294 196 tgl 15 1 \$0-slope-cycle-s \$0-slope-cycle-r CYCLE 17
7 0 10 -262144 -1 -1 0 1;
#X obj 344 35 inlet~;
#X obj 106 115 bng 15 100 50 0 empty empty empty 17 7 0 10 -262144
-226533 -1;
#X obj 344 718 outlet~;
#X obj 508 557 t f f;
#X obj 535 579 sel 1;
#X obj 535 604 t b;
#X obj 165 125 cnv 5 5 5 empty empty GENERATOR 0 0 0 12 -262144 -66577
0;
#X obj 104 109 cnv 5 5 5 empty empty TRIG 0 0 0 8 -262144 -226533 0
;
#X obj 294 136 vradio 15 1 1 3 \$0-slope-fast-med-slow-s \$0-slope-fast-med-slow-r
empty 0 -8 0 10 -262144 -1 -1 0;
#X obj 311 176 cnv 5 5 5 empty empty SLOW 0 0 0 8 -262144 -1 0;
#X obj 258 231 cnv 5 5 5 empty empty EOR 0 0 0 8 -262144 -226533 0
;
#X obj 312 144 cnv 5 5 5 empty empty FAST 0 0 0 8 -262144 -1 0;
#X obj 312 160 cnv 5 5 5 empty empty MEDIUM 0 0 0 8 -262144 -1 0;
#X obj 585 171 sel 0 1 2;
#X msg 585 247 1999;
#X obj 585 270 t b b f f;
#X msg 602 223 4999;
#X msg 619 196 9999;
#X obj 718 26 inlet~;
#X obj 107 165 hsl 128 15 1.27 127 1 1 \$0-slope-fall-s \$0-slope-fall-r
FALL 133 7 0 10 -262144 -1 -1 11985 1;
#X obj 107 133 hsl 128 15 1.27 127 1 1 \$0-slope-rise-s \$0-slope-rise-r
RISE 133 7 0 10 -262144 -1 -1 9444 1;
#X obj 107 196 hsl 128 15 0 127 0 1 \$0-slope-depth-s \$0-slope-depth-r
DEPTH-/+ 133 7 0 10 -150893 -1 -1 6500 1;
#X obj 107 149 hsl 128 15 0 127 0 1 \$0-slope-rise-cv-att-s \$0-slope-rise-cv-att-r
RISE(CV) 133 7 0 10 -158136 -1 -1 0 1;
#X obj 107 181 hsl 128 15 0 127 0 1 \$0-slope-fall-cv-att-s \$0-slope-fall-cv-att-r
FALL(CV) 133 7 0 10 -158136 -1 -1 4200 1;
#X obj 126 125 cnv 5 5 5 empty empty SLOPE 0 0 0 12 -262144 -66577
0;
#X obj 717 185 snapshot~;
#X obj 717 238 t b f;
#X obj 717 157 *~;
#X obj 732 83 / 127;
#X obj 732 105 pack 0 50;
#X obj 732 127 line~;
#X obj 853 27 inlet~;
#X obj 852 206 snapshot~;
#X obj 852 238 t b f;
#X obj 852 178 *~;
#X obj 867 104 / 127;
#X obj 867 126 pack 0 50;
#X obj 867 148 line~;
#X text 715 6 RISE CV;
#X text 852 6 FALL CV;
#X obj 218 109 cnv 5 5 5 empty empty RISE 0 0 0 8 -262144 -158136 0
;
#X obj 325 109 cnv 5 5 5 empty empty FALL 0 0 0 8 -262144 -158136 0
;
#X obj 105 232 cnv 5 5 5 empty empty UNI-P 0 0 0 8 -262144 -1 0;
#X obj 330 232 cnv 5 5 5 empty empty EOC 0 0 0 8 -262144 -226533 0
;
#X obj 344 683 *~;
#X obj 743 501 * 2;
#X obj 743 523 - 1;
#X obj 743 569 pack 0 50;
#X obj 743 591 line~;
#X floatatom 104 211 5 0 0 0 - - -, f 5;
#X obj 743 474 / 127;
#X obj 743 545 t f f;
#X obj 558 150 t b f;
#X obj 836 512 delay;
#X obj 359 335 t f f f;
#X msg 836 534 1 0 \, 0 1 1;
#X obj 836 556 vline~;
#X obj 836 641 outlet~;
#X text 827 659 END OF RISE;
#X obj 473 521 t b b;
#X obj 927 610 vline~;
#X obj 927 683 outlet~;
#X text 982 682 END OF CYCLE;
#X obj 294 181 tgl 15 1 \$0-slope-curve-s \$0-slope-curve-r CURVE 17
7 0 10 -262144 -1 -1 0 1;
#X obj 128 563 t f f;
#X obj 192 539 == 0;
#X obj 128 622 line~;
#X obj 128 585 pack 0 10;
#X obj 192 586 line~;
#X obj 192 564 pack 0 10;
#X obj 344 639 *~;
#X obj 419 603 *~;
#X obj 344 585 *~;
#X obj 359 187 r \$0-slope-rise-s;
#X obj 732 50 r \$0-slope-rise-cv-att-s;
#X obj 404 210 r \$0-slope-fall-s;
#X obj 867 78 r \$0-slope-fall-cv-att-s;
#X obj 743 395 r \$0-slope-depth-s;
#X obj 558 123 r \$0-slope-fast-med-slow-s;
#X obj 128 494 r \$0-slope-curve-s;
#X obj 508 535 r \$0-slope-cycle-s;
#X obj 344 612 *~;
#X obj 232 125 cnv 5 5 5 empty \$0-instance-num 1 0 0 0 12 -262144
-66577 0;
#X obj 404 313 - 18;
#X msg 927 588 1 0 \, 0 1 1;
#X obj 836 578 *~ 2;
#X obj 836 600 -~ 1;
#X obj 344 384 t b b b b b;
#X obj 796 151 tgl 15 0 empty empty empty 17 7 0 10 -262144 -1 -1 0
1;
#X obj 796 77 env~;
#X obj 796 99 > 0;
#X obj 796 121 change;
#X obj 796 169 metro 5;
#X obj 174 232 cnv 5 5 5 empty empty BI-P 0 0 0 8 -262144 -1 0;
#X obj 529 679 *~ 2;
#X obj 529 701 -~ 1;
#X obj 529 723 outlet~;
#X obj 863 465 clip 1 9999;
#X obj 624 419 clip 1 9999;
#X obj 624 347 clip 1 9999;
#X obj 503 362 clip 1 9999;
#X obj 449 462 clip 1 9999;
#X obj 251 275 clip 1 9999;
#X obj 344 57 threshold~ 0.9 0 0.9 0;
#X obj 359 255 +;
#X obj 404 255 +;
#X obj 359 313 - 18;
#X msg 344 531 1 \$1 \, 0 \$2 \$1;
#X msg 408 413 0 1;
#X obj 26 436 r slope-cycle;
#X obj 26 457 s \$0-slope-cycle-r;
#X obj 26 384 r slope-curve;
#X obj 26 405 s \$0-slope-curve-r;
#X obj 28 333 r slope-speed;
#X obj 28 354 s \$0-slope-fast-med-slow-r;
#X obj 28 248 r slope-rise;
#X obj 28 269 s \$0-slope-rise-r;
#X obj 26 289 r slope-fall;
#X obj 26 310 s \$0-slope-fall-r;
#X obj 144 276 r slope-depth;
#X obj 144 297 s \$0-slope-depth-r;
#X connect 0 0 86 0;
#X connect 0 0 87 0;
#X connect 0 0 87 1;
#X connect 1 0 2 0;
#X connect 2 0 122 0;
#X connect 3 0 119 0;
#X connect 4 0 120 0;
#X connect 5 0 121 0;
#X connect 6 0 98 0;
#X connect 7 0 116 0;
#X connect 7 1 114 0;
#X connect 8 0 74 0;
#X connect 9 0 113 0;
#X connect 10 0 9 0;
#X connect 10 1 9 1;
#X connect 11 0 102 0;
#X connect 12 0 11 0;
#X connect 15 0 118 0;
#X connect 18 0 12 1;
#X connect 18 1 19 0;
#X connect 19 0 20 0;
#X connect 20 0 11 0;
#X connect 28 0 29 0;
#X connect 28 1 31 0;
#X connect 28 2 32 0;
#X connect 29 0 30 0;
#X connect 30 0 5 0;
#X connect 30 1 6 0;
#X connect 30 2 5 1;
#X connect 30 3 6 1;
#X connect 31 0 30 0;
#X connect 32 0 30 0;
#X connect 33 0 42 0;
#X connect 33 0 104 0;
#X connect 40 0 41 0;
#X connect 41 0 119 0;
#X connect 41 1 119 1;
#X connect 42 0 40 0;
#X connect 43 0 44 0;
#X connect 44 0 45 0;
#X connect 45 0 42 1;
#X connect 46 0 49 0;
#X connect 46 0 104 0;
#X connect 47 0 48 0;
#X connect 48 0 120 0;
#X connect 48 1 120 1;
#X connect 49 0 47 0;
#X connect 50 0 51 0;
#X connect 51 0 52 0;
#X connect 52 0 49 1;
#X connect 59 0 109 0;
#X connect 59 0 17 0;
#X connect 60 0 61 0;
#X connect 61 0 66 0;
#X connect 62 0 63 0;
#X connect 63 0 59 1;
#X connect 65 0 60 0;
#X connect 66 0 62 0;
#X connect 66 1 64 0;
#X connect 67 0 102 0;
#X connect 67 1 28 0;
#X connect 68 0 70 0;
#X connect 69 0 117 0;
#X connect 69 1 115 0;
#X connect 69 2 112 0;
#X connect 70 0 71 0;
#X connect 71 0 100 0;
#X connect 74 0 12 0;
#X connect 74 1 99 0;
#X connect 75 0 76 0;
#X connect 79 0 82 0;
#X connect 79 1 80 0;
#X connect 80 0 84 0;
#X connect 81 0 85 1;
#X connect 82 0 81 0;
#X connect 83 0 86 1;
#X connect 84 0 83 0;
#X connect 85 0 59 0;
#X connect 86 0 59 0;
#X connect 87 0 96 0;
#X connect 87 0 96 1;
#X connect 88 0 3 0;
#X connect 89 0 43 0;
#X connect 90 0 4 0;
#X connect 91 0 50 0;
#X connect 92 0 65 0;
#X connect 93 0 67 0;
#X connect 94 0 79 0;
#X connect 95 0 18 0;
#X connect 96 0 85 0;
#X connect 98 0 7 0;
#X connect 99 0 75 0;
#X connect 100 0 101 0;
#X connect 101 0 72 0;
#X connect 102 0 1 0;
#X connect 102 1 8 0;
#X connect 102 2 16 0;
#X connect 102 3 68 0;
#X connect 102 4 123 0;
#X connect 103 0 107 0;
#X connect 104 0 105 0;
#X connect 105 0 106 0;
#X connect 106 0 103 0;
#X connect 107 0 40 0;
#X connect 107 0 47 0;
#X connect 109 0 110 0;
#X connect 110 0 111 0;
#X connect 112 0 68 1;
#X connect 113 0 8 1;
#X connect 114 0 10 0;
#X connect 115 0 9 0;
#X connect 116 0 2 1;
#X connect 117 0 1 1;
#X connect 118 0 102 0;
#X connect 119 0 5 0;
#X connect 120 0 6 0;
#X connect 121 0 69 0;
#X connect 122 0 0 0;
#X connect 123 0 0 0;
#X connect 124 0 125 0;
#X connect 126 0 127 0;
#X connect 128 0 129 0;
#X connect 130 0 131 0;
#X connect 132 0 133 0;
#X connect 134 0 135 0;
#X coords 0 -1 1 1 250 140 2 100 100;
