#N canvas 144 183 732 432 10;
#X obj 387 191 loadbang;
#X obj 387 257 soundfiler;
#X obj 37 221 hip~ 5;
#X obj 37 154 line~;
#X obj 37 105 * 441;
#X floatatom 37 51 0 0 100 0 - - -;
#X obj 38 355 output~;
#X obj 37 189 tabread4~ my-table;
#N canvas 0 22 450 278 (subpatch) 0;
#X array my-table 1.81658e+06 float 2;
#X coords 0 1 1.81658e+06 -1 200 140 1;
#X restore 344 36 graph;
#X obj 156 46 tgl 15 0 empty empty empty 17 7 0 10 -262144 -1 -1 0
1;
#X obj 155 101 random 100;
#X msg 387 215 read -resize Dalajlama.wav my-table, f 36;
#X text 97 225 fmod depth offs feedb;
#X text 71 247 [0.01Hz] [ms] [ms] [0.01];
#N canvas 213 22 770 699 mod-delay 0;
#X obj 136 199 line~;
#X obj 136 165 pack 0 100;
#X obj 264 418 line~;
#X obj 264 384 pack 0 100;
#X obj 264 350 * 0.01;
#X obj 33 363 +~;
#X obj 243 454 *~;
#X obj 61 227 *~;
#X obj 61 125 / 100;
#X obj 33 397 hip~ 5;
#X obj 61 193 +~ 1;
#X obj 61 159 osc~ 0;
#X text 114 91 <-- cycle frequency (hundredths);
#X text 189 132 <-- cycle depth (msec);
#X text 313 317 <-- feedback (hundredths);
#X obj 243 488 clip~ -1 1;
#X obj 234 233 line~;
#X obj 234 199 pack 0 100;
#X text 287 166 <-- offset (msec);
#X obj 166 272 +~ 1.46;
#X obj 61 261 +~;
#X obj 117 39 inlet;
#X obj 191 39 inlet;
#X obj 268 39 inlet;
#X obj 342 39 inlet;
#X obj 35 39 inlet~;
#X obj 33 559 outlet~;
#X obj 243 560 delwrite~ mod-del 1000;
#X obj 61 304 vd~ mod-del;
#X obj 243 526 lop~ 3000;
#X connect 0 0 7 1;
#X connect 1 0 0 0;
#X connect 2 0 6 1;
#X connect 3 0 2 0;
#X connect 4 0 3 0;
#X connect 5 0 9 0;
#X connect 6 0 15 0;
#X connect 7 0 20 0;
#X connect 8 0 11 0;
#X connect 9 0 6 0;
#X connect 9 0 26 0;
#X connect 10 0 7 0;
#X connect 11 0 10 0;
#X connect 15 0 29 0;
#X connect 16 0 19 0;
#X connect 17 0 16 0;
#X connect 19 0 20 1;
#X connect 20 0 28 0;
#X connect 21 0 8 0;
#X connect 22 0 1 0;
#X connect 23 0 17 0;
#X connect 24 0 4 0;
#X connect 25 0 5 0;
#X connect 28 0 5 1;
#X connect 29 0 27 0;
#X restore 55 316 pd mod-delay;
#X floatatom 84 278 5 0 0 0 - del_fmod -, f 5;
#X floatatom 148 278 5 0 0 0 - del_depth -, f 5;
#X floatatom 207 279 5 0 0 0 - del_offs -, f 5;
#X floatatom 267 278 5 0 0 0 - del_feedb -, f 5;
#X obj 37 129 pack 0 700;
#X obj 155 70 metro 2800;
#X connect 0 0 11 0;
#X connect 2 0 14 0;
#X connect 3 0 7 0;
#X connect 4 0 19 0;
#X connect 5 0 4 0;
#X connect 7 0 2 0;
#X connect 9 0 20 0;
#X connect 10 0 5 0;
#X connect 11 0 1 0;
#X connect 14 0 6 0;
#X connect 14 0 6 1;
#X connect 15 0 14 1;
#X connect 16 0 14 2;
#X connect 17 0 14 3;
#X connect 18 0 14 4;
#X connect 19 0 3 0;
#X connect 20 0 10 0;
#X coords 0 432 1 431 85 60 0;
