#N canvas 801 635 732 347 10;
#X obj 180 133 loadbang;
#X obj 180 199 soundfiler;
#X obj 37 136 hip~ 5;
#X obj 37 69 line~;
#X obj 37 20 * 441;
#X floatatom 37 -34 0 0 100 0 - - -;
#X obj 36 168 output~;
#X obj 37 104 tabread4~ my-table;
#X msg 180 157 read -resize /Users/krzysztof/mobileorc/class_projects/2016-03-01//Dalajlama.wav
my-table, f 83;
#N canvas 0 22 450 278 (subpatch) 0;
#X array my-table 1.81658e+06 float 2;
#X coords 0 1 1.81658e+06 -1 200 140 1;
#X restore 344 -49 graph;
#X obj 155 -15 metro 300;
#X obj 156 -39 tgl 15 0 empty empty empty 17 7 0 10 -262144 -1 -1 0
1;
#X obj 155 16 random 100;
#X obj 37 44 pack 0 300;
#X connect 0 0 8 0;
#X connect 2 0 6 0;
#X connect 2 0 6 1;
#X connect 3 0 7 0;
#X connect 4 0 13 0;
#X connect 5 0 4 0;
#X connect 7 0 2 0;
#X connect 8 0 1 0;
#X connect 10 0 12 0;
#X connect 11 0 10 0;
#X connect 12 0 5 0;
#X connect 13 0 3 0;
#X coords 0 347 1 346 85 60 0;
