#N canvas 863 35 615 530 10;
#X declare -path gran-work;
#X text 418 272 half window for one grain;
#X obj 96 342 moses;
#X obj 158 342 spigot;
#X obj 340 106 tgl 15 0 empty loop loop 17 7 0 10 -204786 -1 -1 0 1
;
#X obj 35 477 bng 15 250 50 0 empty empty overflow 17 7 0 10 -262144
-1 -1;
#X floatatom 354 482 5 0 0 0 voices_active - -, f 5;
#X obj 27 11 cnv 15 550 40 empty empty Universal_Polyphonic_Player
10 10 0 14 -233017 -66577 0;
#X obj 35 108 tgl 25 0 empty play play 0 -8 0 10 -258113 -1 -1 0 1
;
#X obj 179 125 nbx 5 14 -1 1 0 0 empty speed empty 0 -8 0 10 -204786
-1 -1 -0.00787402 256;
#X text 34 34 synchronous granular playing through audio buffer;
#X obj 182 107 hsl 128 15 -1 1 0 1 empty empty speed -2 -8 0 10 -204786
-1 -1 6300 1;
#X obj 100 109 nbx 5 14 1 1000 1 1 empty g-length grain_length 0 -8
0 10 -204786 -1 -1 69.1582 256;
#X obj 100 129 / 2;
#X msg 58 180 0;
#X obj 35 310 nbx 8 14 0 1e+37 0 0 empty empty pos_in_buffer_(ms) 0
-8 0 10 -262144 -1 -1 28280.5 256;
#X text 189 410 tag;
#N canvas 622 249 705 532 play 0;
#X obj 63 448 outlet;
#X text 257 150 attack+sustain;
#X obj 63 60 inlet;
#X obj 496 62 inlet;
#X text 62 43 play 0/1;
#X text 494 44 speed;
#X obj 409 454 outlet;
#X text 407 474 release old grain;
#X text 60 469 trigger new grain;
#X obj 257 61 inlet;
#X obj 336 61 inlet;
#X obj 424 62 inlet;
#X text 257 40 attack;
#X text 337 41 sustain;
#X text 420 42 release;
#X obj 337 86 t b a;
#X obj 169 60 inlet;
#X obj 288 129 + 0;
#X text 166 41 set pos;
#X obj 289 256 * 1;
#X obj 495 102 t b a;
#X text 287 273 playpos increment;
#X obj 169 344 +;
#X obj 63 276 upp.onward;
#X obj 73 103 sel 0;
#X obj 63 418 pack 0 0 0;
#X msg 409 403 0;
#X obj 409 426 pack 0 0;
#X obj 63 350 t a a;
#X obj 63 322 f;
#X obj 559 59 inlet;
#X text 559 41 dev;
#N canvas 0 22 218 353 rnd 0;
#X obj 46 41 inlet;
#X obj 117 41 inlet;
#X obj 47 75 t a b;
#X obj 97 230 * 0;
#X obj 44 267 +;
#X obj 43 295 outlet;
#X floatatom 127 261 5 0 0 0 - - -, f 5;
#X obj 72 165 frnd;
#X connect 0 0 2 0;
#X connect 1 0 3 1;
#X connect 2 0 4 0;
#X connect 2 1 7 0;
#X connect 3 0 4 1;
#X connect 3 0 6 0;
#X connect 4 0 5 0;
#X connect 7 0 3 0;
#X restore 63 389 pd rnd;
#X connect 2 0 23 0;
#X connect 2 0 24 0;
#X connect 3 0 20 0;
#X connect 9 0 17 0;
#X connect 9 0 25 2;
#X connect 10 0 15 0;
#X connect 11 0 27 1;
#X connect 15 0 17 0;
#X connect 15 1 17 1;
#X connect 16 0 29 1;
#X connect 17 0 19 0;
#X connect 17 0 23 1;
#X connect 19 0 22 1;
#X connect 20 0 19 0;
#X connect 20 1 19 1;
#X connect 22 0 29 1;
#X connect 23 0 29 0;
#X connect 23 1 25 1;
#X connect 23 1 27 0;
#X connect 24 0 26 0;
#X connect 25 0 0 0;
#X connect 26 0 27 0;
#X connect 27 0 6 0;
#X connect 28 0 32 0;
#X connect 28 1 22 0;
#X connect 29 0 28 0;
#X connect 30 0 32 1;
#X connect 32 0 25 0;
#X restore 35 202 pd play ___________;
#X obj 180 166 nbx 5 14 -1e+37 1e+37 0 0 empty g-pitch pitch-shift_(halftones)
0 -8 0 10 -204786 -1 -1 0 256;
#X obj 134 370 expr pow(2 \, $f1/12);
#X obj 35 371 list append 1;
#X obj 35 230 t a a;
#X obj 428 429 catch~ \$0-bus;
#X obj 428 453 out-mono;
#X text 454 121 to find voice patch;
#X obj 35 452 upp.xc 10 spat-mono \$0-bus syn-sample-varcorr \$0-wnd
1024;
#X obj 186 209 nbx 5 14 0.01 1000 1 1 empty g-dev dev 0 -8 0 10 -204786
-1 -1 237.137 256;
#X obj 452 292 wnd-lin \$0-wnd 1024;
#X text 456 15 grrrr.org \, 2012-15;
#X obj 397 96 declare -path gran-work;
#N canvas 40 559 342 280 load-sample 0;
#X obj 53 21 loadbang;
#X obj 51 117 soundfiler;
#X obj 51 193 outlet;
#X obj 51 155 upp.s2ms;
#X obj 168 133 table my-sample;
#X msg 51 80 read -resize Dalajlama.wav my-sample;
#X connect 0 0 5 0;
#X connect 1 0 3 0;
#X connect 3 0 2 0;
#X connect 5 0 1 0;
#X restore 251 293 pd load-sample my-sample;
#X obj 35 411 list prepend my-sample;
#X obj 241 412 list prepend my-sample;
#N canvas 784 602 428 270 phone-ctl 0;
#X obj 24 19 receive fromGUI;
#X obj 24 42 route list;
#X obj 24 65 route /loop /play;
#X obj 24 91 s loop;
#X obj 73 91 s play;
#X obj 123 155 s g-length;
#X obj 177 183 s g-pitch;
#X obj 232 158 s g-dev;
#X obj 286 181 s speed;
#X obj 123 129 * 1000;
#X obj 177 128 - 12;
#X obj 232 133 * 1000;
#X obj 123 102 route /g-length /g-pitch /g-dev /speed /volume;
#X obj 341 133 - 1;
#X obj 341 155 * 50;
#X obj 341 186 s vol;
#X obj 286 129 * 2;
#X obj 286 153 -1;
#X connect 0 0 1 0;
#X connect 1 0 2 0;
#X connect 2 0 3 0;
#X connect 2 1 4 0;
#X connect 2 2 12 0;
#X connect 9 0 5 0;
#X connect 10 0 6 0;
#X connect 11 0 7 0;
#X connect 12 0 9 0;
#X connect 12 1 10 0;
#X connect 12 2 11 0;
#X connect 12 3 16 0;
#X connect 12 4 13 0;
#X connect 13 0 14 0;
#X connect 14 0 15 0;
#X connect 16 0 17 0;
#X connect 17 0 8 0;
#X restore 468 152 pd phone-ctl;
#X connect 1 1 2 0;
#X connect 2 0 13 0;
#X connect 3 0 2 1;
#X connect 7 0 16 0;
#X connect 8 0 16 5;
#X connect 10 0 8 0;
#X connect 11 0 12 0;
#X connect 12 0 16 2;
#X connect 12 0 16 4;
#X connect 13 0 16 1;
#X connect 14 0 1 0;
#X connect 16 0 20 0;
#X connect 16 1 31 0;
#X connect 17 0 18 0;
#X connect 18 0 19 1;
#X connect 19 0 30 0;
#X connect 20 0 14 0;
#X connect 20 1 19 0;
#X connect 21 0 22 0;
#X connect 24 0 4 0;
#X connect 24 2 5 0;
#X connect 25 0 16 6;
#X connect 29 0 1 1;
#X connect 30 0 24 0;
#X connect 31 0 24 1;
