#N canvas 1581 562 382 405 10;
#X obj -155 -233 receive fromGUI;
#X obj -155 -205 list trim;
#X obj -154 -180 route /XYPad;
#X obj -154 -152 route touch;
#X obj -122 52 dac~;
#X obj -112 21 catch~ out;
#N canvas 1513 135 211 400 voice 0;
#X obj -80 176 osc~;
#X obj -120 45 unpack 0 0 0;
#X msg -32 216 \$1 10;
#X obj -32 238 line~;
#X obj -80 104 mtof;
#X obj -80 215 *~;
#X msg -32 126 \$1 10;
#X obj -32 148 line~;
#X obj -80 263 *~;
#X obj -80 76 expr ($f1*50)+40;
#X obj -29 190 sel 2;
#X obj -80 149 line~;
#X msg -80 127 \$1 30;
#X obj -80 312 throw~ out;
#X obj -120 16 inlet;
#X obj -32 104 expr $f1*0.3;
#X connect 0 0 5 0;
#X connect 1 0 10 0;
#X connect 1 1 9 0;
#X connect 1 2 15 0;
#X connect 2 0 3 0;
#X connect 3 0 8 1;
#X connect 4 0 12 0;
#X connect 5 0 8 0;
#X connect 6 0 7 0;
#X connect 7 0 5 1;
#X connect 8 0 13 0;
#X connect 9 0 4 0;
#X connect 10 1 2 0;
#X connect 11 0 0 0;
#X connect 12 0 11 0;
#X connect 14 0 1 0;
#X connect 15 0 6 0;
#X restore -154 -103 pd voice;
#X obj -154 -130 route 0 1 2 3 4;
#N canvas 1513 135 211 400 voice 0;
#X obj -80 176 osc~;
#X obj -120 45 unpack 0 0 0;
#X msg -32 216 \$1 10;
#X obj -32 238 line~;
#X obj -80 104 mtof;
#X obj -80 215 *~;
#X msg -32 126 \$1 10;
#X obj -32 148 line~;
#X obj -80 263 *~;
#X obj -80 76 expr ($f1*50)+40;
#X obj -29 190 sel 2;
#X obj -80 149 line~;
#X msg -80 127 \$1 30;
#X obj -80 312 throw~ out;
#X obj -120 16 inlet;
#X obj -32 104 expr $f1*0.3;
#X connect 0 0 5 0;
#X connect 1 0 10 0;
#X connect 1 1 9 0;
#X connect 1 2 15 0;
#X connect 2 0 3 0;
#X connect 3 0 8 1;
#X connect 4 0 12 0;
#X connect 5 0 8 0;
#X connect 6 0 7 0;
#X connect 7 0 5 1;
#X connect 8 0 13 0;
#X connect 9 0 4 0;
#X connect 10 1 2 0;
#X connect 11 0 0 0;
#X connect 12 0 11 0;
#X connect 14 0 1 0;
#X connect 15 0 6 0;
#X restore -144 -83 pd voice;
#N canvas 1513 135 211 400 voice 0;
#X obj -80 176 osc~;
#X obj -120 45 unpack 0 0 0;
#X msg -32 216 \$1 10;
#X obj -32 238 line~;
#X obj -80 104 mtof;
#X obj -80 215 *~;
#X msg -32 126 \$1 10;
#X obj -32 148 line~;
#X obj -80 263 *~;
#X obj -80 76 expr ($f1*50)+40;
#X obj -29 190 sel 2;
#X obj -80 149 line~;
#X msg -80 127 \$1 30;
#X obj -80 312 throw~ out;
#X obj -120 16 inlet;
#X obj -32 104 expr $f1*0.3;
#X connect 0 0 5 0;
#X connect 1 0 10 0;
#X connect 1 1 9 0;
#X connect 1 2 15 0;
#X connect 2 0 3 0;
#X connect 3 0 8 1;
#X connect 4 0 12 0;
#X connect 5 0 8 0;
#X connect 6 0 7 0;
#X connect 7 0 5 1;
#X connect 8 0 13 0;
#X connect 9 0 4 0;
#X connect 10 1 2 0;
#X connect 11 0 0 0;
#X connect 12 0 11 0;
#X connect 14 0 1 0;
#X connect 15 0 6 0;
#X restore -134 -63 pd voice;
#N canvas 1513 135 211 400 voice 0;
#X obj -80 176 osc~;
#X obj -120 45 unpack 0 0 0;
#X msg -32 216 \$1 10;
#X obj -32 238 line~;
#X obj -80 104 mtof;
#X obj -80 215 *~;
#X msg -32 126 \$1 10;
#X obj -32 148 line~;
#X obj -80 263 *~;
#X obj -80 76 expr ($f1*50)+40;
#X obj -29 190 sel 2;
#X obj -80 149 line~;
#X msg -80 127 \$1 30;
#X obj -80 312 throw~ out;
#X obj -120 16 inlet;
#X obj -32 104 expr $f1*0.3;
#X connect 0 0 5 0;
#X connect 1 0 10 0;
#X connect 1 1 9 0;
#X connect 1 2 15 0;
#X connect 2 0 3 0;
#X connect 3 0 8 1;
#X connect 4 0 12 0;
#X connect 5 0 8 0;
#X connect 6 0 7 0;
#X connect 7 0 5 1;
#X connect 8 0 13 0;
#X connect 9 0 4 0;
#X connect 10 1 2 0;
#X connect 11 0 0 0;
#X connect 12 0 11 0;
#X connect 14 0 1 0;
#X connect 15 0 6 0;
#X restore -124 -43 pd voice;
#N canvas 1513 135 211 400 voice 0;
#X obj -80 176 osc~;
#X obj -120 45 unpack 0 0 0;
#X msg -32 216 \$1 10;
#X obj -32 238 line~;
#X obj -80 104 mtof;
#X obj -80 215 *~;
#X msg -32 126 \$1 10;
#X obj -32 148 line~;
#X obj -80 263 *~;
#X obj -80 76 expr ($f1*50)+40;
#X obj -29 190 sel 2;
#X obj -80 149 line~;
#X msg -80 127 \$1 30;
#X obj -80 312 throw~ out;
#X obj -120 16 inlet;
#X obj -32 104 expr $f1*0.3;
#X connect 0 0 5 0;
#X connect 1 0 10 0;
#X connect 1 1 9 0;
#X connect 1 2 15 0;
#X connect 2 0 3 0;
#X connect 3 0 8 1;
#X connect 4 0 12 0;
#X connect 5 0 8 0;
#X connect 6 0 7 0;
#X connect 7 0 5 1;
#X connect 8 0 13 0;
#X connect 9 0 4 0;
#X connect 10 1 2 0;
#X connect 11 0 0 0;
#X connect 12 0 11 0;
#X connect 14 0 1 0;
#X connect 15 0 6 0;
#X restore -114 -23 pd voice;
#X connect 0 0 1 0;
#X connect 1 0 2 0;
#X connect 2 0 3 0;
#X connect 3 0 7 0;
#X connect 5 0 4 0;
#X connect 5 0 4 1;
#X connect 7 0 6 0;
#X connect 7 1 8 0;
#X connect 7 2 9 0;
#X connect 7 3 10 0;
#X connect 7 4 11 0;
