#N canvas 653 82 205 370 10;
#X obj 27 283 dac~;
#X obj 27 229 catch~ out;
#N canvas 633 332 202 197 reverb 0;
#X obj 64 111 rev1~;
#X obj 132 41 loadbang;
#X obj 9 22 inlet~;
#X obj 9 170 outlet~;
#X obj 9 98 *~ 0.3;
#X obj 9 143 clip~ -0.999 0.999;
#X obj 64 90 *~ 0.5;
#X msg 132 66 40;
#X connect 0 0 5 0;
#X connect 1 0 7 0;
#X connect 2 0 4 0;
#X connect 2 0 6 0;
#X connect 4 0 5 0;
#X connect 5 0 3 0;
#X connect 6 0 0 0;
#X connect 7 0 0 1;
#X restore 27 256 pd reverb;
#N canvas 1341 170 637 499 presets 0;
#X obj 252 51 route 0 1 2 3 4 5;
#X obj 252 26 r preset;
#X obj -154 20 loadbang;
#N canvas 334 241 924 560 (subpatch) 0;
#X array karlheinz 90 float 3;
#A 0 50 53.3247 56.8706 60.6522 64.6852 68.9865 73.5737 78.466 83.6836
89.2481 95.1827 101.512 108.262 115.461 123.138 131.326 140.059 149.372
159.305 169.898 181.195 193.243 206.093 219.797 234.413 250 266.624
284.353 303.261 323.426 344.932 367.869 392.33 418.418 446.241 475.913
507.559 541.309 577.304 615.692 656.632 700.295 746.861 796.523 849.488
905.975 966.217 1030.47 1098.99 1172.06 1250 1333.12 1421.76 1516.3
1617.13 1724.66 1839.34 1961.65 2092.09 2231.2 2379.57 2537.8 2706.55
2886.52 3078.46 3283.16 3501.47 3734.3 3982.62 4247.44 4529.87 4831.09
5152.33 5494.93 5860.32 6250 6665.59 7108.82 7581.52 8085.66 8623.31
9196.72 9808.25 10460.5 11156 11897.8 12689 13532.7 14432.6 15392.3
;
#X coords 0 0 90 20000 200 140 1 0 0;
#X restore -173 272 graph;
#X msg -183 56 \; karlheinz 0 50 53.3247 56.8706 60.6522 64.6852 68.9865
73.5737 78.466 83.6836 89.2481 95.1827 101.512 108.262 115.461 123.138
131.326 140.059 149.372 159.305 169.898 181.195 193.243 206.093 219.797
234.413 250 266.624 284.353 303.261 323.426 344.932 367.869 392.33
418.418 446.241 475.913 507.559 541.309 577.304 615.692 656.632 700.295
746.861 796.523 849.488 905.975 966.217 1030.47 1098.99 1172.06 1250
1333.12 1421.76 1516.3 1617.13 1724.66 1839.34 1961.65 2092.09 2231.2
2379.57 2537.8 2706.55 2886.52 3078.46 3283.16 3501.47 3734.3 3982.62
4247.44 4529.87 4831.09 5152.33 5494.93 5860.32 6250 6665.59 7108.82
7581.52 8085.66 8623.31 9196.72 9808.25 10460.5 11156 11897.8 12689
13532.7 14432.6 15392.3;
#X msg 252 80 \; fcoef2 2 \; fcoef3 4 \; fcoef4 6 \; fcoef5 8 \;;
#X msg 327 79 \; fcoef2 8 \; fcoef3 16 \; fcoef4 24 \; fcoef5 32 \;
;
#X msg 344 168 \; fcoef2 10 \; fcoef3 20 \; fcoef4 30 \; fcoef5 40
\;;
#X msg 268 170 \; fcoef2 4 \; fcoef3 8 \; fcoef4 12 \; fcoef5 16 \;
;
#X msg 287 260 \; fcoef2 6 \; fcoef3 12 \; fcoef4 18 \; fcoef5 24 \;
;
#X connect 0 0 5 0;
#X connect 0 1 8 0;
#X connect 0 2 9 0;
#X connect 0 3 6 0;
#X connect 0 4 7 0;
#X connect 1 0 0 0;
#X connect 2 0 4 0;
#X connect 2 0 5 0;
#X restore 82 288 pd presets;
#N canvas 910 577 828 699 mobmuplat_ctl 0;
#X obj 25 17 receive fromGUI;
#X obj 25 45 list trim;
#X obj 26 70 route /XYPad;
#X obj 26 98 route touch;
#X obj 26 131 outlet;
#X obj 167 22 receive fromSystem;
#X obj 167 49 list trim;
#X obj 167 76 route /tilts;
#X obj 167 103 unpack 0 0;
#X obj 167 154 *;
#X obj 167 181 *;
#X obj 234 214 s preset;
#X obj 234 158 expr ($f1+1)*3;
#X obj 234 186 int;
#X obj 167 205 s rsend;
#X obj 167 128 expr ($f1+1)*0.4;
#X connect 0 0 1 0;
#X connect 1 0 2 0;
#X connect 2 0 3 0;
#X connect 3 0 4 0;
#X connect 5 0 6 0;
#X connect 6 0 7 0;
#X connect 7 0 8 0;
#X connect 8 0 15 0;
#X connect 8 1 12 0;
#X connect 9 0 10 0;
#X connect 9 0 10 1;
#X connect 10 0 14 0;
#X connect 12 0 13 0;
#X connect 13 0 11 0;
#X connect 15 0 9 0;
#X connect 15 0 9 1;
#X restore 22 37 pd mobmuplat_ctl;
#N canvas 1290 224 744 509 voice 0;
#X obj 39 257 osc~;
#X obj 113 40 unpack 0 0 0;
#X obj 39 296 *~;
#X obj 362 262 line~;
#X obj 309 424 throw~ out;
#X obj 113 11 inlet;
#N canvas 0 23 386 313 amp-mod 0;
#X obj 129 180 *~;
#X obj 129 17 inlet~;
#X obj 129 244 outlet~;
#X obj 147 143 expr~ $v1/3+0.7;
#X obj 147 113 osc~;
#X obj 181 18 loadbang;
#X obj 181 40 random 100;
#X obj 181 84 + 0.01;
#X obj 181 62 / 500;
#X obj 129 212 expr~ tanh($v1);
#X connect 0 0 9 0;
#X connect 1 0 0 0;
#X connect 3 0 0 1;
#X connect 4 0 3 0;
#X connect 5 0 6 0;
#X connect 6 0 8 0;
#X connect 7 0 4 0;
#X connect 8 0 7 0;
#X connect 9 0 2 0;
#X restore 39 369 pd amp-mod;
#X obj 39 200 tabread karlheinz;
#X obj 175 257 osc~;
#X obj 175 296 *~;
#X obj 175 200 tabread karlheinz;
#X obj 175 175 +;
#X obj 193 153 r fcoef2;
#X obj 309 257 osc~;
#X obj 309 296 *~;
#X obj 309 200 tabread karlheinz;
#X obj 309 175 +;
#X obj 445 257 osc~;
#X obj 445 296 *~;
#X obj 445 200 tabread karlheinz;
#X obj 445 175 +;
#X obj 575 257 osc~;
#X obj 575 296 *~;
#X obj 575 200 tabread karlheinz;
#X obj 575 175 +;
#X obj 327 153 r fcoef3;
#X obj 463 153 r fcoef4;
#X obj 593 153 r fcoef5;
#X obj 362 73 expr $f1*0.2;
#X obj 175 112 expr ($f1*44)+20;
#X obj 175 85 f;
#X obj 113 125 sel 2;
#X obj 123 70 sel 1;
#X msg 123 92 bang;
#N canvas 0 23 386 313 amp-mod 0;
#X obj 129 180 *~;
#X obj 129 17 inlet~;
#X obj 129 244 outlet~;
#X obj 147 143 expr~ $v1/3+0.7;
#X obj 147 113 osc~;
#X obj 181 18 loadbang;
#X obj 181 40 random 100;
#X obj 181 84 + 0.01;
#X obj 181 62 / 500;
#X obj 129 212 expr~ tanh($v1);
#X connect 0 0 9 0;
#X connect 1 0 0 0;
#X connect 3 0 0 1;
#X connect 4 0 3 0;
#X connect 5 0 6 0;
#X connect 6 0 8 0;
#X connect 7 0 4 0;
#X connect 8 0 7 0;
#X connect 9 0 2 0;
#X restore 175 369 pd amp-mod;
#N canvas 0 23 386 313 amp-mod 0;
#X obj 129 180 *~;
#X obj 129 17 inlet~;
#X obj 129 244 outlet~;
#X obj 147 143 expr~ $v1/3+0.7;
#X obj 147 113 osc~;
#X obj 181 18 loadbang;
#X obj 181 40 random 100;
#X obj 181 84 + 0.01;
#X obj 181 62 / 500;
#X obj 129 212 expr~ tanh($v1);
#X connect 0 0 9 0;
#X connect 1 0 0 0;
#X connect 3 0 0 1;
#X connect 4 0 3 0;
#X connect 5 0 6 0;
#X connect 6 0 8 0;
#X connect 7 0 4 0;
#X connect 8 0 7 0;
#X connect 9 0 2 0;
#X restore 309 369 pd amp-mod;
#N canvas 0 23 386 313 amp-mod 0;
#X obj 129 180 *~;
#X obj 129 17 inlet~;
#X obj 129 244 outlet~;
#X obj 147 143 expr~ $v1/3+0.7;
#X obj 147 113 osc~;
#X obj 181 18 loadbang;
#X obj 181 40 random 100;
#X obj 181 84 + 0.01;
#X obj 181 62 / 500;
#X obj 129 212 expr~ tanh($v1);
#X connect 0 0 9 0;
#X connect 1 0 0 0;
#X connect 3 0 0 1;
#X connect 4 0 3 0;
#X connect 5 0 6 0;
#X connect 6 0 8 0;
#X connect 7 0 4 0;
#X connect 8 0 7 0;
#X connect 9 0 2 0;
#X restore 445 369 pd amp-mod;
#N canvas 0 23 386 313 amp-mod 0;
#X obj 129 180 *~;
#X obj 129 17 inlet~;
#X obj 129 244 outlet~;
#X obj 147 143 expr~ $v1/3+0.7;
#X obj 147 113 osc~;
#X obj 181 18 loadbang;
#X obj 181 40 random 100;
#X obj 181 84 + 0.01;
#X obj 181 62 / 500;
#X obj 129 212 expr~ tanh($v1);
#X connect 0 0 9 0;
#X connect 1 0 0 0;
#X connect 3 0 0 1;
#X connect 4 0 3 0;
#X connect 5 0 6 0;
#X connect 6 0 8 0;
#X connect 7 0 4 0;
#X connect 8 0 7 0;
#X connect 9 0 2 0;
#X restore 575 369 pd amp-mod;
#X msg 362 230 \$1 10;
#X obj 140 151 sel 0;
#X msg 140 174 0 10;
#X connect 0 0 2 0;
#X connect 1 0 31 0;
#X connect 1 0 32 0;
#X connect 1 1 30 1;
#X connect 1 2 28 0;
#X connect 2 0 6 0;
#X connect 3 0 2 1;
#X connect 3 0 9 1;
#X connect 3 0 14 1;
#X connect 3 0 18 1;
#X connect 3 0 22 1;
#X connect 5 0 1 0;
#X connect 6 0 4 0;
#X connect 7 0 0 0;
#X connect 8 0 9 0;
#X connect 9 0 34 0;
#X connect 10 0 8 0;
#X connect 11 0 10 0;
#X connect 12 0 11 1;
#X connect 13 0 14 0;
#X connect 14 0 35 0;
#X connect 15 0 13 0;
#X connect 16 0 15 0;
#X connect 17 0 18 0;
#X connect 18 0 36 0;
#X connect 19 0 17 0;
#X connect 20 0 19 0;
#X connect 21 0 22 0;
#X connect 22 0 37 0;
#X connect 23 0 21 0;
#X connect 24 0 23 0;
#X connect 25 0 16 1;
#X connect 26 0 20 1;
#X connect 27 0 24 1;
#X connect 28 0 38 0;
#X connect 29 0 7 0;
#X connect 29 0 11 0;
#X connect 29 0 16 0;
#X connect 29 0 20 0;
#X connect 29 0 24 0;
#X connect 30 0 29 0;
#X connect 31 1 39 0;
#X connect 32 0 33 0;
#X connect 33 0 30 0;
#X connect 34 0 4 0;
#X connect 35 0 4 0;
#X connect 36 0 4 0;
#X connect 37 0 4 0;
#X connect 38 0 3 0;
#X connect 39 0 40 0;
#X connect 40 0 3 0;
#X restore 22 107 pd voice;
#N canvas 1290 224 744 509 voice 0;
#X obj 39 257 osc~;
#X obj 113 40 unpack 0 0 0;
#X obj 39 296 *~;
#X obj 362 262 line~;
#X obj 309 424 throw~ out;
#X obj 113 11 inlet;
#N canvas 0 23 386 313 amp-mod 0;
#X obj 129 180 *~;
#X obj 129 17 inlet~;
#X obj 129 244 outlet~;
#X obj 147 143 expr~ $v1/3+0.7;
#X obj 147 113 osc~;
#X obj 181 18 loadbang;
#X obj 181 40 random 100;
#X obj 181 84 + 0.01;
#X obj 181 62 / 500;
#X obj 129 212 expr~ tanh($v1);
#X connect 0 0 9 0;
#X connect 1 0 0 0;
#X connect 3 0 0 1;
#X connect 4 0 3 0;
#X connect 5 0 6 0;
#X connect 6 0 8 0;
#X connect 7 0 4 0;
#X connect 8 0 7 0;
#X connect 9 0 2 0;
#X restore 39 369 pd amp-mod;
#X obj 39 200 tabread karlheinz;
#X obj 175 257 osc~;
#X obj 175 296 *~;
#X obj 175 200 tabread karlheinz;
#X obj 175 175 +;
#X obj 193 153 r fcoef2;
#X obj 309 257 osc~;
#X obj 309 296 *~;
#X obj 309 200 tabread karlheinz;
#X obj 309 175 +;
#X obj 445 257 osc~;
#X obj 445 296 *~;
#X obj 445 200 tabread karlheinz;
#X obj 445 175 +;
#X obj 575 257 osc~;
#X obj 575 296 *~;
#X obj 575 200 tabread karlheinz;
#X obj 575 175 +;
#X obj 327 153 r fcoef3;
#X obj 463 153 r fcoef4;
#X obj 593 153 r fcoef5;
#X obj 362 73 expr $f1*0.2;
#X obj 175 112 expr ($f1*44)+20;
#X obj 175 85 f;
#X obj 113 125 sel 2;
#X obj 123 70 sel 1;
#X msg 123 92 bang;
#N canvas 0 23 386 313 amp-mod 0;
#X obj 129 180 *~;
#X obj 129 17 inlet~;
#X obj 129 244 outlet~;
#X obj 147 143 expr~ $v1/3+0.7;
#X obj 147 113 osc~;
#X obj 181 18 loadbang;
#X obj 181 40 random 100;
#X obj 181 84 + 0.01;
#X obj 181 62 / 500;
#X obj 129 212 expr~ tanh($v1);
#X connect 0 0 9 0;
#X connect 1 0 0 0;
#X connect 3 0 0 1;
#X connect 4 0 3 0;
#X connect 5 0 6 0;
#X connect 6 0 8 0;
#X connect 7 0 4 0;
#X connect 8 0 7 0;
#X connect 9 0 2 0;
#X restore 175 369 pd amp-mod;
#N canvas 0 23 386 313 amp-mod 0;
#X obj 129 180 *~;
#X obj 129 17 inlet~;
#X obj 129 244 outlet~;
#X obj 147 143 expr~ $v1/3+0.7;
#X obj 147 113 osc~;
#X obj 181 18 loadbang;
#X obj 181 40 random 100;
#X obj 181 84 + 0.01;
#X obj 181 62 / 500;
#X obj 129 212 expr~ tanh($v1);
#X connect 0 0 9 0;
#X connect 1 0 0 0;
#X connect 3 0 0 1;
#X connect 4 0 3 0;
#X connect 5 0 6 0;
#X connect 6 0 8 0;
#X connect 7 0 4 0;
#X connect 8 0 7 0;
#X connect 9 0 2 0;
#X restore 309 369 pd amp-mod;
#N canvas 0 23 386 313 amp-mod 0;
#X obj 129 180 *~;
#X obj 129 17 inlet~;
#X obj 129 244 outlet~;
#X obj 147 143 expr~ $v1/3+0.7;
#X obj 147 113 osc~;
#X obj 181 18 loadbang;
#X obj 181 40 random 100;
#X obj 181 84 + 0.01;
#X obj 181 62 / 500;
#X obj 129 212 expr~ tanh($v1);
#X connect 0 0 9 0;
#X connect 1 0 0 0;
#X connect 3 0 0 1;
#X connect 4 0 3 0;
#X connect 5 0 6 0;
#X connect 6 0 8 0;
#X connect 7 0 4 0;
#X connect 8 0 7 0;
#X connect 9 0 2 0;
#X restore 445 369 pd amp-mod;
#N canvas 0 23 386 313 amp-mod 0;
#X obj 129 180 *~;
#X obj 129 17 inlet~;
#X obj 129 244 outlet~;
#X obj 147 143 expr~ $v1/3+0.7;
#X obj 147 113 osc~;
#X obj 181 18 loadbang;
#X obj 181 40 random 100;
#X obj 181 84 + 0.01;
#X obj 181 62 / 500;
#X obj 129 212 expr~ tanh($v1);
#X connect 0 0 9 0;
#X connect 1 0 0 0;
#X connect 3 0 0 1;
#X connect 4 0 3 0;
#X connect 5 0 6 0;
#X connect 6 0 8 0;
#X connect 7 0 4 0;
#X connect 8 0 7 0;
#X connect 9 0 2 0;
#X restore 575 369 pd amp-mod;
#X msg 362 230 \$1 10;
#X obj 140 151 sel 0;
#X msg 140 174 0 10;
#X connect 0 0 2 0;
#X connect 1 0 31 0;
#X connect 1 0 32 0;
#X connect 1 1 30 1;
#X connect 1 2 28 0;
#X connect 2 0 6 0;
#X connect 3 0 2 1;
#X connect 3 0 9 1;
#X connect 3 0 14 1;
#X connect 3 0 18 1;
#X connect 3 0 22 1;
#X connect 5 0 1 0;
#X connect 6 0 4 0;
#X connect 7 0 0 0;
#X connect 8 0 9 0;
#X connect 9 0 34 0;
#X connect 10 0 8 0;
#X connect 11 0 10 0;
#X connect 12 0 11 1;
#X connect 13 0 14 0;
#X connect 14 0 35 0;
#X connect 15 0 13 0;
#X connect 16 0 15 0;
#X connect 17 0 18 0;
#X connect 18 0 36 0;
#X connect 19 0 17 0;
#X connect 20 0 19 0;
#X connect 21 0 22 0;
#X connect 22 0 37 0;
#X connect 23 0 21 0;
#X connect 24 0 23 0;
#X connect 25 0 16 1;
#X connect 26 0 20 1;
#X connect 27 0 24 1;
#X connect 28 0 38 0;
#X connect 29 0 7 0;
#X connect 29 0 11 0;
#X connect 29 0 16 0;
#X connect 29 0 20 0;
#X connect 29 0 24 0;
#X connect 30 0 29 0;
#X connect 31 1 39 0;
#X connect 32 0 33 0;
#X connect 33 0 30 0;
#X connect 34 0 4 0;
#X connect 35 0 4 0;
#X connect 36 0 4 0;
#X connect 37 0 4 0;
#X connect 38 0 3 0;
#X connect 39 0 40 0;
#X connect 40 0 3 0;
#X restore 32 127 pd voice;
#N canvas 1290 224 744 509 voice 0;
#X obj 39 257 osc~;
#X obj 113 40 unpack 0 0 0;
#X obj 39 296 *~;
#X obj 362 262 line~;
#X obj 309 424 throw~ out;
#X obj 113 11 inlet;
#N canvas 0 23 386 313 amp-mod 0;
#X obj 129 180 *~;
#X obj 129 17 inlet~;
#X obj 129 244 outlet~;
#X obj 147 143 expr~ $v1/3+0.7;
#X obj 147 113 osc~;
#X obj 181 18 loadbang;
#X obj 181 40 random 100;
#X obj 181 84 + 0.01;
#X obj 181 62 / 500;
#X obj 129 212 expr~ tanh($v1);
#X connect 0 0 9 0;
#X connect 1 0 0 0;
#X connect 3 0 0 1;
#X connect 4 0 3 0;
#X connect 5 0 6 0;
#X connect 6 0 8 0;
#X connect 7 0 4 0;
#X connect 8 0 7 0;
#X connect 9 0 2 0;
#X restore 39 369 pd amp-mod;
#X obj 39 200 tabread karlheinz;
#X obj 175 257 osc~;
#X obj 175 296 *~;
#X obj 175 200 tabread karlheinz;
#X obj 175 175 +;
#X obj 193 153 r fcoef2;
#X obj 309 257 osc~;
#X obj 309 296 *~;
#X obj 309 200 tabread karlheinz;
#X obj 309 175 +;
#X obj 445 257 osc~;
#X obj 445 296 *~;
#X obj 445 200 tabread karlheinz;
#X obj 445 175 +;
#X obj 575 257 osc~;
#X obj 575 296 *~;
#X obj 575 200 tabread karlheinz;
#X obj 575 175 +;
#X obj 327 153 r fcoef3;
#X obj 463 153 r fcoef4;
#X obj 593 153 r fcoef5;
#X obj 362 73 expr $f1*0.2;
#X obj 175 112 expr ($f1*44)+20;
#X obj 175 85 f;
#X obj 113 125 sel 2;
#X obj 123 70 sel 1;
#X msg 123 92 bang;
#N canvas 0 23 386 313 amp-mod 0;
#X obj 129 180 *~;
#X obj 129 17 inlet~;
#X obj 129 244 outlet~;
#X obj 147 143 expr~ $v1/3+0.7;
#X obj 147 113 osc~;
#X obj 181 18 loadbang;
#X obj 181 40 random 100;
#X obj 181 84 + 0.01;
#X obj 181 62 / 500;
#X obj 129 212 expr~ tanh($v1);
#X connect 0 0 9 0;
#X connect 1 0 0 0;
#X connect 3 0 0 1;
#X connect 4 0 3 0;
#X connect 5 0 6 0;
#X connect 6 0 8 0;
#X connect 7 0 4 0;
#X connect 8 0 7 0;
#X connect 9 0 2 0;
#X restore 175 369 pd amp-mod;
#N canvas 0 23 386 313 amp-mod 0;
#X obj 129 180 *~;
#X obj 129 17 inlet~;
#X obj 129 244 outlet~;
#X obj 147 143 expr~ $v1/3+0.7;
#X obj 147 113 osc~;
#X obj 181 18 loadbang;
#X obj 181 40 random 100;
#X obj 181 84 + 0.01;
#X obj 181 62 / 500;
#X obj 129 212 expr~ tanh($v1);
#X connect 0 0 9 0;
#X connect 1 0 0 0;
#X connect 3 0 0 1;
#X connect 4 0 3 0;
#X connect 5 0 6 0;
#X connect 6 0 8 0;
#X connect 7 0 4 0;
#X connect 8 0 7 0;
#X connect 9 0 2 0;
#X restore 309 369 pd amp-mod;
#N canvas 0 23 386 313 amp-mod 0;
#X obj 129 180 *~;
#X obj 129 17 inlet~;
#X obj 129 244 outlet~;
#X obj 147 143 expr~ $v1/3+0.7;
#X obj 147 113 osc~;
#X obj 181 18 loadbang;
#X obj 181 40 random 100;
#X obj 181 84 + 0.01;
#X obj 181 62 / 500;
#X obj 129 212 expr~ tanh($v1);
#X connect 0 0 9 0;
#X connect 1 0 0 0;
#X connect 3 0 0 1;
#X connect 4 0 3 0;
#X connect 5 0 6 0;
#X connect 6 0 8 0;
#X connect 7 0 4 0;
#X connect 8 0 7 0;
#X connect 9 0 2 0;
#X restore 445 369 pd amp-mod;
#N canvas 0 23 386 313 amp-mod 0;
#X obj 129 180 *~;
#X obj 129 17 inlet~;
#X obj 129 244 outlet~;
#X obj 147 143 expr~ $v1/3+0.7;
#X obj 147 113 osc~;
#X obj 181 18 loadbang;
#X obj 181 40 random 100;
#X obj 181 84 + 0.01;
#X obj 181 62 / 500;
#X obj 129 212 expr~ tanh($v1);
#X connect 0 0 9 0;
#X connect 1 0 0 0;
#X connect 3 0 0 1;
#X connect 4 0 3 0;
#X connect 5 0 6 0;
#X connect 6 0 8 0;
#X connect 7 0 4 0;
#X connect 8 0 7 0;
#X connect 9 0 2 0;
#X restore 575 369 pd amp-mod;
#X msg 362 230 \$1 10;
#X obj 140 151 sel 0;
#X msg 140 174 0 10;
#X connect 0 0 2 0;
#X connect 1 0 31 0;
#X connect 1 0 32 0;
#X connect 1 1 30 1;
#X connect 1 2 28 0;
#X connect 2 0 6 0;
#X connect 3 0 2 1;
#X connect 3 0 9 1;
#X connect 3 0 14 1;
#X connect 3 0 18 1;
#X connect 3 0 22 1;
#X connect 5 0 1 0;
#X connect 6 0 4 0;
#X connect 7 0 0 0;
#X connect 8 0 9 0;
#X connect 9 0 34 0;
#X connect 10 0 8 0;
#X connect 11 0 10 0;
#X connect 12 0 11 1;
#X connect 13 0 14 0;
#X connect 14 0 35 0;
#X connect 15 0 13 0;
#X connect 16 0 15 0;
#X connect 17 0 18 0;
#X connect 18 0 36 0;
#X connect 19 0 17 0;
#X connect 20 0 19 0;
#X connect 21 0 22 0;
#X connect 22 0 37 0;
#X connect 23 0 21 0;
#X connect 24 0 23 0;
#X connect 25 0 16 1;
#X connect 26 0 20 1;
#X connect 27 0 24 1;
#X connect 28 0 38 0;
#X connect 29 0 7 0;
#X connect 29 0 11 0;
#X connect 29 0 16 0;
#X connect 29 0 20 0;
#X connect 29 0 24 0;
#X connect 30 0 29 0;
#X connect 31 1 39 0;
#X connect 32 0 33 0;
#X connect 33 0 30 0;
#X connect 34 0 4 0;
#X connect 35 0 4 0;
#X connect 36 0 4 0;
#X connect 37 0 4 0;
#X connect 38 0 3 0;
#X connect 39 0 40 0;
#X connect 40 0 3 0;
#X restore 42 147 pd voice;
#N canvas 1290 224 744 509 voice 0;
#X obj 39 257 osc~;
#X obj 113 40 unpack 0 0 0;
#X obj 39 296 *~;
#X obj 362 262 line~;
#X obj 309 424 throw~ out;
#X obj 113 11 inlet;
#N canvas 0 23 386 313 amp-mod 0;
#X obj 129 180 *~;
#X obj 129 17 inlet~;
#X obj 129 244 outlet~;
#X obj 147 143 expr~ $v1/3+0.7;
#X obj 147 113 osc~;
#X obj 181 18 loadbang;
#X obj 181 40 random 100;
#X obj 181 84 + 0.01;
#X obj 181 62 / 500;
#X obj 129 212 expr~ tanh($v1);
#X connect 0 0 9 0;
#X connect 1 0 0 0;
#X connect 3 0 0 1;
#X connect 4 0 3 0;
#X connect 5 0 6 0;
#X connect 6 0 8 0;
#X connect 7 0 4 0;
#X connect 8 0 7 0;
#X connect 9 0 2 0;
#X restore 39 369 pd amp-mod;
#X obj 39 200 tabread karlheinz;
#X obj 175 257 osc~;
#X obj 175 296 *~;
#X obj 175 200 tabread karlheinz;
#X obj 175 175 +;
#X obj 193 153 r fcoef2;
#X obj 309 257 osc~;
#X obj 309 296 *~;
#X obj 309 200 tabread karlheinz;
#X obj 309 175 +;
#X obj 445 257 osc~;
#X obj 445 296 *~;
#X obj 445 200 tabread karlheinz;
#X obj 445 175 +;
#X obj 575 257 osc~;
#X obj 575 296 *~;
#X obj 575 200 tabread karlheinz;
#X obj 575 175 +;
#X obj 327 153 r fcoef3;
#X obj 463 153 r fcoef4;
#X obj 593 153 r fcoef5;
#X obj 362 73 expr $f1*0.2;
#X obj 175 112 expr ($f1*44)+20;
#X obj 175 85 f;
#X obj 113 125 sel 2;
#X obj 123 70 sel 1;
#X msg 123 92 bang;
#N canvas 0 23 386 313 amp-mod 0;
#X obj 129 180 *~;
#X obj 129 17 inlet~;
#X obj 129 244 outlet~;
#X obj 147 143 expr~ $v1/3+0.7;
#X obj 147 113 osc~;
#X obj 181 18 loadbang;
#X obj 181 40 random 100;
#X obj 181 84 + 0.01;
#X obj 181 62 / 500;
#X obj 129 212 expr~ tanh($v1);
#X connect 0 0 9 0;
#X connect 1 0 0 0;
#X connect 3 0 0 1;
#X connect 4 0 3 0;
#X connect 5 0 6 0;
#X connect 6 0 8 0;
#X connect 7 0 4 0;
#X connect 8 0 7 0;
#X connect 9 0 2 0;
#X restore 175 369 pd amp-mod;
#N canvas 0 23 386 313 amp-mod 0;
#X obj 129 180 *~;
#X obj 129 17 inlet~;
#X obj 129 244 outlet~;
#X obj 147 143 expr~ $v1/3+0.7;
#X obj 147 113 osc~;
#X obj 181 18 loadbang;
#X obj 181 40 random 100;
#X obj 181 84 + 0.01;
#X obj 181 62 / 500;
#X obj 129 212 expr~ tanh($v1);
#X connect 0 0 9 0;
#X connect 1 0 0 0;
#X connect 3 0 0 1;
#X connect 4 0 3 0;
#X connect 5 0 6 0;
#X connect 6 0 8 0;
#X connect 7 0 4 0;
#X connect 8 0 7 0;
#X connect 9 0 2 0;
#X restore 309 369 pd amp-mod;
#N canvas 0 23 386 313 amp-mod 0;
#X obj 129 180 *~;
#X obj 129 17 inlet~;
#X obj 129 244 outlet~;
#X obj 147 143 expr~ $v1/3+0.7;
#X obj 147 113 osc~;
#X obj 181 18 loadbang;
#X obj 181 40 random 100;
#X obj 181 84 + 0.01;
#X obj 181 62 / 500;
#X obj 129 212 expr~ tanh($v1);
#X connect 0 0 9 0;
#X connect 1 0 0 0;
#X connect 3 0 0 1;
#X connect 4 0 3 0;
#X connect 5 0 6 0;
#X connect 6 0 8 0;
#X connect 7 0 4 0;
#X connect 8 0 7 0;
#X connect 9 0 2 0;
#X restore 445 369 pd amp-mod;
#N canvas 0 23 386 313 amp-mod 0;
#X obj 129 180 *~;
#X obj 129 17 inlet~;
#X obj 129 244 outlet~;
#X obj 147 143 expr~ $v1/3+0.7;
#X obj 147 113 osc~;
#X obj 181 18 loadbang;
#X obj 181 40 random 100;
#X obj 181 84 + 0.01;
#X obj 181 62 / 500;
#X obj 129 212 expr~ tanh($v1);
#X connect 0 0 9 0;
#X connect 1 0 0 0;
#X connect 3 0 0 1;
#X connect 4 0 3 0;
#X connect 5 0 6 0;
#X connect 6 0 8 0;
#X connect 7 0 4 0;
#X connect 8 0 7 0;
#X connect 9 0 2 0;
#X restore 575 369 pd amp-mod;
#X msg 362 230 \$1 10;
#X obj 140 151 sel 0;
#X msg 140 174 0 10;
#X connect 0 0 2 0;
#X connect 1 0 31 0;
#X connect 1 0 32 0;
#X connect 1 1 30 1;
#X connect 1 2 28 0;
#X connect 2 0 6 0;
#X connect 3 0 2 1;
#X connect 3 0 9 1;
#X connect 3 0 14 1;
#X connect 3 0 18 1;
#X connect 3 0 22 1;
#X connect 5 0 1 0;
#X connect 6 0 4 0;
#X connect 7 0 0 0;
#X connect 8 0 9 0;
#X connect 9 0 34 0;
#X connect 10 0 8 0;
#X connect 11 0 10 0;
#X connect 12 0 11 1;
#X connect 13 0 14 0;
#X connect 14 0 35 0;
#X connect 15 0 13 0;
#X connect 16 0 15 0;
#X connect 17 0 18 0;
#X connect 18 0 36 0;
#X connect 19 0 17 0;
#X connect 20 0 19 0;
#X connect 21 0 22 0;
#X connect 22 0 37 0;
#X connect 23 0 21 0;
#X connect 24 0 23 0;
#X connect 25 0 16 1;
#X connect 26 0 20 1;
#X connect 27 0 24 1;
#X connect 28 0 38 0;
#X connect 29 0 7 0;
#X connect 29 0 11 0;
#X connect 29 0 16 0;
#X connect 29 0 20 0;
#X connect 29 0 24 0;
#X connect 30 0 29 0;
#X connect 31 1 39 0;
#X connect 32 0 33 0;
#X connect 33 0 30 0;
#X connect 34 0 4 0;
#X connect 35 0 4 0;
#X connect 36 0 4 0;
#X connect 37 0 4 0;
#X connect 38 0 3 0;
#X connect 39 0 40 0;
#X connect 40 0 3 0;
#X restore 52 167 pd voice;
#X obj 22 80 route 0 1 2 3;
#X connect 1 0 2 0;
#X connect 2 0 0 1;
#X connect 2 0 0 0;
#X connect 4 0 9 0;
#X connect 9 0 5 0;
#X connect 9 1 6 0;
#X connect 9 2 7 0;
#X connect 9 3 8 0;
