#N canvas 813 87 178 379 10;
#X obj -76 158 dac~;
#X obj -76 104 catch~ out;
#X obj -81 -45 route 0 1 2 3 4;
#N canvas 606 23 650 724 voice 0;
#X obj -80 226 osc~;
#X obj -120 45 unpack 0 0 0;
#X msg -37 269 \$1 10;
#X obj -37 291 line~;
#X obj -80 265 *~;
#X msg -32 195 \$1 10;
#X obj -32 217 line~;
#X obj -80 313 *~;
#X obj -34 243 sel 2;
#X obj -80 199 line~;
#X obj -80 362 throw~ out;
#X obj -120 16 inlet;
#N canvas 0 23 386 313 amp-mod 0;
#X obj 129 180 *~;
#X obj 129 17 inlet~;
#X obj 129 244 outlet~;
#X obj 147 143 expr~ $v1/3+0.7;
#X obj 147 113 osc~;
#X obj 181 18 loadbang;
#X obj 181 40 random 100;
#X obj 181 84 + 0.01;
#X obj 181 62 / 500;
#X connect 0 0 2 0;
#X connect 1 0 0 0;
#X connect 3 0 0 1;
#X connect 4 0 3 0;
#X connect 5 0 6 0;
#X connect 6 0 8 0;
#X connect 7 0 4 1;
#X connect 8 0 7 0;
#X restore -80 338 pd amp-mod;
#X obj -80 149 tabread karlheinz;
#X obj 56 226 osc~;
#X obj 56 265 *~;
#X obj 56 313 *~;
#X obj 56 199 line~;
#N canvas 0 23 386 313 amp-mod 0;
#X obj 129 180 *~;
#X obj 129 17 inlet~;
#X obj 129 244 outlet~;
#X obj 147 143 expr~ $v1/3+0.7;
#X obj 147 113 osc~;
#X obj 181 18 loadbang;
#X obj 181 40 random 100;
#X obj 181 84 + 0.01;
#X obj 181 62 / 500;
#X connect 0 0 2 0;
#X connect 1 0 0 0;
#X connect 3 0 0 1;
#X connect 4 0 3 0;
#X connect 5 0 6 0;
#X connect 6 0 8 0;
#X connect 7 0 4 1;
#X connect 8 0 7 0;
#X restore 56 338 pd amp-mod;
#X obj 56 149 tabread karlheinz;
#X obj 56 118 +;
#X obj 74 96 r fcoef2;
#X obj 170 226 osc~;
#X obj 170 265 *~;
#X obj 170 313 *~;
#X obj 170 199 line~;
#N canvas 0 23 386 313 amp-mod 0;
#X obj 129 180 *~;
#X obj 129 17 inlet~;
#X obj 129 244 outlet~;
#X obj 147 143 expr~ $v1/3+0.7;
#X obj 147 113 osc~;
#X obj 181 18 loadbang;
#X obj 181 40 random 100;
#X obj 181 84 + 0.01;
#X obj 181 62 / 500;
#X connect 0 0 2 0;
#X connect 1 0 0 0;
#X connect 3 0 0 1;
#X connect 4 0 3 0;
#X connect 5 0 6 0;
#X connect 6 0 8 0;
#X connect 7 0 4 1;
#X connect 8 0 7 0;
#X restore 170 338 pd amp-mod;
#X obj 170 149 tabread karlheinz;
#X obj 170 118 +;
#X obj 306 226 osc~;
#X obj 306 265 *~;
#X obj 306 313 *~;
#X obj 306 199 line~;
#N canvas 0 23 386 313 amp-mod 0;
#X obj 129 180 *~;
#X obj 129 17 inlet~;
#X obj 129 244 outlet~;
#X obj 147 143 expr~ $v1/3+0.7;
#X obj 147 113 osc~;
#X obj 181 18 loadbang;
#X obj 181 40 random 100;
#X obj 181 84 + 0.01;
#X obj 181 62 / 500;
#X connect 0 0 2 0;
#X connect 1 0 0 0;
#X connect 3 0 0 1;
#X connect 4 0 3 0;
#X connect 5 0 6 0;
#X connect 6 0 8 0;
#X connect 7 0 4 1;
#X connect 8 0 7 0;
#X restore 306 338 pd amp-mod;
#X obj 306 149 tabread karlheinz;
#X obj 306 118 +;
#X obj 436 226 osc~;
#X obj 436 265 *~;
#X obj 436 313 *~;
#X obj 436 199 line~;
#N canvas 0 23 386 313 amp-mod 0;
#X obj 129 180 *~;
#X obj 129 17 inlet~;
#X obj 129 244 outlet~;
#X obj 147 143 expr~ $v1/3+0.7;
#X obj 147 113 osc~;
#X obj 181 18 loadbang;
#X obj 181 40 random 100;
#X obj 181 84 + 0.01;
#X obj 181 62 / 500;
#X connect 0 0 2 0;
#X connect 1 0 0 0;
#X connect 3 0 0 1;
#X connect 4 0 3 0;
#X connect 5 0 6 0;
#X connect 6 0 8 0;
#X connect 7 0 4 1;
#X connect 8 0 7 0;
#X restore 436 338 pd amp-mod;
#X obj 436 149 tabread karlheinz;
#X obj 436 118 +;
#X msg 436 177 \$1 10;
#X msg 306 177 \$1 10;
#X msg 170 177 \$1 10;
#X msg 56 177 \$1 10;
#X msg -80 177 \$1 10;
#X obj 188 96 r fcoef3;
#X obj 324 96 r fcoef4;
#X obj 454 96 r fcoef5;
#X obj -32 173 expr $f1*0.2;
#X obj -80 76 expr ($f1*40)+20;
#X connect 0 0 4 0;
#X connect 1 0 8 0;
#X connect 1 1 52 0;
#X connect 1 2 51 0;
#X connect 2 0 3 0;
#X connect 3 0 7 1;
#X connect 3 0 16 1;
#X connect 3 0 24 1;
#X connect 3 0 31 1;
#X connect 3 0 38 1;
#X connect 4 0 7 0;
#X connect 5 0 6 0;
#X connect 6 0 4 1;
#X connect 6 0 15 1;
#X connect 6 0 23 1;
#X connect 6 0 30 1;
#X connect 6 0 37 1;
#X connect 7 0 12 0;
#X connect 8 1 2 0;
#X connect 9 0 0 0;
#X connect 11 0 1 0;
#X connect 12 0 10 0;
#X connect 13 0 47 0;
#X connect 14 0 15 0;
#X connect 15 0 16 0;
#X connect 16 0 18 0;
#X connect 17 0 14 0;
#X connect 18 0 10 0;
#X connect 19 0 46 0;
#X connect 20 0 19 0;
#X connect 21 0 20 1;
#X connect 22 0 23 0;
#X connect 23 0 24 0;
#X connect 24 0 26 0;
#X connect 25 0 22 0;
#X connect 26 0 10 0;
#X connect 27 0 45 0;
#X connect 28 0 27 0;
#X connect 29 0 30 0;
#X connect 30 0 31 0;
#X connect 31 0 33 0;
#X connect 32 0 29 0;
#X connect 33 0 10 0;
#X connect 34 0 44 0;
#X connect 35 0 34 0;
#X connect 36 0 37 0;
#X connect 37 0 38 0;
#X connect 38 0 40 0;
#X connect 39 0 36 0;
#X connect 40 0 10 0;
#X connect 41 0 43 0;
#X connect 42 0 41 0;
#X connect 43 0 39 0;
#X connect 44 0 32 0;
#X connect 45 0 25 0;
#X connect 46 0 17 0;
#X connect 47 0 9 0;
#X connect 48 0 28 1;
#X connect 49 0 35 1;
#X connect 50 0 42 1;
#X connect 51 0 5 0;
#X connect 52 0 13 0;
#X connect 52 0 20 0;
#X connect 52 0 28 0;
#X connect 52 0 35 0;
#X connect 52 0 42 0;
#X restore -61 2 pd voice;
#N canvas 633 332 202 197 reverb 0;
#X obj 64 91 rev1~;
#X msg 118 45 50;
#X obj 118 20 loadbang;
#X obj 9 22 inlet~;
#X obj 9 150 outlet~;
#X obj 9 78 *~ 0.3;
#X obj 64 60 *~ 0.1;
#X obj 9 123 clip~ -0.999 0.999;
#X connect 0 0 7 0;
#X connect 1 0 0 1;
#X connect 2 0 1 0;
#X connect 3 0 6 0;
#X connect 3 0 5 0;
#X connect 5 0 7 0;
#X connect 6 0 0 0;
#X connect 7 0 4 0;
#X restore -76 131 pd reverb;
#N canvas 89 93 637 499 presets 0;
#X obj 252 51 route 0 1 2 3 4 5;
#X obj 252 26 r preset;
#X obj -154 20 loadbang;
#N canvas 0 22 450 278 (subpatch) 0;
#X array karlheinz 100 float 3;
#A 0 50 53.3247 56.8706 60.6522 64.6852 68.9865 73.5737 78.466 83.6836
89.2481 95.1827 101.512 108.262 115.461 123.138 131.326 140.059 149.372
159.305 169.898 181.195 193.243 206.093 219.797 234.413 250 266.624
284.353 303.261 323.426 344.932 367.869 392.33 418.418 446.241 475.913
507.559 541.309 577.304 615.692 656.632 700.295 746.861 796.523 849.488
905.975 966.217 1030.47 1098.99 1172.06 1250 1333.12 1421.76 1516.3
1617.13 1724.66 1839.34 1961.65 2092.09 2231.2 2379.57 2537.8 2706.55
2886.52 3078.46 3283.16 3501.47 3734.3 3982.62 4247.44 4529.87 4831.09
5152.33 5494.93 5860.32 6250 6665.59 7108.82 7581.52 8085.66 8623.31
9196.72 9808.25 10460.5 11156 11897.8 12689 13532.7 14432.6 15392.3
700.295 746.861 796.523 849.488 905.975 966.217 1030.47 1098.99 1172.06
1250;
#X coords 0 0 100 20000 200 140 1 0 0;
#X restore -173 272 graph;
#X msg -183 56 \; karlheinz 0 50 53.3247 56.8706 60.6522 64.6852 68.9865
73.5737 78.466 83.6836 89.2481 95.1827 101.512 108.262 115.461 123.138
131.326 140.059 149.372 159.305 169.898 181.195 193.243 206.093 219.797
234.413 250 266.624 284.353 303.261 323.426 344.932 367.869 392.33
418.418 446.241 475.913 507.559 541.309 577.304 615.692 656.632 700.295
746.861 796.523 849.488 905.975 966.217 1030.47 1098.99 1172.06 1250
1333.12 1421.76 1516.3 1617.13 1724.66 1839.34 1961.65 2092.09 2231.2
2379.57 2537.8 2706.55 2886.52 3078.46 3283.16 3501.47 3734.3 3982.62
4247.44 4529.87 4831.09 5152.33 5494.93 5860.32 6250 6665.59 7108.82
7581.52 8085.66 8623.31 9196.72 9808.25 10460.5 11156 11897.8 12689
13532.7 14432.6 15392.3;
#X msg 252 80 \; fcoef2 2 \; fcoef3 4 \; fcoef4 6 \; fcoef5 8 \;;
#X msg 327 79 \; fcoef2 8 \; fcoef3 16 \; fcoef4 24 \; fcoef5 32 \;
;
#X msg 344 168 \; fcoef2 10 \; fcoef3 20 \; fcoef4 30 \; fcoef5 40
\;;
#X msg 268 170 \; fcoef2 4 \; fcoef3 8 \; fcoef4 12 \; fcoef5 16 \;
;
#X msg 287 260 \; fcoef2 6 \; fcoef3 12 \; fcoef4 18 \; fcoef5 24 \;
;
#X connect 0 0 5 0;
#X connect 0 1 8 0;
#X connect 0 2 9 0;
#X connect 0 3 6 0;
#X connect 0 4 7 0;
#X connect 1 0 0 0;
#X connect 2 0 4 0;
#X connect 2 0 5 0;
#X restore -21 163 pd presets;
#N canvas 269 22 828 699 mobmuplat_ctl 0;
#X obj -265 -623 receive fromGUI;
#X obj -265 -595 list trim;
#X obj -264 -570 route /XYPad;
#X obj -264 -542 route touch;
#X obj -264 -520 outlet;
#X obj -123 -618 receive fromSystem;
#X obj -123 -591 list trim;
#X obj -123 -564 route /tilts;
#X obj -123 -537 unpack 0 0;
#X obj -121 -425 s amp;
#X obj -123 -486 *;
#X obj -123 -512 expr ($f1+1)*0.7;
#X obj -123 -459 *;
#X obj -58 -409 s preset;
#X obj -58 -483 expr ($f1+1)*3;
#X obj -48 -450 int;
#X connect 0 0 1 0;
#X connect 1 0 2 0;
#X connect 2 0 3 0;
#X connect 3 0 4 0;
#X connect 5 0 6 0;
#X connect 6 0 7 0;
#X connect 7 0 8 0;
#X connect 8 0 11 0;
#X connect 8 1 14 0;
#X connect 10 0 12 0;
#X connect 10 0 12 1;
#X connect 11 0 10 0;
#X connect 11 0 10 1;
#X connect 14 0 15 0;
#X connect 15 0 13 0;
#X restore -81 -108 pd mobmuplat_ctl;
#N canvas 606 23 650 724 voice 0;
#X obj -80 226 osc~;
#X obj -120 45 unpack 0 0 0;
#X msg -37 269 \$1 10;
#X obj -37 291 line~;
#X obj -80 265 *~;
#X msg -32 195 \$1 10;
#X obj -32 217 line~;
#X obj -80 313 *~;
#X obj -34 243 sel 2;
#X obj -80 199 line~;
#X obj -80 362 throw~ out;
#X obj -120 16 inlet;
#N canvas 0 23 386 313 amp-mod 0;
#X obj 129 180 *~;
#X obj 129 17 inlet~;
#X obj 129 244 outlet~;
#X obj 147 143 expr~ $v1/3+0.7;
#X obj 147 113 osc~;
#X obj 181 18 loadbang;
#X obj 181 40 random 100;
#X obj 181 84 + 0.01;
#X obj 181 62 / 500;
#X connect 0 0 2 0;
#X connect 1 0 0 0;
#X connect 3 0 0 1;
#X connect 4 0 3 0;
#X connect 5 0 6 0;
#X connect 6 0 8 0;
#X connect 7 0 4 1;
#X connect 8 0 7 0;
#X restore -80 338 pd amp-mod;
#X obj -80 149 tabread karlheinz;
#X obj 56 226 osc~;
#X obj 56 265 *~;
#X obj 56 313 *~;
#X obj 56 199 line~;
#N canvas 0 23 386 313 amp-mod 0;
#X obj 129 180 *~;
#X obj 129 17 inlet~;
#X obj 129 244 outlet~;
#X obj 147 143 expr~ $v1/3+0.7;
#X obj 147 113 osc~;
#X obj 181 18 loadbang;
#X obj 181 40 random 100;
#X obj 181 84 + 0.01;
#X obj 181 62 / 500;
#X connect 0 0 2 0;
#X connect 1 0 0 0;
#X connect 3 0 0 1;
#X connect 4 0 3 0;
#X connect 5 0 6 0;
#X connect 6 0 8 0;
#X connect 7 0 4 1;
#X connect 8 0 7 0;
#X restore 56 338 pd amp-mod;
#X obj 56 149 tabread karlheinz;
#X obj 56 118 +;
#X obj 74 96 r fcoef2;
#X obj 170 226 osc~;
#X obj 170 265 *~;
#X obj 170 313 *~;
#X obj 170 199 line~;
#N canvas 0 23 386 313 amp-mod 0;
#X obj 129 180 *~;
#X obj 129 17 inlet~;
#X obj 129 244 outlet~;
#X obj 147 143 expr~ $v1/3+0.7;
#X obj 147 113 osc~;
#X obj 181 18 loadbang;
#X obj 181 40 random 100;
#X obj 181 84 + 0.01;
#X obj 181 62 / 500;
#X connect 0 0 2 0;
#X connect 1 0 0 0;
#X connect 3 0 0 1;
#X connect 4 0 3 0;
#X connect 5 0 6 0;
#X connect 6 0 8 0;
#X connect 7 0 4 1;
#X connect 8 0 7 0;
#X restore 170 338 pd amp-mod;
#X obj 170 149 tabread karlheinz;
#X obj 170 118 +;
#X obj 306 226 osc~;
#X obj 306 265 *~;
#X obj 306 313 *~;
#X obj 306 199 line~;
#N canvas 0 23 386 313 amp-mod 0;
#X obj 129 180 *~;
#X obj 129 17 inlet~;
#X obj 129 244 outlet~;
#X obj 147 143 expr~ $v1/3+0.7;
#X obj 147 113 osc~;
#X obj 181 18 loadbang;
#X obj 181 40 random 100;
#X obj 181 84 + 0.01;
#X obj 181 62 / 500;
#X connect 0 0 2 0;
#X connect 1 0 0 0;
#X connect 3 0 0 1;
#X connect 4 0 3 0;
#X connect 5 0 6 0;
#X connect 6 0 8 0;
#X connect 7 0 4 1;
#X connect 8 0 7 0;
#X restore 306 338 pd amp-mod;
#X obj 306 149 tabread karlheinz;
#X obj 306 118 +;
#X obj 436 226 osc~;
#X obj 436 265 *~;
#X obj 436 313 *~;
#X obj 436 199 line~;
#N canvas 0 23 386 313 amp-mod 0;
#X obj 129 180 *~;
#X obj 129 17 inlet~;
#X obj 129 244 outlet~;
#X obj 147 143 expr~ $v1/3+0.7;
#X obj 147 113 osc~;
#X obj 181 18 loadbang;
#X obj 181 40 random 100;
#X obj 181 84 + 0.01;
#X obj 181 62 / 500;
#X connect 0 0 2 0;
#X connect 1 0 0 0;
#X connect 3 0 0 1;
#X connect 4 0 3 0;
#X connect 5 0 6 0;
#X connect 6 0 8 0;
#X connect 7 0 4 1;
#X connect 8 0 7 0;
#X restore 436 338 pd amp-mod;
#X obj 436 149 tabread karlheinz;
#X obj 436 118 +;
#X msg 436 177 \$1 10;
#X msg 306 177 \$1 10;
#X msg 170 177 \$1 10;
#X msg 56 177 \$1 10;
#X msg -80 177 \$1 10;
#X obj 188 96 r fcoef3;
#X obj 324 96 r fcoef4;
#X obj 454 96 r fcoef5;
#X obj -32 173 expr $f1*0.2;
#X obj -80 76 expr ($f1*40)+20;
#X connect 0 0 4 0;
#X connect 1 0 8 0;
#X connect 1 1 52 0;
#X connect 1 2 51 0;
#X connect 2 0 3 0;
#X connect 3 0 7 1;
#X connect 3 0 16 1;
#X connect 3 0 24 1;
#X connect 3 0 31 1;
#X connect 3 0 38 1;
#X connect 4 0 7 0;
#X connect 5 0 6 0;
#X connect 6 0 4 1;
#X connect 6 0 15 1;
#X connect 6 0 23 1;
#X connect 6 0 30 1;
#X connect 6 0 37 1;
#X connect 7 0 12 0;
#X connect 8 1 2 0;
#X connect 9 0 0 0;
#X connect 11 0 1 0;
#X connect 12 0 10 0;
#X connect 13 0 47 0;
#X connect 14 0 15 0;
#X connect 15 0 16 0;
#X connect 16 0 18 0;
#X connect 17 0 14 0;
#X connect 18 0 10 0;
#X connect 19 0 46 0;
#X connect 20 0 19 0;
#X connect 21 0 20 1;
#X connect 22 0 23 0;
#X connect 23 0 24 0;
#X connect 24 0 26 0;
#X connect 25 0 22 0;
#X connect 26 0 10 0;
#X connect 27 0 45 0;
#X connect 28 0 27 0;
#X connect 29 0 30 0;
#X connect 30 0 31 0;
#X connect 31 0 33 0;
#X connect 32 0 29 0;
#X connect 33 0 10 0;
#X connect 34 0 44 0;
#X connect 35 0 34 0;
#X connect 36 0 37 0;
#X connect 37 0 38 0;
#X connect 38 0 40 0;
#X connect 39 0 36 0;
#X connect 40 0 10 0;
#X connect 41 0 43 0;
#X connect 42 0 41 0;
#X connect 43 0 39 0;
#X connect 44 0 32 0;
#X connect 45 0 25 0;
#X connect 46 0 17 0;
#X connect 47 0 9 0;
#X connect 48 0 28 1;
#X connect 49 0 35 1;
#X connect 50 0 42 1;
#X connect 51 0 5 0;
#X connect 52 0 13 0;
#X connect 52 0 20 0;
#X connect 52 0 28 0;
#X connect 52 0 35 0;
#X connect 52 0 42 0;
#X restore -51 12 pd voice;
#N canvas 606 23 650 724 voice 0;
#X obj -80 226 osc~;
#X obj -120 45 unpack 0 0 0;
#X msg -37 269 \$1 10;
#X obj -37 291 line~;
#X obj -80 265 *~;
#X msg -32 195 \$1 10;
#X obj -32 217 line~;
#X obj -80 313 *~;
#X obj -34 243 sel 2;
#X obj -80 199 line~;
#X obj -80 362 throw~ out;
#X obj -120 16 inlet;
#N canvas 0 23 386 313 amp-mod 0;
#X obj 129 180 *~;
#X obj 129 17 inlet~;
#X obj 129 244 outlet~;
#X obj 147 143 expr~ $v1/3+0.7;
#X obj 147 113 osc~;
#X obj 181 18 loadbang;
#X obj 181 40 random 100;
#X obj 181 84 + 0.01;
#X obj 181 62 / 500;
#X connect 0 0 2 0;
#X connect 1 0 0 0;
#X connect 3 0 0 1;
#X connect 4 0 3 0;
#X connect 5 0 6 0;
#X connect 6 0 8 0;
#X connect 7 0 4 1;
#X connect 8 0 7 0;
#X restore -80 338 pd amp-mod;
#X obj -80 149 tabread karlheinz;
#X obj 56 226 osc~;
#X obj 56 265 *~;
#X obj 56 313 *~;
#X obj 56 199 line~;
#N canvas 0 23 386 313 amp-mod 0;
#X obj 129 180 *~;
#X obj 129 17 inlet~;
#X obj 129 244 outlet~;
#X obj 147 143 expr~ $v1/3+0.7;
#X obj 147 113 osc~;
#X obj 181 18 loadbang;
#X obj 181 40 random 100;
#X obj 181 84 + 0.01;
#X obj 181 62 / 500;
#X connect 0 0 2 0;
#X connect 1 0 0 0;
#X connect 3 0 0 1;
#X connect 4 0 3 0;
#X connect 5 0 6 0;
#X connect 6 0 8 0;
#X connect 7 0 4 1;
#X connect 8 0 7 0;
#X restore 56 338 pd amp-mod;
#X obj 56 149 tabread karlheinz;
#X obj 56 118 +;
#X obj 74 96 r fcoef2;
#X obj 170 226 osc~;
#X obj 170 265 *~;
#X obj 170 313 *~;
#X obj 170 199 line~;
#N canvas 0 23 386 313 amp-mod 0;
#X obj 129 180 *~;
#X obj 129 17 inlet~;
#X obj 129 244 outlet~;
#X obj 147 143 expr~ $v1/3+0.7;
#X obj 147 113 osc~;
#X obj 181 18 loadbang;
#X obj 181 40 random 100;
#X obj 181 84 + 0.01;
#X obj 181 62 / 500;
#X connect 0 0 2 0;
#X connect 1 0 0 0;
#X connect 3 0 0 1;
#X connect 4 0 3 0;
#X connect 5 0 6 0;
#X connect 6 0 8 0;
#X connect 7 0 4 1;
#X connect 8 0 7 0;
#X restore 170 338 pd amp-mod;
#X obj 170 149 tabread karlheinz;
#X obj 170 118 +;
#X obj 306 226 osc~;
#X obj 306 265 *~;
#X obj 306 313 *~;
#X obj 306 199 line~;
#N canvas 0 23 386 313 amp-mod 0;
#X obj 129 180 *~;
#X obj 129 17 inlet~;
#X obj 129 244 outlet~;
#X obj 147 143 expr~ $v1/3+0.7;
#X obj 147 113 osc~;
#X obj 181 18 loadbang;
#X obj 181 40 random 100;
#X obj 181 84 + 0.01;
#X obj 181 62 / 500;
#X connect 0 0 2 0;
#X connect 1 0 0 0;
#X connect 3 0 0 1;
#X connect 4 0 3 0;
#X connect 5 0 6 0;
#X connect 6 0 8 0;
#X connect 7 0 4 1;
#X connect 8 0 7 0;
#X restore 306 338 pd amp-mod;
#X obj 306 149 tabread karlheinz;
#X obj 306 118 +;
#X obj 436 226 osc~;
#X obj 436 265 *~;
#X obj 436 313 *~;
#X obj 436 199 line~;
#N canvas 0 23 386 313 amp-mod 0;
#X obj 129 180 *~;
#X obj 129 17 inlet~;
#X obj 129 244 outlet~;
#X obj 147 143 expr~ $v1/3+0.7;
#X obj 147 113 osc~;
#X obj 181 18 loadbang;
#X obj 181 40 random 100;
#X obj 181 84 + 0.01;
#X obj 181 62 / 500;
#X connect 0 0 2 0;
#X connect 1 0 0 0;
#X connect 3 0 0 1;
#X connect 4 0 3 0;
#X connect 5 0 6 0;
#X connect 6 0 8 0;
#X connect 7 0 4 1;
#X connect 8 0 7 0;
#X restore 436 338 pd amp-mod;
#X obj 436 149 tabread karlheinz;
#X obj 436 118 +;
#X msg 436 177 \$1 10;
#X msg 306 177 \$1 10;
#X msg 170 177 \$1 10;
#X msg 56 177 \$1 10;
#X msg -80 177 \$1 10;
#X obj 188 96 r fcoef3;
#X obj 324 96 r fcoef4;
#X obj 454 96 r fcoef5;
#X obj -32 173 expr $f1*0.2;
#X obj -80 76 expr ($f1*40)+20;
#X connect 0 0 4 0;
#X connect 1 0 8 0;
#X connect 1 1 52 0;
#X connect 1 2 51 0;
#X connect 2 0 3 0;
#X connect 3 0 7 1;
#X connect 3 0 16 1;
#X connect 3 0 24 1;
#X connect 3 0 31 1;
#X connect 3 0 38 1;
#X connect 4 0 7 0;
#X connect 5 0 6 0;
#X connect 6 0 4 1;
#X connect 6 0 15 1;
#X connect 6 0 23 1;
#X connect 6 0 30 1;
#X connect 6 0 37 1;
#X connect 7 0 12 0;
#X connect 8 1 2 0;
#X connect 9 0 0 0;
#X connect 11 0 1 0;
#X connect 12 0 10 0;
#X connect 13 0 47 0;
#X connect 14 0 15 0;
#X connect 15 0 16 0;
#X connect 16 0 18 0;
#X connect 17 0 14 0;
#X connect 18 0 10 0;
#X connect 19 0 46 0;
#X connect 20 0 19 0;
#X connect 21 0 20 1;
#X connect 22 0 23 0;
#X connect 23 0 24 0;
#X connect 24 0 26 0;
#X connect 25 0 22 0;
#X connect 26 0 10 0;
#X connect 27 0 45 0;
#X connect 28 0 27 0;
#X connect 29 0 30 0;
#X connect 30 0 31 0;
#X connect 31 0 33 0;
#X connect 32 0 29 0;
#X connect 33 0 10 0;
#X connect 34 0 44 0;
#X connect 35 0 34 0;
#X connect 36 0 37 0;
#X connect 37 0 38 0;
#X connect 38 0 40 0;
#X connect 39 0 36 0;
#X connect 40 0 10 0;
#X connect 41 0 43 0;
#X connect 42 0 41 0;
#X connect 43 0 39 0;
#X connect 44 0 32 0;
#X connect 45 0 25 0;
#X connect 46 0 17 0;
#X connect 47 0 9 0;
#X connect 48 0 28 1;
#X connect 49 0 35 1;
#X connect 50 0 42 1;
#X connect 51 0 5 0;
#X connect 52 0 13 0;
#X connect 52 0 20 0;
#X connect 52 0 28 0;
#X connect 52 0 35 0;
#X connect 52 0 42 0;
#X restore -41 22 pd voice;
#N canvas 606 23 650 724 voice 0;
#X obj -80 226 osc~;
#X obj -120 45 unpack 0 0 0;
#X msg -37 269 \$1 10;
#X obj -37 291 line~;
#X obj -80 265 *~;
#X msg -32 195 \$1 10;
#X obj -32 217 line~;
#X obj -80 313 *~;
#X obj -34 243 sel 2;
#X obj -80 199 line~;
#X obj -80 362 throw~ out;
#X obj -120 16 inlet;
#N canvas 0 23 386 313 amp-mod 0;
#X obj 129 180 *~;
#X obj 129 17 inlet~;
#X obj 129 244 outlet~;
#X obj 147 143 expr~ $v1/3+0.7;
#X obj 147 113 osc~;
#X obj 181 18 loadbang;
#X obj 181 40 random 100;
#X obj 181 84 + 0.01;
#X obj 181 62 / 500;
#X connect 0 0 2 0;
#X connect 1 0 0 0;
#X connect 3 0 0 1;
#X connect 4 0 3 0;
#X connect 5 0 6 0;
#X connect 6 0 8 0;
#X connect 7 0 4 1;
#X connect 8 0 7 0;
#X restore -80 338 pd amp-mod;
#X obj -80 149 tabread karlheinz;
#X obj 56 226 osc~;
#X obj 56 265 *~;
#X obj 56 313 *~;
#X obj 56 199 line~;
#N canvas 0 23 386 313 amp-mod 0;
#X obj 129 180 *~;
#X obj 129 17 inlet~;
#X obj 129 244 outlet~;
#X obj 147 143 expr~ $v1/3+0.7;
#X obj 147 113 osc~;
#X obj 181 18 loadbang;
#X obj 181 40 random 100;
#X obj 181 84 + 0.01;
#X obj 181 62 / 500;
#X connect 0 0 2 0;
#X connect 1 0 0 0;
#X connect 3 0 0 1;
#X connect 4 0 3 0;
#X connect 5 0 6 0;
#X connect 6 0 8 0;
#X connect 7 0 4 1;
#X connect 8 0 7 0;
#X restore 56 338 pd amp-mod;
#X obj 56 149 tabread karlheinz;
#X obj 56 118 +;
#X obj 74 96 r fcoef2;
#X obj 170 226 osc~;
#X obj 170 265 *~;
#X obj 170 313 *~;
#X obj 170 199 line~;
#N canvas 0 23 386 313 amp-mod 0;
#X obj 129 180 *~;
#X obj 129 17 inlet~;
#X obj 129 244 outlet~;
#X obj 147 143 expr~ $v1/3+0.7;
#X obj 147 113 osc~;
#X obj 181 18 loadbang;
#X obj 181 40 random 100;
#X obj 181 84 + 0.01;
#X obj 181 62 / 500;
#X connect 0 0 2 0;
#X connect 1 0 0 0;
#X connect 3 0 0 1;
#X connect 4 0 3 0;
#X connect 5 0 6 0;
#X connect 6 0 8 0;
#X connect 7 0 4 1;
#X connect 8 0 7 0;
#X restore 170 338 pd amp-mod;
#X obj 170 149 tabread karlheinz;
#X obj 170 118 +;
#X obj 306 226 osc~;
#X obj 306 265 *~;
#X obj 306 313 *~;
#X obj 306 199 line~;
#N canvas 0 23 386 313 amp-mod 0;
#X obj 129 180 *~;
#X obj 129 17 inlet~;
#X obj 129 244 outlet~;
#X obj 147 143 expr~ $v1/3+0.7;
#X obj 147 113 osc~;
#X obj 181 18 loadbang;
#X obj 181 40 random 100;
#X obj 181 84 + 0.01;
#X obj 181 62 / 500;
#X connect 0 0 2 0;
#X connect 1 0 0 0;
#X connect 3 0 0 1;
#X connect 4 0 3 0;
#X connect 5 0 6 0;
#X connect 6 0 8 0;
#X connect 7 0 4 1;
#X connect 8 0 7 0;
#X restore 306 338 pd amp-mod;
#X obj 306 149 tabread karlheinz;
#X obj 306 118 +;
#X obj 436 226 osc~;
#X obj 436 265 *~;
#X obj 436 313 *~;
#X obj 436 199 line~;
#N canvas 0 23 386 313 amp-mod 0;
#X obj 129 180 *~;
#X obj 129 17 inlet~;
#X obj 129 244 outlet~;
#X obj 147 143 expr~ $v1/3+0.7;
#X obj 147 113 osc~;
#X obj 181 18 loadbang;
#X obj 181 40 random 100;
#X obj 181 84 + 0.01;
#X obj 181 62 / 500;
#X connect 0 0 2 0;
#X connect 1 0 0 0;
#X connect 3 0 0 1;
#X connect 4 0 3 0;
#X connect 5 0 6 0;
#X connect 6 0 8 0;
#X connect 7 0 4 1;
#X connect 8 0 7 0;
#X restore 436 338 pd amp-mod;
#X obj 436 149 tabread karlheinz;
#X obj 436 118 +;
#X msg 436 177 \$1 10;
#X msg 306 177 \$1 10;
#X msg 170 177 \$1 10;
#X msg 56 177 \$1 10;
#X msg -80 177 \$1 10;
#X obj 188 96 r fcoef3;
#X obj 324 96 r fcoef4;
#X obj 454 96 r fcoef5;
#X obj -32 173 expr $f1*0.2;
#X obj -80 76 expr ($f1*40)+20;
#X connect 0 0 4 0;
#X connect 1 0 8 0;
#X connect 1 1 52 0;
#X connect 1 2 51 0;
#X connect 2 0 3 0;
#X connect 3 0 7 1;
#X connect 3 0 16 1;
#X connect 3 0 24 1;
#X connect 3 0 31 1;
#X connect 3 0 38 1;
#X connect 4 0 7 0;
#X connect 5 0 6 0;
#X connect 6 0 4 1;
#X connect 6 0 15 1;
#X connect 6 0 23 1;
#X connect 6 0 30 1;
#X connect 6 0 37 1;
#X connect 7 0 12 0;
#X connect 8 1 2 0;
#X connect 9 0 0 0;
#X connect 11 0 1 0;
#X connect 12 0 10 0;
#X connect 13 0 47 0;
#X connect 14 0 15 0;
#X connect 15 0 16 0;
#X connect 16 0 18 0;
#X connect 17 0 14 0;
#X connect 18 0 10 0;
#X connect 19 0 46 0;
#X connect 20 0 19 0;
#X connect 21 0 20 1;
#X connect 22 0 23 0;
#X connect 23 0 24 0;
#X connect 24 0 26 0;
#X connect 25 0 22 0;
#X connect 26 0 10 0;
#X connect 27 0 45 0;
#X connect 28 0 27 0;
#X connect 29 0 30 0;
#X connect 30 0 31 0;
#X connect 31 0 33 0;
#X connect 32 0 29 0;
#X connect 33 0 10 0;
#X connect 34 0 44 0;
#X connect 35 0 34 0;
#X connect 36 0 37 0;
#X connect 37 0 38 0;
#X connect 38 0 40 0;
#X connect 39 0 36 0;
#X connect 40 0 10 0;
#X connect 41 0 43 0;
#X connect 42 0 41 0;
#X connect 43 0 39 0;
#X connect 44 0 32 0;
#X connect 45 0 25 0;
#X connect 46 0 17 0;
#X connect 47 0 9 0;
#X connect 48 0 28 1;
#X connect 49 0 35 1;
#X connect 50 0 42 1;
#X connect 51 0 5 0;
#X connect 52 0 13 0;
#X connect 52 0 20 0;
#X connect 52 0 28 0;
#X connect 52 0 35 0;
#X connect 52 0 42 0;
#X restore -31 32 pd voice;
#N canvas 606 23 650 724 voice 0;
#X obj -80 226 osc~;
#X obj -120 45 unpack 0 0 0;
#X msg -37 269 \$1 10;
#X obj -37 291 line~;
#X obj -80 265 *~;
#X msg -32 195 \$1 10;
#X obj -32 217 line~;
#X obj -80 313 *~;
#X obj -34 243 sel 2;
#X obj -80 199 line~;
#X obj -80 362 throw~ out;
#X obj -120 16 inlet;
#N canvas 0 23 386 313 amp-mod 0;
#X obj 129 180 *~;
#X obj 129 17 inlet~;
#X obj 129 244 outlet~;
#X obj 147 143 expr~ $v1/3+0.7;
#X obj 147 113 osc~;
#X obj 181 18 loadbang;
#X obj 181 40 random 100;
#X obj 181 84 + 0.01;
#X obj 181 62 / 500;
#X connect 0 0 2 0;
#X connect 1 0 0 0;
#X connect 3 0 0 1;
#X connect 4 0 3 0;
#X connect 5 0 6 0;
#X connect 6 0 8 0;
#X connect 7 0 4 1;
#X connect 8 0 7 0;
#X restore -80 338 pd amp-mod;
#X obj -80 149 tabread karlheinz;
#X obj 56 226 osc~;
#X obj 56 265 *~;
#X obj 56 313 *~;
#X obj 56 199 line~;
#N canvas 0 23 386 313 amp-mod 0;
#X obj 129 180 *~;
#X obj 129 17 inlet~;
#X obj 129 244 outlet~;
#X obj 147 143 expr~ $v1/3+0.7;
#X obj 147 113 osc~;
#X obj 181 18 loadbang;
#X obj 181 40 random 100;
#X obj 181 84 + 0.01;
#X obj 181 62 / 500;
#X connect 0 0 2 0;
#X connect 1 0 0 0;
#X connect 3 0 0 1;
#X connect 4 0 3 0;
#X connect 5 0 6 0;
#X connect 6 0 8 0;
#X connect 7 0 4 1;
#X connect 8 0 7 0;
#X restore 56 338 pd amp-mod;
#X obj 56 149 tabread karlheinz;
#X obj 56 118 +;
#X obj 74 96 r fcoef2;
#X obj 170 226 osc~;
#X obj 170 265 *~;
#X obj 170 313 *~;
#X obj 170 199 line~;
#N canvas 0 23 386 313 amp-mod 0;
#X obj 129 180 *~;
#X obj 129 17 inlet~;
#X obj 129 244 outlet~;
#X obj 147 143 expr~ $v1/3+0.7;
#X obj 147 113 osc~;
#X obj 181 18 loadbang;
#X obj 181 40 random 100;
#X obj 181 84 + 0.01;
#X obj 181 62 / 500;
#X connect 0 0 2 0;
#X connect 1 0 0 0;
#X connect 3 0 0 1;
#X connect 4 0 3 0;
#X connect 5 0 6 0;
#X connect 6 0 8 0;
#X connect 7 0 4 1;
#X connect 8 0 7 0;
#X restore 170 338 pd amp-mod;
#X obj 170 149 tabread karlheinz;
#X obj 170 118 +;
#X obj 306 226 osc~;
#X obj 306 265 *~;
#X obj 306 313 *~;
#X obj 306 199 line~;
#N canvas 0 23 386 313 amp-mod 0;
#X obj 129 180 *~;
#X obj 129 17 inlet~;
#X obj 129 244 outlet~;
#X obj 147 143 expr~ $v1/3+0.7;
#X obj 147 113 osc~;
#X obj 181 18 loadbang;
#X obj 181 40 random 100;
#X obj 181 84 + 0.01;
#X obj 181 62 / 500;
#X connect 0 0 2 0;
#X connect 1 0 0 0;
#X connect 3 0 0 1;
#X connect 4 0 3 0;
#X connect 5 0 6 0;
#X connect 6 0 8 0;
#X connect 7 0 4 1;
#X connect 8 0 7 0;
#X restore 306 338 pd amp-mod;
#X obj 306 149 tabread karlheinz;
#X obj 306 118 +;
#X obj 436 226 osc~;
#X obj 436 265 *~;
#X obj 436 313 *~;
#X obj 436 199 line~;
#N canvas 0 23 386 313 amp-mod 0;
#X obj 129 180 *~;
#X obj 129 17 inlet~;
#X obj 129 244 outlet~;
#X obj 147 143 expr~ $v1/3+0.7;
#X obj 147 113 osc~;
#X obj 181 18 loadbang;
#X obj 181 40 random 100;
#X obj 181 84 + 0.01;
#X obj 181 62 / 500;
#X connect 0 0 2 0;
#X connect 1 0 0 0;
#X connect 3 0 0 1;
#X connect 4 0 3 0;
#X connect 5 0 6 0;
#X connect 6 0 8 0;
#X connect 7 0 4 1;
#X connect 8 0 7 0;
#X restore 436 338 pd amp-mod;
#X obj 436 149 tabread karlheinz;
#X obj 436 118 +;
#X msg 436 177 \$1 10;
#X msg 306 177 \$1 10;
#X msg 170 177 \$1 10;
#X msg 56 177 \$1 10;
#X msg -80 177 \$1 10;
#X obj 188 96 r fcoef3;
#X obj 324 96 r fcoef4;
#X obj 454 96 r fcoef5;
#X obj -32 173 expr $f1*0.2;
#X obj -80 76 expr ($f1*40)+20;
#X connect 0 0 4 0;
#X connect 1 0 8 0;
#X connect 1 1 52 0;
#X connect 1 2 51 0;
#X connect 2 0 3 0;
#X connect 3 0 7 1;
#X connect 3 0 16 1;
#X connect 3 0 24 1;
#X connect 3 0 31 1;
#X connect 3 0 38 1;
#X connect 4 0 7 0;
#X connect 5 0 6 0;
#X connect 6 0 4 1;
#X connect 6 0 15 1;
#X connect 6 0 23 1;
#X connect 6 0 30 1;
#X connect 6 0 37 1;
#X connect 7 0 12 0;
#X connect 8 1 2 0;
#X connect 9 0 0 0;
#X connect 11 0 1 0;
#X connect 12 0 10 0;
#X connect 13 0 47 0;
#X connect 14 0 15 0;
#X connect 15 0 16 0;
#X connect 16 0 18 0;
#X connect 17 0 14 0;
#X connect 18 0 10 0;
#X connect 19 0 46 0;
#X connect 20 0 19 0;
#X connect 21 0 20 1;
#X connect 22 0 23 0;
#X connect 23 0 24 0;
#X connect 24 0 26 0;
#X connect 25 0 22 0;
#X connect 26 0 10 0;
#X connect 27 0 45 0;
#X connect 28 0 27 0;
#X connect 29 0 30 0;
#X connect 30 0 31 0;
#X connect 31 0 33 0;
#X connect 32 0 29 0;
#X connect 33 0 10 0;
#X connect 34 0 44 0;
#X connect 35 0 34 0;
#X connect 36 0 37 0;
#X connect 37 0 38 0;
#X connect 38 0 40 0;
#X connect 39 0 36 0;
#X connect 40 0 10 0;
#X connect 41 0 43 0;
#X connect 42 0 41 0;
#X connect 43 0 39 0;
#X connect 44 0 32 0;
#X connect 45 0 25 0;
#X connect 46 0 17 0;
#X connect 47 0 9 0;
#X connect 48 0 28 1;
#X connect 49 0 35 1;
#X connect 50 0 42 1;
#X connect 51 0 5 0;
#X connect 52 0 13 0;
#X connect 52 0 20 0;
#X connect 52 0 28 0;
#X connect 52 0 35 0;
#X connect 52 0 42 0;
#X restore -78 -17 pd voice;
#X connect 1 0 4 0;
#X connect 2 0 10 0;
#X connect 2 1 3 0;
#X connect 2 2 7 0;
#X connect 2 3 8 0;
#X connect 2 4 9 0;
#X connect 4 0 0 1;
#X connect 4 0 0 0;
#X connect 6 0 2 0;
