#N canvas 1785 426 547 665 10;
#X obj 251 39 receive fromSystem;
#X obj 251 69 list trim;
#X obj 251 96 route /tilts;
#X obj 251 123 unpack 0 0;
#X obj 183 270 + 0;
#X floatatom 183 172 5 0 0 0 - - -, f 5;
#X obj 167 457 *~;
#X obj 183 238 t b f;
#X obj 183 367 line~;
#X obj 183 334 pack 0 50;
#X obj 183 293 mtof;
#X obj 167 402 vcf~ 6;
#X obj 167 610 dac~;
#X obj 167 585 +~;
#X obj 353 373 receive fromGUI;
#X obj 353 399 list trim;
#X obj 353 521 * 0.9;
#X obj 206 551 *~ 0;
#X obj 123 367 noise~;
#X floatatom 251 367 5 0 0 0 - - -, f 5;
#X obj 206 519 delread~ ndel 500;
#X obj 205 488 delwrite~ ndel 500;
#X obj 353 493 route /delaySlider;
#N canvas 1150 203 437 274 envelopes 0;
#X obj 40 50 route /button1 /button2 /button3 /button4 /toggle1 /toggle2
;
#X obj 40 21 inlet;
#X obj 119 168 vline~;
#X obj 119 216 outlet~;
#X msg 40 77 1 10 \, 0 3000;
#X msg 98 102 1 100 \, 0 10000;
#X msg 157 125 1 100 \, 0 10000;
#X msg 215 150 1 100 \, 0 10000;
#X msg 274 95 \$1 10;
#X msg 332 121 \$1 1000;
#X connect 0 0 4 0;
#X connect 0 1 5 0;
#X connect 0 2 6 0;
#X connect 0 3 7 0;
#X connect 0 4 8 0;
#X connect 0 5 9 0;
#X connect 1 0 0 0;
#X connect 2 0 3 0;
#X connect 4 0 2 0;
#X connect 5 0 2 0;
#X connect 6 0 2 0;
#X connect 8 0 2 0;
#X connect 9 0 2 0;
#X restore 218 427 pd envelopes;
#X obj 183 197 expr ($f1+1.3)*50;
#X obj 251 273 expr ($f1+1.0)*50;
#X connect 0 0 1 0;
#X connect 1 0 2 0;
#X connect 2 0 3 0;
#X connect 3 0 25 0;
#X connect 3 1 5 0;
#X connect 4 0 10 0;
#X connect 5 0 24 0;
#X connect 6 0 13 0;
#X connect 6 0 21 0;
#X connect 7 0 4 0;
#X connect 7 1 4 1;
#X connect 8 0 11 1;
#X connect 9 0 8 0;
#X connect 10 0 9 0;
#X connect 11 0 6 0;
#X connect 13 0 12 0;
#X connect 13 0 12 1;
#X connect 14 0 15 0;
#X connect 15 0 22 0;
#X connect 15 0 23 0;
#X connect 16 0 17 1;
#X connect 17 0 13 1;
#X connect 17 0 21 0;
#X connect 18 0 11 0;
#X connect 19 0 11 2;
#X connect 20 0 17 0;
#X connect 22 0 16 0;
#X connect 23 0 6 1;
#X connect 24 0 7 0;
#X connect 25 0 19 0;
