#N canvas 414 508 331 209 10;
#X obj 57 109 dac~;
#N canvas 291 34 964 390 synth 0;
#X obj 621 184 line~;
#X obj 621 212 *~;
#X obj 671 184 line~;
#X obj 621 132 r amp;
#X obj 671 132 r playStop;
#X obj 148 20 r note;
#X obj 546 312 outlet~;
#X obj 124 187 osc~;
#X obj 206 187 osc~;
#X obj 290 187 osc~;
#X obj 367 187 osc~;
#X obj 461 187 osc~;
#X obj 221 36 r fcoef2;
#X obj 305 36 r fcoef3;
#X obj 382 36 r fcoef4;
#X obj 476 36 r fcoef5;
#X obj 124 276 amp-mod 0.07;
#X obj 290 276 amp-mod 0.1;
#X obj 206 276 amp-mod 0.05;
#X obj 367 276 amp-mod 0.035;
#X obj 461 276 amp-mod 0.08;
#X obj 547 187 osc~;
#X obj 569 36 r fcoef6;
#X obj 546 276 amp-mod 0.063;
#X obj 206 78 + 2;
#X obj 290 78 + 4;
#X obj 367 78 + 6;
#X obj 461 78 + 8;
#X obj 548 78 + 10;
#X obj 124 105 mtof;
#X obj 206 105 mtof;
#X obj 367 105 mtof;
#X obj 290 105 mtof;
#X obj 547 105 mtof;
#X obj 461 105 mtof;
#X obj 752 51 route 0 1 2 3 4 5;
#X msg 752 80 \; fcoef2 2 \; fcoef3 4 \; fcoef4 6 \; fcoef5 8 \; fcoef6
10 \;;
#X msg 768 170 \; fcoef2 4 \; fcoef3 8 \; fcoef4 12 \; fcoef5 16 \;
fcoef6 20 \;;
#X msg 787 260 \; fcoef2 6 \; fcoef3 12 \; fcoef4 18 \; fcoef5 24 \;
fcoef6 30 \;;
#X obj 124 251 *~;
#X obj 206 251 *~;
#X obj 290 251 *~;
#X obj 367 251 *~;
#X obj 461 251 *~;
#X obj 547 251 *~;
#X msg 827 79 \; fcoef2 8 \; fcoef3 16 \; fcoef4 24 \; fcoef5 32 \;
fcoef6 40 \;;
#X msg 844 168 \; fcoef2 10 \; fcoef3 20 \; fcoef4 30 \; fcoef5 40
\; fcoef6 50 \;;
#X obj 752 26 r preset;
#X msg 621 158 \$1 20;
#X msg 671 158 \$1 5;
#X obj 722 168 tgl 15 0 empty empty empty 17 7 0 10 -262144 -1 -1 0
1;
#X obj 40 21 r playStop;
#X obj 124 59 f;
#X obj 40 50 sel 1;
#X obj 165 389 bng 15 250 50 0 empty empty empty 17 7 0 10 -262144
-1 -1;
#X connect 0 0 1 0;
#X connect 1 0 39 1;
#X connect 1 0 40 1;
#X connect 1 0 41 1;
#X connect 1 0 42 1;
#X connect 1 0 43 1;
#X connect 1 0 44 1;
#X connect 2 0 1 1;
#X connect 3 0 48 0;
#X connect 4 0 49 0;
#X connect 4 0 50 0;
#X connect 5 0 52 1;
#X connect 7 0 39 0;
#X connect 8 0 40 0;
#X connect 9 0 41 0;
#X connect 10 0 42 0;
#X connect 11 0 43 0;
#X connect 12 0 24 1;
#X connect 13 0 25 1;
#X connect 14 0 26 1;
#X connect 15 0 27 1;
#X connect 16 0 6 0;
#X connect 17 0 6 0;
#X connect 18 0 6 0;
#X connect 19 0 6 0;
#X connect 20 0 6 0;
#X connect 21 0 44 0;
#X connect 22 0 28 1;
#X connect 23 0 6 0;
#X connect 24 0 30 0;
#X connect 25 0 32 0;
#X connect 26 0 31 0;
#X connect 27 0 34 0;
#X connect 28 0 33 0;
#X connect 29 0 7 0;
#X connect 30 0 8 0;
#X connect 31 0 10 0;
#X connect 32 0 9 0;
#X connect 33 0 21 0;
#X connect 34 0 11 0;
#X connect 35 0 36 0;
#X connect 35 1 37 0;
#X connect 35 2 38 0;
#X connect 35 3 45 0;
#X connect 35 4 46 0;
#X connect 39 0 16 0;
#X connect 40 0 18 0;
#X connect 41 0 17 0;
#X connect 42 0 19 0;
#X connect 43 0 20 0;
#X connect 44 0 23 0;
#X connect 47 0 35 0;
#X connect 48 0 0 0;
#X connect 49 0 2 0;
#X connect 51 0 53 0;
#X connect 52 0 29 0;
#X connect 52 0 24 0;
#X connect 52 0 25 0;
#X connect 52 0 26 0;
#X connect 52 0 27 0;
#X connect 52 0 28 0;
#X connect 53 0 52 0;
#X restore 57 43 pd synth;
#N canvas 1913 332 202 197 reverb 0;
#X obj 64 91 rev1~;
#X msg 118 45 50;
#X obj 118 20 loadbang;
#X obj 9 22 inlet~;
#X obj 9 126 outlet~;
#X obj 9 60 *~ 0.3;
#X obj 64 60 *~ 0.1;
#X connect 0 0 4 0;
#X connect 1 0 0 1;
#X connect 2 0 1 0;
#X connect 3 0 6 0;
#X connect 3 0 5 0;
#X connect 5 0 4 0;
#X connect 6 0 0 0;
#X restore 57 75 pd reverb;
#N canvas 838 628 1138 363 gamepad_ctl 0;
#N canvas 119 121 450 278 (subpatch) 0;
#X array scale 22 float 3;
#A 0 2 4 6 8 10 12 14 16 18 20 22 24 26 28 30 32 34 36 38 40 42 44
;
#X coords 0 0 22 44 200 140 1 0 0;
#X restore 725 125 graph;
#X obj 725 39 loadbang;
#X msg 725 67 \; scale 0 2 4 6 8 10 12 14 16 18 20 22 24 26 28 30 32
34 36 38 40 42 44;
#X obj 139 75 hid 0;
#X msg 162 50 print;
#X msg 77 37 open 17;
#X obj 39 64 tgl 15 0 empty empty empty 17 7 0 10 -262144 -1 -1 1 1
;
#X obj 77 12 loadbang;
#X msg 39 38 1;
#X obj 139 97 route key abs;
#X obj 45 149 route btn_0 btn_1 btn_2 btn_3 btn_4 btn_5 btn_6 btn_7
btn_8 btn_9, f 66;
#X obj 460 151 route abs_x abs_y abs_z abs_rz;
#X floatatom 460 173 5 0 0 0 - - -, f 5;
#X floatatom 504 173 5 0 0 0 - - -, f 5;
#X floatatom 548 173 5 0 0 0 - - -, f 5;
#X floatatom 592 173 5 0 0 0 - - -, f 5;
#X obj 45 200 bng 15 250 50 0 empty empty empty 17 7 0 10 -262144 -1
-1;
#X obj 45 176 sel 1;
#X obj 84 200 bng 15 250 50 0 empty empty empty 17 7 0 10 -262144 -1
-1;
#X obj 84 176 sel 1;
#X obj 123 200 bng 15 250 50 0 empty empty empty 17 7 0 10 -262144
-1 -1;
#X obj 123 176 sel 1;
#X obj 162 200 bng 15 250 50 0 empty empty empty 17 7 0 10 -262144
-1 -1;
#X obj 162 176 sel 1;
#X obj 202 200 bng 15 250 50 0 empty empty empty 17 7 0 10 -262144
-1 -1;
#X obj 202 176 sel 1;
#X obj 241 200 bng 15 250 50 0 empty empty empty 17 7 0 10 -262144
-1 -1;
#X obj 241 176 sel 1;
#X msg 45 220 0;
#X msg 84 220 1;
#X msg 123 220 2;
#X msg 162 220 3;
#X msg 202 220 4;
#X msg 241 220 5;
#X obj 123 258 s preset;
#X obj 460 282 s note;
#X obj 460 233 tabread scale;
#X obj 320 191 s playStop;
#X obj 548 312 s amp;
#X obj 548 259 *;
#X obj 548 286 *;
#X obj 460 205 expr $f1*0.09;
#X obj 433 309 outlet;
#X obj 460 255 + 36;
#X obj 548 233 expr (255-$f1)*0.004;
#X text 151 28 <---------;
#X text 218 27 nacisnij print \, odnajdz nr swojego gamepada w konsoli
i wpisz ten nr przy message open. Byc moze trzeba tez zmienic nazwe
przycisku/kontrolera w obiektach route ponizej;
#X connect 1 0 2 0;
#X connect 3 0 9 0;
#X connect 4 0 3 0;
#X connect 5 0 3 0;
#X connect 6 0 3 0;
#X connect 7 0 5 0;
#X connect 7 0 8 0;
#X connect 8 0 6 0;
#X connect 9 0 10 0;
#X connect 9 1 11 0;
#X connect 10 0 17 0;
#X connect 10 1 19 0;
#X connect 10 2 21 0;
#X connect 10 3 23 0;
#X connect 10 4 25 0;
#X connect 10 5 27 0;
#X connect 10 7 37 0;
#X connect 11 0 12 0;
#X connect 11 1 13 0;
#X connect 11 2 14 0;
#X connect 11 3 15 0;
#X connect 12 0 41 0;
#X connect 14 0 44 0;
#X connect 16 0 28 0;
#X connect 17 0 16 0;
#X connect 18 0 29 0;
#X connect 19 0 18 0;
#X connect 20 0 30 0;
#X connect 21 0 20 0;
#X connect 22 0 31 0;
#X connect 23 0 22 0;
#X connect 24 0 32 0;
#X connect 25 0 24 0;
#X connect 26 0 33 0;
#X connect 27 0 26 0;
#X connect 28 0 34 0;
#X connect 29 0 34 0;
#X connect 30 0 34 0;
#X connect 31 0 34 0;
#X connect 32 0 34 0;
#X connect 33 0 34 0;
#X connect 36 0 43 0;
#X connect 39 0 40 0;
#X connect 39 0 40 1;
#X connect 40 0 38 0;
#X connect 41 0 36 0;
#X connect 43 0 35 0;
#X connect 43 0 42 0;
#X connect 44 0 39 0;
#X connect 44 0 39 1;
#X restore 171 45 pd gamepad_ctl;
#X obj 171 93 nbx 5 28 -1e+37 1e+37 0 0 empty empty empty 0 -8 0 10
-262144 -258113 -1 60 256;
#X connect 1 0 2 0;
#X connect 2 0 0 0;
#X connect 2 0 0 1;
#X connect 3 0 4 0;
