#N canvas 611 100 287 424 10;
#N canvas 107 22 896 751 analog-synth 0;
#X obj 432 198 r note;
#X obj 465 877 dac~;
#X obj 618 506 line~;
#X floatatom 465 517 5 0 0 0 - - -, f 5;
#X obj 284 479 loadbang;
#X obj 617 531 *~;
#X obj 617 559 *~;
#X obj 432 244 unpack 0 0 0;
#X text 407 223 midinote amp dur;
#X msg 171 564 1.5;
#X obj 124 151 hsl 128 15 0 0.2 0 0 empty osc2-detune osc2-detune -2
-8 0 10 -228856 -1 -1 5600 1;
#X obj 124 219 hsl 128 15 10 4000 1 0 empty cutoff cutoff -2 -8 0 10
-228856 -1 -1 9500 1;
#X obj 124 185 hsl 128 15 -1.5 1.4 0 0 empty osc2-oct osc2-oct -2 -8
0 10 -228856 -1 -1 4900 1;
#X obj 124 356 hsl 128 15 30 750 0 0 empty del-time del-time -2 -8
0 10 -228856 -1 -1 8300 1;
#X obj 124 289 hsl 128 15 -0.5 5 0 0 empty filt-env filt-env -2 -8
0 10 -228856 -1 -1 6500 1;
#X obj 124 422 hsl 128 15 0.01 1 1 0 empty volume volume -2 -8 0 10
-228856 -1 -1 10000 1;
#X obj 434 415 *~ 0.5;
#X obj 124 254 hsl 128 15 1 4 0 0 empty vcf-rez vcf-rez -2 -8 0 10
-228856 -1 -1 10200 1;
#X obj 618 201 line~;
#X obj 618 117 t b b;
#X msg 286 514 35;
#X obj 485 646 vd~ chorus;
#X obj 465 672 +~;
#X obj 365 574 *~ 10;
#X obj 485 620 delwrite~ chorus 30;
#X obj 436 540 bob~;
#X msg 327 512 2;
#X obj 124 389 hsl 128 15 0 1 0 0 empty del-mix del-mix -2 -8 0 10
-228856 -1 -1 12700 1;
#X obj 124 322 hsl 128 15 0 0.01 0 0 empty vibrato vibrato -2 -8 0
10 -228856 -1 -1 800 1;
#N canvas 177 23 720 739 bandlimosc 0;
#X obj 76 55 inlet;
#X obj 68 486 outlet~;
#X obj 53 437 -~;
#X obj 201 287 /~;
#X obj 222 261 clip~ 1 999999;
#X obj 76 245 phasor~;
#X obj 88 307 *~;
#X obj 88 331 clip~ -0.5 0.5;
#X obj 88 355 *~ 1000;
#X obj 88 379 +~ 501;
#X obj 76 269 -~ 0.5;
#X obj 88 403 tabread4~ \$0-transition;
#N canvas 387 82 453 494 transition-table 0;
#X text 182 38 back the phase up one sample;
#X obj 144 159 cos~;
#X obj 96 154 cos~;
#X msg 40 223 bang;
#X msg 13 95 \; pd dsp 1;
#X msg 177 69 -0.0005;
#X obj 144 133 *~ 3;
#X obj 144 184 *~ 0.33333;
#X obj 96 182 *~ -1;
#X msg 40 50 bang;
#X obj 95 93 phasor~ 22.05;
#X obj 96 215 *~ 0.75;
#X obj 96 242 tabwrite~ \$0-transition;
#X obj 40 28 loadbang;
#X text 232 116 twice the table length;
#X text 220 93 period is 2000 samples \,;
#N canvas 0 22 450 300 (subpatch) 0;
#X array \$0-transition 1002 float 0;
#X coords 0 1 1001 -1 200 140 1;
#X restore 53 297 graph;
#X text 64 439 ----- 1002 samples ----;
#X connect 1 0 7 0;
#X connect 2 0 8 0;
#X connect 3 0 12 0;
#X connect 5 0 10 1;
#X connect 6 0 1 0;
#X connect 7 0 11 0;
#X connect 8 0 11 0;
#X connect 9 0 5 0;
#X connect 9 0 4 0;
#X connect 9 0 3 0;
#X connect 10 0 2 0;
#X connect 10 0 6 0;
#X connect 11 0 12 0;
#X connect 13 0 9 0;
#X restore 271 475 pd transition-table;
#X obj 201 159 loadbang;
#X msg 201 184 8000;
#X obj 347 428 -~;
#X obj 495 278 /~;
#X obj 516 252 clip~ 1 999999;
#X obj 370 236 phasor~;
#X obj 382 298 *~;
#X obj 382 322 clip~ -0.5 0.5;
#X obj 382 346 *~ 1000;
#X obj 382 370 +~ 501;
#X obj 370 260 -~ 0.5;
#X obj 382 394 tabread4~ \$0-transition;
#X text 72 24 freq;
#X obj 193 53 inlet;
#X text 189 22 osc2-detune;
#X obj 311 52 inlet;
#X text 307 21 osc2-octave;
#X obj 311 85 int;
#X obj 290 144 +;
#X obj 172 94 +;
#X obj 76 175 line~;
#X obj 370 177 line~;
#X obj 76 116 mtof;
#X obj 370 128 mtof;
#X text 477 19 vibrato;
#X obj 482 50 inlet;
#X obj 461 75 osc~ 3.5;
#X obj 461 100 *~;
#X obj 461 125 +~ 1;
#X obj 370 202 *~;
#X obj 76 200 *~;
#X obj 311 113 * 12;
#X msg 76 150 \$1 100;
#X msg 370 152 \$1 100;
#X connect 0 0 32 0;
#X connect 0 0 35 0;
#X connect 2 0 1 0;
#X connect 3 0 6 1;
#X connect 4 0 3 1;
#X connect 5 0 10 0;
#X connect 6 0 7 0;
#X connect 7 0 8 0;
#X connect 8 0 9 0;
#X connect 9 0 11 0;
#X connect 10 0 6 0;
#X connect 10 0 2 1;
#X connect 11 0 2 0;
#X connect 13 0 14 0;
#X connect 14 0 3 0;
#X connect 14 0 16 0;
#X connect 15 0 1 0;
#X connect 16 0 19 1;
#X connect 17 0 16 1;
#X connect 18 0 23 0;
#X connect 19 0 20 0;
#X connect 20 0 21 0;
#X connect 21 0 22 0;
#X connect 22 0 24 0;
#X connect 23 0 19 0;
#X connect 23 0 15 1;
#X connect 24 0 15 0;
#X connect 26 0 32 1;
#X connect 28 0 30 0;
#X connect 30 0 44 0;
#X connect 31 0 36 0;
#X connect 32 0 31 0;
#X connect 33 0 43 0;
#X connect 34 0 42 0;
#X connect 35 0 45 0;
#X connect 36 0 46 0;
#X connect 38 0 40 1;
#X connect 39 0 40 0;
#X connect 40 0 41 0;
#X connect 41 0 42 1;
#X connect 41 0 43 1;
#X connect 42 0 18 0;
#X connect 42 0 17 0;
#X connect 43 0 5 0;
#X connect 43 0 4 0;
#X connect 44 0 31 1;
#X connect 45 0 33 0;
#X connect 46 0 34 0;
#X restore 433 334 pd bandlimosc;
#X obj 365 600 +~ 11;
#X obj 365 548 osc~ 0.2;
#X obj 450 487 *~;
#X obj 618 276 *~;
#X obj 618 301 +~ 1;
#X obj 618 328 s~ fltenv;
#X obj 471 454 r~ fltenv;
#X msg 569 454 0 100;
#X obj 618 226 *~;
#X obj 618 251 *~;
#X msg 619 164 0 \, 1 35;
#X obj 705 138 del 35;
#X msg 705 165 0 890;
#X msg 359 378 \$1 100;
#X obj 359 403 line~;
#X obj 465 707 *~;
#X obj 465 835 +~;
#X obj 504 801 *~ 0;
#X obj 513 738 delwrite~ ndel 750;
#X obj 180 110 tgl 20 0 empty empty empty 17 7 0 10 -262144 -1 -1 0
1;
#X obj 359 148 loadbang;
#X obj 569 370 route 0;
#X obj 377 827 *~ 0.1;
#X msg 618 470 0.5 100;
#X obj 355 225 mtof;
#X floatatom 355 247 5 0 0 0 - - -, f 5;
#X msg 359 170 28;
#X obj 514 770 vd~ ndel 750;
#X msg 338 725 \$1 20;
#X obj 338 747 line~;
#X obj 568 806 lop~ 1000;
#X connect 0 0 7 0;
#X connect 2 0 5 0;
#X connect 2 0 5 1;
#X connect 3 0 25 2;
#X connect 4 0 20 0;
#X connect 4 0 9 0;
#X connect 4 0 26 0;
#X connect 5 0 6 0;
#X connect 5 0 6 1;
#X connect 6 0 45 1;
#X connect 7 1 19 0;
#X connect 10 0 29 1;
#X connect 11 0 43 0;
#X connect 12 0 29 2;
#X connect 13 0 58 0;
#X connect 14 0 33 1;
#X connect 15 0 16 1;
#X connect 16 0 25 0;
#X connect 17 0 3 0;
#X connect 18 0 38 0;
#X connect 18 0 38 1;
#X connect 19 0 40 0;
#X connect 19 1 41 0;
#X connect 21 0 22 1;
#X connect 22 0 45 0;
#X connect 23 0 30 0;
#X connect 25 0 24 0;
#X connect 25 0 22 0;
#X connect 26 0 3 0;
#X connect 27 0 47 1;
#X connect 28 0 29 3;
#X connect 29 0 16 0;
#X connect 30 0 21 0;
#X connect 31 0 23 0;
#X connect 32 0 25 1;
#X connect 33 0 34 0;
#X connect 34 0 35 0;
#X connect 36 0 32 1;
#X connect 37 0 2 0;
#X connect 38 0 39 0;
#X connect 38 0 39 1;
#X connect 39 0 33 0;
#X connect 40 0 18 0;
#X connect 41 0 42 0;
#X connect 42 0 18 0;
#X connect 43 0 44 0;
#X connect 44 0 32 0;
#X connect 45 0 46 0;
#X connect 45 0 48 0;
#X connect 46 0 1 0;
#X connect 46 0 1 1;
#X connect 47 0 46 1;
#X connect 47 0 60 0;
#X connect 49 0 51 0;
#X connect 50 0 56 0;
#X connect 51 0 37 0;
#X connect 51 1 53 0;
#X connect 52 0 1 0;
#X connect 53 0 2 0;
#X connect 54 0 55 0;
#X connect 56 0 29 0;
#X connect 56 0 54 0;
#X connect 57 0 47 0;
#X connect 58 0 59 0;
#X connect 59 0 57 0;
#X connect 60 0 48 0;
#X coords 0 -1 1 1 180 350 1 100 100;
#X restore 45 32 pd analog-synth;
