#N canvas 751 278 464 669 10;
#X obj 95 447 osc~;
#X obj 96 644 dac~;
#X obj 95 327 mtof;
#X obj 140 39 receive fromSystem;
#X obj 140 69 list trim;
#X obj 140 96 route /tilts;
#X obj 140 123 unpack 0 0;
#X obj 197 222 + 0;
#X floatatom 197 149 5 0 0 0 - - -, f 5;
#X obj 197 198 t b f;
#X obj 140 309 expr ($f1+1.0)*0.4;
#X obj 95 374 line~;
#X msg 95 351 \$1 70;
#X obj 197 174 expr ($f1+1)*12;
#X obj 95 301 + 48;
#X obj 95 521 cos~;
#X obj 95 469 +~ 0.25;
#X obj 95 498 *~;
#X obj 96 568 *~ 0.3;
#X obj 139 386 line~;
#X msg 140 364 \$1 20;
#X obj 93 149 receive fromGUI;
#X obj 93 175 list trim;
#X obj 93 199 route /octave;
#X obj 93 221 route 0 1 2 3;
#X msg 93 246 48;
#X msg 111 269 60;
#X msg 130 246 72;
#X msg 149 269 84;
#X obj 204 377 osc~ 4.5;
#X obj 204 421 *~;
#X obj 204 443 +~ 1;
#X obj 95 409 *~;
#X obj 186 274 route /playStop;
#X obj 139 418 *~;
#X obj 185 354 line~;
#X msg 186 332 \$1 20;
#X obj 134 599 rev1~;
#X obj 95 543 hip~ 10;
#X obj 204 398 *~ 0.07;
#X msg 154 570 50;
#X obj 155 546 loadbang;
#X connect 0 0 16 0;
#X connect 2 0 12 0;
#X connect 3 0 4 0;
#X connect 4 0 5 0;
#X connect 5 0 6 0;
#X connect 6 0 10 0;
#X connect 6 1 8 0;
#X connect 7 0 14 0;
#X connect 8 0 13 0;
#X connect 9 0 7 0;
#X connect 9 1 7 1;
#X connect 10 0 20 0;
#X connect 11 0 32 0;
#X connect 12 0 11 0;
#X connect 13 0 9 0;
#X connect 14 0 2 0;
#X connect 15 0 38 0;
#X connect 16 0 17 0;
#X connect 17 0 15 0;
#X connect 18 0 1 0;
#X connect 18 0 1 1;
#X connect 18 0 37 0;
#X connect 19 0 30 1;
#X connect 19 0 34 0;
#X connect 20 0 19 0;
#X connect 21 0 22 0;
#X connect 22 0 23 0;
#X connect 23 0 24 0;
#X connect 23 1 33 0;
#X connect 24 0 25 0;
#X connect 24 1 26 0;
#X connect 24 2 27 0;
#X connect 24 3 28 0;
#X connect 25 0 14 1;
#X connect 26 0 14 1;
#X connect 27 0 14 1;
#X connect 28 0 14 1;
#X connect 29 0 39 0;
#X connect 30 0 31 0;
#X connect 31 0 32 1;
#X connect 32 0 0 0;
#X connect 33 0 36 0;
#X connect 34 0 17 1;
#X connect 35 0 34 1;
#X connect 36 0 35 0;
#X connect 37 0 1 1;
#X connect 37 0 1 0;
#X connect 38 0 18 0;
#X connect 39 0 30 0;
#X connect 40 0 37 1;
#X connect 41 0 40 0;
