#N canvas 262 23 1018 751 10;
#X declare -path westcoast_abs;
#X obj 464 545 maestro4 1;
#X obj 547 50 basic-osc 1;
#X obj 543 212 wavefold 1;
#X obj 545 312 lpg 1;
#X obj 61 263 slope 1;
#X obj 324 50 8steps 1;
#X obj 761 50 basic-osc 2;
#X obj 103 56 clock 1;
#X obj 103 147 random-voltages 1;
#X obj 543 408 stereo-delay 1;
#X obj 67 702 declare -path westcoast_abs;
#N canvas 0 23 450 300 mobmuplat 0;
#X obj 150 38 r fromGUI;
#X obj 150 59 list trim;
#X obj 150 107 * 127;
#X obj 151 153 s clock-rate;
#X obj 150 128 int;
#X obj 225 118 s clock-on;
#X obj 150 80 route /clock-rate /clock-on /slope-cycle;
#X obj 306 130 s slope-cycle;
#X connect 0 0 1 0;
#X connect 1 0 6 0;
#X connect 2 0 4 0;
#X connect 4 0 3 0;
#X connect 6 0 2 0;
#X connect 6 1 5 0;
#X connect 6 2 7 0;
#X restore 824 310 pd mobmuplat;
#X connect 1 0 2 0;
#X connect 2 0 3 0;
#X connect 3 0 0 0;
#X connect 3 0 9 0;
#X connect 4 0 3 1;
#X connect 4 3 5 0;
#X connect 5 0 1 0;
#X connect 5 0 6 0;
#X connect 6 0 1 2;
#X connect 6 0 2 1;
#X connect 7 0 8 0;
#X connect 8 0 2 1;
#X connect 8 0 5 2;
#X connect 8 0 4 2;
#X connect 9 0 0 4;
#X connect 9 1 0 6;
