#N canvas 765 251 821 664 10;
#X obj 134 42 r fromGUI;
#X obj 68 100 print;
#X obj 134 63 list trim;
#X obj 134 88 route /freq /amp;
#X floatatom 133 126 5 0 0 0 - - -, f 5;
#X floatatom 181 125 5 0 0 0 - - -, f 5;
#X obj 133 143 * 30;
#X obj 133 162 + 40;
#X floatatom 133 180 5 0 0 0 - - -, f 5;
#X obj 133 198 mtof;
#X floatatom 133 216 5 0 0 0 - - -, f 5;
#X obj 133 234 osc~;
#X obj 133 252 *~;
#X obj 133 280 dac~;
#X connect 0 0 2 0;
#X connect 2 0 1 0;
#X connect 2 0 3 0;
#X connect 3 0 4 0;
#X connect 3 1 5 0;
#X connect 4 0 6 0;
#X connect 5 0 12 1;
#X connect 6 0 7 0;
#X connect 7 0 8 0;
#X connect 8 0 9 0;
#X connect 9 0 10 0;
#X connect 10 0 11 0;
#X connect 11 0 12 0;
#X connect 12 0 13 0;
#X connect 12 0 13 1;
