#N canvas 1200 28 1018 751 10;
#X declare -path westcoast_abs;
#X obj 464 545 maestro4 1;
#X obj 547 50 basic-osc 1;
#X obj 543 212 wavefold 1;
#X obj 545 312 lpg 1;
#X obj 61 263 slope 1;
#X obj 324 50 8steps 1;
#X obj 103 56 clock 1;
#X obj 103 147 random-voltages 1;
#X obj 543 408 stereo-delay 1;
#X obj 67 702 declare -path westcoast_abs;
#N canvas 1091 752 1341 580 mobmuplat 0;
#X obj 50 38 r fromGUI;
#X obj 50 59 list trim;
#X obj 50 107 * 127;
#X obj 50 148 s clock-rate;
#X obj 50 128 int;
#X obj 127 107 s clock-on;
#X obj 743 128 s slope-cycle;
#X obj 52 422 route /8steps /8reset /8scale;
#X obj 50 444 s 8steps;
#X obj 107 444 s 8reset;
#X obj 164 444 s 8scale;
#X obj 50 80 route /clock-rate /clock-on /rvolt-random /rvolt-slew
/slope-rise /slope-fall /slope-depth /slope-speed /slope-curve /slope-cycle
, f 129;
#X obj 666 107 s slope-curve;
#X obj 589 128 s slope-speed;
#X obj 358 107 * 127;
#X obj 358 128 int;
#X obj 435 107 * 127;
#X obj 435 128 int;
#X obj 512 107 * 127;
#X obj 512 128 int;
#X obj 358 148 s slope-rise;
#X obj 435 170 s slope-fall;
#X obj 512 148 s slope-depth;
#X obj 204 107 * 127;
#X obj 281 107 * 127;
#X obj 204 148 s rvolt-random;
#X obj 281 170 s rvolt-slew;
#X obj 50 351 s osc1-pitch;
#X obj 191 260 * 127;
#X obj 261 305 * 127;
#X obj 332 260 * 127;
#X obj 402 260 * 127;
#X obj 473 260 * 127;
#X obj 543 302 * 127;
#X obj 614 260 * 127;
#X obj 684 260 * 127;
#X obj 138 350 s osc2-pitch;
#X obj 191 281 s fold;
#X obj 261 326 s gate-lev;
#X obj 332 281 s del-rateL;
#X obj 402 281 s del-rateR;
#X obj 473 281 s del-feedback;
#X obj 543 324 s del-lowpass;
#X obj 614 281 s mix-synth;
#X obj 684 281 s mix-delay;
#X obj 261 262 *;
#X obj 261 283 *;
#X obj 881 425 send toGUI;
#X obj 881 53 loadbang;
#X msg 881 87 list /clock-rate 0.7 \, list /clock-on 1 \, list /rvolt-random
0.2 \, list /rvolt-slew 0.3 \, list /slope-rise 0.4 \, list /slope-fall
0.4 \, list /slope-depth 0.5 \, list /slope-speed 1 \, list /slope-curve
1 \, list /slope-cycle 0 \, list /osc-pitch 0.7 \, list /osc-detune
0.7 \, list /fold 0.8 \, list /gate-lev 0 \, list /del-rateL 0.9 \,
list /del-rateR 0.94 \, list /del-feedback 0.3 \, list /del-lowpass
0.4 \, list /mix-synth 1 \, list /mix-delay 0.7 \, list /8steps 0.28
0.71 0.37 0.82 0.097 0.943 0.517 0.65, f 29;
#X obj 50 235 route /osc-pitch /osc-detune /fold /gate-lev /del-rateL
/del-rateR /del-feedback /del-lowpass /mix-synth /mix-delay, f 118
;
#X obj 120 273 + 1;
#X obj 120 319 * 1;
#X obj 120 294 t b f;
#X obj 50 262 * 127;
#X connect 0 0 1 0;
#X connect 1 0 11 0;
#X connect 2 0 4 0;
#X connect 4 0 3 0;
#X connect 7 0 8 0;
#X connect 7 1 9 0;
#X connect 7 2 10 0;
#X connect 11 0 2 0;
#X connect 11 1 5 0;
#X connect 11 2 23 0;
#X connect 11 3 24 0;
#X connect 11 4 14 0;
#X connect 11 5 16 0;
#X connect 11 6 18 0;
#X connect 11 7 13 0;
#X connect 11 8 12 0;
#X connect 11 9 6 0;
#X connect 11 10 50 0;
#X connect 14 0 15 0;
#X connect 15 0 20 0;
#X connect 16 0 17 0;
#X connect 17 0 21 0;
#X connect 18 0 19 0;
#X connect 19 0 22 0;
#X connect 23 0 25 0;
#X connect 24 0 26 0;
#X connect 28 0 37 0;
#X connect 29 0 38 0;
#X connect 30 0 39 0;
#X connect 31 0 40 0;
#X connect 32 0 41 0;
#X connect 33 0 42 0;
#X connect 34 0 43 0;
#X connect 35 0 44 0;
#X connect 45 0 46 0;
#X connect 45 0 46 1;
#X connect 46 0 29 0;
#X connect 48 0 49 0;
#X connect 49 0 47 0;
#X connect 50 0 54 0;
#X connect 50 1 51 0;
#X connect 50 2 28 0;
#X connect 50 3 45 0;
#X connect 50 3 45 1;
#X connect 50 4 30 0;
#X connect 50 5 31 0;
#X connect 50 6 32 0;
#X connect 50 7 33 0;
#X connect 50 8 34 0;
#X connect 50 9 35 0;
#X connect 50 10 7 0;
#X connect 51 0 53 0;
#X connect 52 0 36 0;
#X connect 53 0 52 0;
#X connect 53 1 52 1;
#X connect 54 0 27 0;
#X connect 54 0 52 0;
#X restore 824 310 pd mobmuplat;
#X obj 761 50 basic-osc 2;
#X connect 1 0 2 0;
#X connect 2 0 3 0;
#X connect 3 0 0 0;
#X connect 3 0 8 0;
#X connect 4 0 3 1;
#X connect 4 3 5 0;
#X connect 5 0 1 0;
#X connect 5 0 11 0;
#X connect 6 0 7 0;
#X connect 7 0 2 1;
#X connect 7 0 5 2;
#X connect 7 0 4 2;
#X connect 8 0 0 4;
#X connect 8 1 0 6;
#X connect 11 0 1 2;
#X connect 11 0 2 1;
