#N canvas 256 35 390 560 16;
#X obj 55 469 output~;
#X floatatom 98 174 5 0 0 0 - - -, f 5;
#X floatatom 157 174 5 0 0 0 - - -, f 5;
#X obj 45 25 tgl 25 0 empty empty empty 17 7 0 10 -204786 -1 -1 1 1
;
#X floatatom 202 51 5 10 10000 0 - - -, f 5;
#N canvas 1463 907 450 300 percenv 0;
#X obj 63 35 inlet~;
#X obj 63 231 outlet~;
#X obj 165 35 inlet;
#X obj 63 178 *~;
#X obj 102 142 line~;
#X obj 217 70 del 10;
#X msg 113 100 0 \, 0.3 10;
#X msg 217 102 0.3 \, 0 800;
#X connect 0 0 3 0;
#X connect 2 0 6 0;
#X connect 2 0 5 0;
#X connect 3 0 1 0;
#X connect 4 0 3 1;
#X connect 5 0 7 0;
#X connect 6 0 4 0;
#X connect 7 0 4 0;
#X restore 55 286 pd percenv;
#X obj 152 251 r playnote;
#N canvas 1647 541 291 333 fm-gen 0;
#X obj 27 28 inlet;
#X obj 110 28 inlet;
#X obj 186 29 inlet;
#X obj 26 271 outlet~;
#X obj 26 79 mtof;
#X obj 26 236 osc~;
#X obj 26 203 +~;
#X obj 64 175 *~;
#X obj 64 144 osc~;
#X obj 64 112 * 1;
#X obj 111 67 / 100;
#X obj 186 66 * 10;
#X connect 0 0 4 0;
#X connect 1 0 10 0;
#X connect 2 0 11 0;
#X connect 4 0 6 0;
#X connect 4 0 9 0;
#X connect 5 0 3 0;
#X connect 6 0 5 0;
#X connect 7 0 6 1;
#X connect 8 0 7 0;
#X connect 9 0 8 0;
#X connect 10 0 9 1;
#X connect 11 0 7 1;
#X restore 55 216 pd fm-gen;
#N canvas 1605 414 450 300 rand-note-gen 0;
#X obj 34 30 inlet;
#X obj 228 28 inlet;
#X obj 44 140 random 40;
#X obj 91 96 metro 1000;
#X obj 164 131 s playnote;
#X obj 225 59 * 10;
#X obj 44 172 + 50;
#X obj 95 28 inlet;
#X obj 157 28 inlet;
#X obj 44 217 s mn;
#X connect 0 0 3 0;
#X connect 1 0 5 0;
#X connect 2 0 6 0;
#X connect 3 0 4 0;
#X connect 3 0 2 0;
#X connect 5 0 3 1;
#X connect 6 0 9 0;
#X connect 7 0 6 1;
#X connect 8 0 2 1;
#X restore 45 86 pd rand-note-gen;
#X text 92 142 ratio index;
#X text 97 331 fmod depth offs feedb;
#X text 71 353 [0.01Hz] [ms] [ms] [0.01];
#N canvas 213 22 770 699 mod-delay 0;
#X obj 136 199 line~;
#X obj 136 165 pack 0 100;
#X obj 264 418 line~;
#X obj 264 384 pack 0 100;
#X obj 264 350 * 0.01;
#X obj 33 363 +~;
#X obj 243 454 *~;
#X obj 61 227 *~;
#X obj 61 125 / 100;
#X obj 33 397 hip~ 5;
#X obj 61 193 +~ 1;
#X obj 61 159 osc~ 0;
#X text 114 91 <-- cycle frequency (hundredths);
#X text 189 132 <-- cycle depth (msec);
#X text 313 317 <-- feedback (hundredths);
#X obj 243 488 clip~ -1 1;
#X obj 234 233 line~;
#X obj 234 199 pack 0 100;
#X text 287 166 <-- offset (msec);
#X obj 166 272 +~ 1.46;
#X obj 61 261 +~;
#X obj 117 39 inlet;
#X obj 191 39 inlet;
#X obj 268 39 inlet;
#X obj 342 39 inlet;
#X obj 35 39 inlet~;
#X obj 33 559 outlet~;
#X obj 243 520 delwrite~ mod-del 1000;
#X obj 61 304 vd~ mod-del;
#X connect 0 0 7 1;
#X connect 1 0 0 0;
#X connect 2 0 6 1;
#X connect 3 0 2 0;
#X connect 4 0 3 0;
#X connect 5 0 9 0;
#X connect 6 0 15 0;
#X connect 7 0 20 0;
#X connect 8 0 11 0;
#X connect 9 0 6 0;
#X connect 9 0 26 0;
#X connect 10 0 7 0;
#X connect 11 0 10 0;
#X connect 15 0 27 0;
#X connect 16 0 19 0;
#X connect 17 0 16 0;
#X connect 19 0 20 1;
#X connect 20 0 28 0;
#X connect 21 0 8 0;
#X connect 22 0 1 0;
#X connect 23 0 17 0;
#X connect 24 0 4 0;
#X connect 25 0 5 0;
#X connect 28 0 5 1;
#X restore 55 422 pd mod-delay;
#X floatatom 84 384 5 0 0 0 - - -, f 5;
#X floatatom 148 384 5 0 0 0 - - -, f 5;
#X floatatom 207 385 5 0 0 0 - - -, f 5;
#X floatatom 267 384 5 0 0 0 - - -, f 5;
#X floatatom 97 51 4 30 100 0 - - -, f 4;
#X floatatom 149 51 4 0 100 0 - - -, f 4;
#X text 89 16 from width repTime*0.01;
#X obj 48 173 r mn;
#X connect 1 0 7 1;
#X connect 2 0 7 2;
#X connect 3 0 8 0;
#X connect 4 0 8 3;
#X connect 5 0 12 0;
#X connect 6 0 5 1;
#X connect 7 0 5 0;
#X connect 12 0 0 1;
#X connect 12 0 0 0;
#X connect 13 0 12 1;
#X connect 14 0 12 2;
#X connect 15 0 12 3;
#X connect 16 0 12 4;
#X connect 17 0 8 1;
#X connect 18 0 8 2;
#X connect 20 0 7 0;
