#N canvas 871 489 402 446 16;
#X obj 115 335 output~;
#X floatatom 158 174 5 0 0 0 - - -, f 5;
#X floatatom 234 171 5 0 0 0 - - -, f 5;
#X obj 45 25 tgl 25 0 empty empty empty 17 7 0 10 -204786 -1 -1 1 1
;
#X floatatom 156 28 5 10 10000 0 - - -, f 5;
#N canvas 1463 907 450 300 percenv 0;
#X obj 63 35 inlet~;
#X obj 63 231 outlet~;
#X obj 165 35 inlet;
#X obj 63 178 *~;
#X obj 102 142 line~;
#X msg 214 103 1 \, 0 800;
#X msg 113 100 0 \, 1 10;
#X obj 217 70 del 10;
#X connect 0 0 3 0;
#X connect 2 0 6 0;
#X connect 2 0 7 0;
#X connect 3 0 1 0;
#X connect 4 0 3 1;
#X connect 5 0 4 0;
#X connect 6 0 4 0;
#X connect 7 0 5 0;
#X restore 115 286 pd percenv;
#X obj 212 251 r playnote;
#N canvas 1647 541 291 333 fm-gen 0;
#X obj 27 28 inlet;
#X obj 110 28 inlet;
#X obj 186 29 inlet;
#X obj 26 271 outlet~;
#X obj 26 79 mtof;
#X obj 26 236 osc~;
#X obj 26 203 +~;
#X obj 64 175 *~;
#X obj 64 144 osc~;
#X obj 64 112 * 1;
#X obj 111 67 / 100;
#X obj 186 66 * 10;
#X connect 0 0 4 0;
#X connect 1 0 10 0;
#X connect 2 0 11 0;
#X connect 4 0 6 0;
#X connect 4 0 9 0;
#X connect 5 0 3 0;
#X connect 6 0 5 0;
#X connect 7 0 6 1;
#X connect 8 0 7 0;
#X connect 9 0 8 0;
#X connect 10 0 9 1;
#X connect 11 0 7 1;
#X restore 115 216 pd fm-gen;
#N canvas 1605 414 450 300 rand-note-gen 0;
#X obj 34 30 inlet;
#X obj 130 30 inlet;
#X obj 44 140 random 40;
#X obj 44 172 + 40;
#X obj 91 96 metro 1000;
#X obj 164 131 s playnote;
#X obj 127 61 * 10;
#X obj 44 217 s midinote;
#X connect 0 0 4 0;
#X connect 1 0 6 0;
#X connect 2 0 3 0;
#X connect 3 0 7 0;
#X connect 4 0 5 0;
#X connect 4 0 2 0;
#X connect 6 0 4 1;
#X restore 45 61 pd rand-note-gen;
#X obj 40 173 r midinote;
#X text 152 142 ratio index;
#X connect 1 0 7 1;
#X connect 2 0 7 2;
#X connect 3 0 8 0;
#X connect 4 0 8 1;
#X connect 5 0 0 0;
#X connect 5 0 0 1;
#X connect 6 0 5 1;
#X connect 7 0 5 0;
#X connect 9 0 7 0;
