#N canvas 871 489 527 671 16;
#X floatatom 44 249 0 0 0 0 - - -;
#X obj 44 292 mtof;
#X obj 44 541 output~;
#X obj 44 449 osc~;
#X obj 44 416 +~;
#X obj 113 387 *~;
#X obj 113 356 osc~;
#X obj 113 324 * 1;
#X floatatom 160 250 5 0 0 0 - - -, f 5;
#X floatatom 272 251 5 0 0 0 - - -, f 5;
#X text 41 213 midi note mod ratio mod index;
#X obj 160 279 / 100;
#X obj 272 280 * 10;
#X obj 44 96 bng 25 250 50 0 empty empty empty 17 7 0 10 -204786 -1
-1;
#X obj 44 140 random 40;
#X obj 44 172 + 40;
#X obj 91 96 metro 1000;
#X obj 90 55 tgl 25 0 empty empty empty 17 7 0 10 -204786 -1 -1 1 1
;
#X floatatom 193 58 5 0 0 0 - - -, f 5;
#X obj 138 57 * 10;
#N canvas 1463 907 450 300 percenv 0;
#X obj 63 35 inlet~;
#X obj 63 231 outlet~;
#X obj 165 35 inlet;
#X obj 63 178 *~;
#X obj 165 130 line~;
#X msg 165 90 1 \, 0 800;
#X connect 0 0 3 0;
#X connect 2 0 5 0;
#X connect 3 0 1 0;
#X connect 4 0 3 1;
#X connect 5 0 4 0;
#X restore 44 492 pd percenv;
#X obj 217 99 s playnote;
#X obj 141 454 r playnote;
#X connect 0 0 1 0;
#X connect 1 0 4 0;
#X connect 1 0 7 0;
#X connect 3 0 20 0;
#X connect 4 0 3 0;
#X connect 5 0 4 1;
#X connect 6 0 5 0;
#X connect 7 0 6 0;
#X connect 8 0 11 0;
#X connect 9 0 12 0;
#X connect 11 0 7 1;
#X connect 12 0 5 1;
#X connect 13 0 14 0;
#X connect 14 0 15 0;
#X connect 15 0 0 0;
#X connect 16 0 13 0;
#X connect 16 0 21 0;
#X connect 17 0 16 0;
#X connect 18 0 19 0;
#X connect 19 0 16 1;
#X connect 20 0 2 0;
#X connect 20 0 2 1;
#X connect 22 0 20 1;
